<svg width="32" height="32" viewBox="0 0 32 32" fill="none" xmlns="http://www.w3.org/2000/svg">
<path d="M20.6666 15.3333H19.3333L17.3333 19.3333L14.6666 11.3333L12.6666 15.3333H11.3333M15.9908 6.84775C13.325 3.7312 8.87962 2.89286 5.53955 5.74668C2.19948 8.60051 1.72925 13.372 4.35222 16.7472C6.33341 19.2966 11.9617 24.4146 14.5973 26.7665C15.0818 27.1989 15.3241 27.415 15.6077 27.5001C15.854 27.574 16.1277 27.574 16.3739 27.5001C16.6576 27.415 16.8998 27.1989 17.3844 26.7665C20.02 24.4146 25.6482 19.2966 27.6294 16.7472C30.2524 13.372 29.8396 8.57049 26.4421 5.74668C23.0446 2.92288 18.6566 3.7312 15.9908 6.84775Z" stroke="url(#paint0_linear_49_243)" stroke-width="1.5" stroke-linecap="round" stroke-linejoin="round"/>
<defs>
<linearGradient id="paint0_linear_49_243" x1="2.50976" y1="27.6941" x2="26.9845" y2="6.75259" gradientUnits="userSpaceOnUse">
<stop stop-color="#B0FDFF"/>
<stop offset="1" stop-color="#00F686"/>
</linearGradient>
</defs>
</svg>
