<svg width="40" height="40" viewBox="0 0 40 40" fill="none" xmlns="http://www.w3.org/2000/svg">
<path d="M0.759494 15.9494H39.2405M0.759494 15.9494V37.2152C0.759494 38.3338 1.66626 39.2405 2.78481 39.2405H37.2152C38.3338 39.2405 39.2405 38.3338 39.2405 37.2152V15.9494M0.759494 15.9494V5.82278C0.759494 4.70423 1.66626 3.79747 2.78481 3.79747H37.2152C38.3338 3.79747 39.2405 4.70423 39.2405 5.82278V15.9494M11.8987 0.759494V8.86076M28.1013 0.759494V8.86076M24.0506 31.1392H30.1266M9.87342 31.1392H15.9494M24.0506 23.038H30.1266M9.87342 23.038H15.9494" stroke="url(#paint0_linear_17_294)" stroke-width="1.5" stroke-linecap="round" stroke-linejoin="round"/>
<defs>
<linearGradient id="paint0_linear_17_294" x1="0.533136" y1="39.4669" x2="39.4669" y2="10.0402" gradientUnits="userSpaceOnUse">
<stop stop-color="#B0FDFF"/>
<stop offset="1" stop-color="#00F686"/>
</linearGradient>
</defs>
</svg>
