<svg width="24" height="24" viewBox="0 0 24 24" fill="none" xmlns="http://www.w3.org/2000/svg">
<g clip-path="url(#clip0_17_429)">
<path d="M15.2812 17.625H8.71875C8.66697 17.625 8.625 17.667 8.625 17.7188V19.2188C8.625 19.2705 8.66697 19.3125 8.71875 19.3125H15.2812C15.333 19.3125 15.375 19.2705 15.375 19.2188V17.7188C15.375 17.667 15.333 17.625 15.2812 17.625ZM13.6875 20.8125H10.3125C10.2607 20.8125 10.2188 20.8545 10.2188 20.9062V22.4062C10.2188 22.458 10.2607 22.5 10.3125 22.5H13.6875C13.7393 22.5 13.7812 22.458 13.7812 22.4062V20.9062C13.7812 20.8545 13.7393 20.8125 13.6875 20.8125ZM12 1.5C7.2375 1.5 3.375 5.3625 3.375 10.125C3.375 12.9563 4.73906 15.4688 6.84609 17.0414C6.88345 17.0688 6.93525 17.0649 6.96797 17.032L8.04141 15.9586C8.06104 15.9391 8.07107 15.912 8.06881 15.8844C8.06655 15.8568 8.05224 15.8316 8.02969 15.8156C5.55107 14.0824 4.48328 10.9415 5.39189 8.0567C6.30049 5.17187 8.97547 3.20987 12 3.20987C15.0245 3.20987 17.6995 5.17187 18.6081 8.0567C19.5167 10.9415 18.4489 14.0824 15.9703 15.8156C15.9478 15.8316 15.9334 15.8568 15.9312 15.8844C15.9289 15.912 15.939 15.9391 15.9586 15.9586L17.032 17.032C17.0648 17.0649 17.1165 17.0688 17.1539 17.0414C19.2609 15.4688 20.625 12.9563 20.625 10.125C20.625 5.3625 16.7625 1.5 12 1.5ZM14.0766 10.1578C14.4352 9.68203 14.707 9.19219 14.707 8.55C14.707 6.91641 13.4461 5.97891 11.993 5.97891C10.5398 5.97891 9.3375 6.92109 9.29297 8.46328C9.29297 8.51027 9.33037 8.54873 9.37734 8.55H10.8844C10.9283 8.54885 10.964 8.51418 10.9664 8.47031C10.9969 7.91719 11.3414 7.48359 11.993 7.48359C12.6445 7.48359 13.0336 7.93359 13.0336 8.53828C13.0336 8.81953 12.8672 9.12891 12.6609 9.39844L11.7094 10.6195C11.3766 11.0578 11.2219 11.4047 11.2219 11.9578V12.2602C11.2219 12.3055 11.2586 12.3422 11.3039 12.3422H12.8086C12.8308 12.3428 12.8522 12.3345 12.8681 12.319C12.884 12.3036 12.893 12.2823 12.893 12.2602V12.0727C12.893 11.8547 12.9961 11.5852 13.125 11.4164L14.0766 10.1578ZM12.0961 13.2797H12.0188C11.4656 13.2797 11.0156 13.7461 11.0156 14.3227C11.0156 14.8992 11.4656 15.3633 12.0188 15.3633H12.0961C12.6492 15.3633 13.0992 14.8969 13.0992 14.3227C13.0992 13.7484 12.6492 13.2797 12.0961 13.2797Z" fill="url(#paint0_linear_17_429)"/>
</g>
<defs>
<linearGradient id="paint0_linear_17_429" x1="18.0375" y1="2.15625" x2="-1.96265" y2="14.5261" gradientUnits="userSpaceOnUse">
<stop stop-color="#00F686"/>
<stop offset="1" stop-color="#B0FDFF"/>
</linearGradient>
<clipPath id="clip0_17_429">
<rect width="24" height="24" fill="white"/>
</clipPath>
</defs>
</svg>
