<svg width="24" height="24" viewBox="0 0 24 24" fill="none" xmlns="http://www.w3.org/2000/svg">
<g clip-path="url(#clip0_17_466)">
<path d="M9.84114 8.68206C12.6444 8.68206 15.5598 8.06559 17.3108 6.89003V9.02997H18.9329V4.34458C18.9329 1.52772 14.2501 0.00683594 9.84396 0.00683594C5.43785 0.00683594 0.752197 1.52774 0.752197 4.34455V17.1328C0.752197 19.9496 5.43506 21.4705 9.84114 21.4705V19.8512C5.2131 19.8512 2.37145 18.2673 2.37145 17.133V13.2886C4.12251 14.4613 7.03532 15.0806 9.84114 15.0806V13.4583C5.2131 13.4583 2.37145 11.8746 2.37145 10.7403V6.89308C4.12251 8.06559 7.03813 8.68206 9.84114 8.68206ZM9.84114 1.6263C14.4694 1.6263 17.3108 3.2102 17.3108 4.34458C17.3108 5.47893 14.4692 7.06281 9.84114 7.06281C5.21308 7.06281 2.37147 5.47891 2.37147 4.34455C2.37171 3.21018 5.21589 1.6263 9.84114 1.6263ZM17.1081 9.56987C13.0829 9.56987 10.9783 11.1182 10.9783 12.6471V20.8648C10.9783 22.3937 13.0855 23.942 17.1081 23.942C21.1033 23.942 23.2048 22.4157 23.2376 20.8976H23.2404V12.6473C23.2376 11.1182 21.1333 9.56987 17.1081 9.56987ZM17.1081 11.1894C20.0839 11.1894 21.6184 12.2114 21.6184 12.6471C21.6184 13.0828 20.0839 14.1047 17.1081 14.1047C14.1323 14.1047 12.5978 13.0828 12.5978 12.6471C12.5978 12.2113 14.1323 11.1894 17.1081 11.1894ZM17.1081 22.3225C14.1323 22.3225 12.5978 21.3005 12.5978 20.8648V18.9028C13.6254 19.4619 15.1353 19.8346 17.1081 19.8346C19.0809 19.8346 20.588 19.4621 21.6184 18.9028V20.8648C21.6184 21.3005 20.0839 22.3225 17.1081 22.3225ZM17.1081 18.2123C14.1323 18.2123 12.5978 17.1901 12.5978 16.7546V14.7926C13.6254 15.3517 15.1353 15.7242 17.1081 15.7242C19.0809 15.7242 20.588 15.3517 21.6184 14.7926V16.7546C21.6184 17.1901 20.0839 18.2123 17.1081 18.2123Z" fill="url(#paint0_linear_17_466)"/>
</g>
<defs>
<linearGradient id="paint0_linear_17_466" x1="19.8672" y1="0.754809" x2="-4.15714" y2="17.7502" gradientUnits="userSpaceOnUse">
<stop stop-color="#00F686"/>
<stop offset="1" stop-color="#B0FDFF"/>
</linearGradient>
<clipPath id="clip0_17_466">
<rect width="24" height="24" fill="white"/>
</clipPath>
</defs>
</svg>
