<svg width="38" height="38" viewBox="0 0 38 38" fill="none" xmlns="http://www.w3.org/2000/svg">
<path d="M10.8933 0.76H2.78667C1.66737 0.76 0.76 1.66737 0.76 2.78667V10.8933M10.8933 37.24H2.78667C1.66737 37.24 0.76 36.3327 0.76 35.2133V27.1067M27.1067 37.24H35.2133C36.3327 37.24 37.24 36.3327 37.24 35.2133V27.1067M27.1067 0.76H35.2133C36.3327 0.76 37.24 1.66737 37.24 2.78667V10.8933M7.85333 28.12V12.92H13.9333L15.96 9.88H22.04L24.0667 12.92H30.1467V28.12H7.85333ZM19 23.0533C20.679 23.0533 22.04 21.6923 22.04 20.0133C22.04 18.3343 20.679 16.9733 19 16.9733C17.321 16.9733 15.96 18.3343 15.96 20.0133C15.96 21.6923 17.321 23.0533 19 23.0533Z" stroke="url(#paint0_linear_17_282)" stroke-width="1.5" stroke-linecap="round" stroke-linejoin="round"/>
<defs>
<linearGradient id="paint0_linear_17_282" x1="0.545413" y1="37.4546" x2="37.4546" y2="9.55812" gradientUnits="userSpaceOnUse">
<stop stop-color="#B0FDFF"/>
<stop offset="1" stop-color="#00F686"/>
</linearGradient>
</defs>
</svg>
