<svg width="24" height="24" viewBox="0 0 24 24" fill="none" xmlns="http://www.w3.org/2000/svg">
<path d="M6.5 9.729C4.47145 10.3662 3 12.2613 3 14.5001C3 17.2616 5.2386 19.5001 8 19.5001C9.6358 19.5001 11.0882 18.7145 12.0003 17.5001C12.1202 17.3405 12.2308 17.1735 12.3312 17M17 9C15 9 13.25 8.75 10 7.5V13.5H17V20.5M12 3C12 4.10457 11.1046 5 10 5C8.89543 5 8 4.10457 8 3C8 1.89543 8.89543 1 10 1C11.1046 1 12 1.89543 12 3Z" stroke="url(#paint0_linear_17_367)" stroke-width="1.5" stroke-linecap="round" stroke-linejoin="round"/>
<defs>
<linearGradient id="paint0_linear_17_367" x1="2.91765" y1="20.6147" x2="20.1113" y2="11.2848" gradientUnits="userSpaceOnUse">
<stop stop-color="#B0FDFF"/>
<stop offset="1" stop-color="#00F686"/>
</linearGradient>
</defs>
</svg>
