<svg width="24" height="24" viewBox="0 0 24 24" fill="none" xmlns="http://www.w3.org/2000/svg">
<g clip-path="url(#clip0_17_438)">
<path d="M8.50005 4.00001C8.85847 3.99829 9.1904 4.18851 9.37011 4.49862C9.54983 4.80873 9.54983 5.19131 9.37011 5.50142C9.1904 5.81153 8.85847 6.00175 8.50005 6.00003C7.94966 5.99735 7.50488 5.55042 7.50488 5.00001C7.50488 4.44962 7.94966 4.00269 8.50005 4.00001ZM15.5 4.00001C15.8585 3.99829 16.1904 4.18851 16.3701 4.49862C16.5498 4.80873 16.5498 5.19131 16.3701 5.50142C16.1904 5.81153 15.8585 6.00175 15.5 6.00003C14.9496 5.99735 14.5049 5.55042 14.5049 5.00001C14.5049 4.44962 14.9496 4.00269 15.5 4.00001Z" fill="url(#paint0_linear_17_438)"/>
<path d="M19 21.5C19.2591 21.4994 19.4757 21.6968 19.4991 21.9548C19.5225 22.2128 19.3449 22.4459 19.09 22.492L19 22.5H5C4.741 22.5005 4.52449 22.3031 4.50109 22.0452C4.47769 21.7872 4.65514 21.5541 4.91 21.508L5 21.5H19ZM21 19.5C21.259 19.4995 21.4755 19.6969 21.4989 19.9548C21.5223 20.2128 21.3449 20.4459 21.09 20.492L21 20.5H3.00001C2.74096 20.5006 2.52437 20.3032 2.50096 20.0452C2.47756 19.7872 2.65508 19.5541 2.91001 19.508L3.00001 19.5H21ZM23 1.5C23.1326 1.5 23.2598 1.55267 23.3536 1.64644C23.4473 1.7402 23.5 1.86738 23.5 2V18C23.5 18.1326 23.4473 18.2598 23.3536 18.3536C23.2598 18.4473 23.1326 18.5 23 18.5H1.00002C0.867405 18.5 0.740224 18.4473 0.646453 18.3536C0.552681 18.2598 0.5 18.1326 0.5 18V2C0.5 1.86738 0.552681 1.7402 0.646453 1.64644C0.740224 1.55267 0.867405 1.5 1.00002 1.5H23ZM22.5 2.50001H1.50001V17.5H22.5V2.50001ZM7.00002 10C7.24151 9.99992 7.44855 10.1725 7.49202 10.41L7.5 10.5V16C7.50051 16.259 7.30314 16.4755 7.04519 16.4989C6.78725 16.5223 6.55414 16.3449 6.50802 16.09L6.5 16V10.5C6.5 10.3674 6.55268 10.2402 6.64645 10.1464C6.74022 10.0527 6.8674 10 7.00002 10ZM10 10C10.2415 9.99992 10.4485 10.1725 10.492 10.41L10.5 10.5V16C10.5005 16.259 10.3031 16.4755 10.0452 16.4989C9.78725 16.5223 9.55414 16.3449 9.50802 16.09L9.5 16V10.5C9.5 10.3674 9.55268 10.2402 9.64645 10.1464C9.74022 10.0527 9.8674 10 10 10ZM14 10C14.2415 9.99992 14.4485 10.1725 14.492 10.41L14.5 10.5V16C14.5006 16.2591 14.3032 16.4756 14.0452 16.4991C13.7872 16.5225 13.5541 16.3449 13.508 16.09L13.5 16V10.5C13.5 10.2239 13.7239 10 14 10ZM17 10C17.2415 9.99992 17.4485 10.1725 17.492 10.41L17.5 10.5V16C17.5006 16.2591 17.3032 16.4756 17.0452 16.4991C16.7872 16.5225 16.5541 16.3449 16.508 16.09L16.5 16V10.5C16.5 10.2239 16.7239 10 17 10ZM7.00002 6.49999C7.25802 6.49999 7.45501 6.573 7.66602 6.714C7.7 6.73601 7.814 6.81701 7.84002 6.834C8.012 6.94901 8.174 7.00001 8.50002 7.00001C8.82603 7.00001 8.98801 6.94999 9.16002 6.834C9.18601 6.81701 9.30001 6.73601 9.33402 6.714C9.503 6.60101 9.662 6.53201 9.85201 6.50899L10 6.49999H11C11.206 6.49986 11.391 6.62611 11.466 6.81799L11.49 6.90199L12 9.44899L12.51 6.90199C12.5503 6.70055 12.7098 6.54427 12.912 6.50801L13 6.49999H14C14.258 6.49999 14.455 6.573 14.666 6.714C14.7 6.73601 14.814 6.81701 14.84 6.834C15.012 6.94901 15.174 7.00001 15.5 7.00001C15.826 7.00001 15.988 6.94999 16.16 6.834C16.186 6.81701 16.3 6.73601 16.334 6.714C16.503 6.60101 16.662 6.53201 16.852 6.50899L17 6.49999H18C18.206 6.49986 18.391 6.62611 18.466 6.81799L18.49 6.90199L19.49 11.902C19.5412 12.1558 19.3902 12.4067 19.1419 12.4803C18.8937 12.5539 18.6303 12.4257 18.535 12.185L18.51 12.098L17.59 7.49999H17C16.964 7.49999 16.948 7.506 16.888 7.54601L16.715 7.66601C16.38 7.88801 16.028 7.99999 15.5 7.99999C14.972 7.99999 14.619 7.88801 14.285 7.66601L14.112 7.54601C14.067 7.51601 14.047 7.50499 14.024 7.50199L14 7.49999H13.41L12.49 12.098C12.4737 12.1787 12.438 12.2542 12.386 12.318L12.37 12.336L12.354 12.353C12.3027 12.4042 12.241 12.4438 12.173 12.469L12.136 12.481C12.0917 12.4933 12.046 12.5001 12 12.501L11.992 12.5L11.948 12.497C11.937 12.496 11.926 12.4947 11.915 12.493L11.902 12.49C11.8213 12.4737 11.7458 12.438 11.682 12.386L11.664 12.37L11.647 12.354C11.5985 12.3055 11.5604 12.2477 11.535 12.184L11.531 12.174C11.5265 12.1615 11.5225 12.1488 11.519 12.136L11.509 12.098L10.59 7.49999H10C9.96402 7.49999 9.94801 7.506 9.88801 7.54601L9.71502 7.66601C9.38 7.88801 9.02802 7.99999 8.50002 7.99999C7.97202 7.99999 7.619 7.88801 7.28502 7.66601L7.112 7.54601C7.067 7.51601 7.04701 7.50499 7.02402 7.50199L7.00002 7.49999H6.41L5.49001 12.098C5.4388 12.351 5.20341 12.5234 4.94674 12.4959C4.69008 12.4685 4.49651 12.2501 4.49996 11.992L4.51002 11.902L5.51 6.90202C5.55033 6.70057 5.70978 6.5443 5.912 6.50803L6.00001 6.49999H7.00002ZM8.50002 3.49999C9.32844 3.49999 10 4.17157 10 4.99999C10 5.82842 9.32844 6.49999 8.50002 6.49999C7.67159 6.49999 7.00002 5.82842 7.00002 4.99999C7.00002 4.17157 7.67159 3.49999 8.50002 3.49999ZM15.5 3.49999C16.3284 3.49999 17 4.17157 17 4.99999C17 5.82842 16.3284 6.49999 15.5 6.49999C14.6716 6.49999 14 5.82842 14 4.99999C14 4.17157 14.6716 3.49999 15.5 3.49999ZM8.50001 4.5C8.22387 4.5 8.00001 4.72386 8.00001 5C8.00001 5.27615 8.22387 5.5 8.50001 5.5C8.77616 5.5 9.00001 5.27615 9.00001 5C9.00001 4.72386 8.77616 4.5 8.50001 4.5ZM15.5 4.5C15.2239 4.5 15 4.72386 15 5C15 5.27615 15.2239 5.5 15.5 5.5C15.7761 5.5 16 5.27615 16 5C16 4.72386 15.7761 4.5 15.5 4.5Z" fill="url(#paint1_linear_17_438)"/>
</g>
<defs>
<linearGradient id="paint0_linear_17_438" x1="15.1549" y1="4.0625" x2="13.9989" y2="7.97921" gradientUnits="userSpaceOnUse">
<stop stop-color="#00F686"/>
<stop offset="1" stop-color="#B0FDFF"/>
</linearGradient>
<linearGradient id="paint1_linear_17_438" x1="20.05" y1="2.15625" x2="-1.89439" y2="20.2527" gradientUnits="userSpaceOnUse">
<stop stop-color="#00F686"/>
<stop offset="1" stop-color="#B0FDFF"/>
</linearGradient>
<clipPath id="clip0_17_438">
<rect width="24" height="24" fill="white"/>
</clipPath>
</defs>
</svg>
