<svg width="23" height="20" viewBox="0 0 23 20" fill="none" xmlns="http://www.w3.org/2000/svg">
<path d="M19.0896 19.0896C21.032 17.1473 22.2333 14.4639 22.2333 11.5C22.2333 5.57213 17.4279 0.766667 11.5 0.766667C5.57213 0.766667 0.766667 5.57213 0.766667 11.5C0.766667 14.4639 1.96804 17.1473 3.91039 19.0896M11.5 1.27778V3.32222M19.0876 4.92818L17.4988 6.21475M20.967 13.1523L18.9749 12.6924M2.03288 13.1523L4.02492 12.6924M3.91237 4.92813L5.50119 6.21475M14.7186 8.83128C14.7186 8.83128 13.068 13.4836 12.2837 14.2958C11.4994 15.108 10.2051 15.1306 9.39289 14.3462C8.58064 13.5619 8.55804 12.2676 9.3424 11.4554C10.1267 10.6432 14.7186 8.83128 14.7186 8.83128Z" stroke="url(#paint0_linear_17_380)" stroke-width="1.5" stroke-linecap="round" stroke-linejoin="round"/>
<defs>
<linearGradient id="paint0_linear_17_380" x1="0.640393" y1="19.1974" x2="19.7685" y2="2.25957" gradientUnits="userSpaceOnUse">
<stop stop-color="#B0FDFF"/>
<stop offset="1" stop-color="#00F686"/>
</linearGradient>
</defs>
</svg>
