<svg width="24" height="24" viewBox="0 0 24 24" fill="none" xmlns="http://www.w3.org/2000/svg">
<g clip-path="url(#clip0_17_417)">
<path d="M16.6 15.6999L21.6 12.7999C21.8 12.6999 22 12.3999 22 12.1999V11.8999C22 11.5999 21.9 11.3999 21.6 11.2999L16.6 8.3999L13.3 11.9999L16.6 15.6999ZM12.5 11.0999L15.5 7.69989L4.39999 1.09989C4.2 0.999906 4.00001 0.999906 3.79999 1.09989L12.5 11.0999ZM12.5 12.9999L3.79999 22.9999C4.00001 23.0999 4.2 23.0999 4.39999 22.9999L15.5 16.4999L12.5 12.9999ZM3 2.0999V21.8999L11.7 11.9999L3 2.0999Z" fill="black"/>
</g>
<defs>
<clipPath id="clip0_17_417">
<rect width="24" height="24" fill="white"/>
</clipPath>
</defs>
</svg>
