<svg width="24" height="24" viewBox="0 0 24 24" fill="none" xmlns="http://www.w3.org/2000/svg">
<g clip-path="url(#clip0_17_448)">
<path d="M17.136 11.3881C16.956 11.4481 16.824 11.5561 16.752 11.7121C16.68 11.8681 16.632 11.9761 16.608 12.0241C16.584 12.0481 16.572 12.0721 16.56 12.0841L16.032 10.6441C16.032 10.6201 16.032 10.5841 16.044 10.5361C16.068 10.4521 16.068 10.3681 16.068 10.2601C16.068 10.1281 16.008 10.0081 15.9 9.88806C15.792 9.76806 15.624 9.73206 15.396 9.79206C15.276 9.81606 15.192 9.87606 15.12 9.94806C15.048 10.0321 14.988 10.1401 14.94 10.2961C14.916 10.3321 14.892 10.4281 14.856 10.5601C14.82 10.6921 14.772 10.8601 14.7 11.0641C14.64 11.2681 14.568 11.4841 14.496 11.7241L14.28 12.4441C14.1 13.0201 13.908 13.6561 13.692 14.3641C13.524 12.9721 13.38 11.7241 13.248 10.5961C13.188 10.1161 13.14 9.64806 13.08 9.18006C13.032 8.71206 13.008 8.29206 12.924 7.90806C12.804 7.33206 12.768 6.48006 11.976 6.48006C11.436 6.48006 10.884 8.48406 10.944 8.31606C10.836 8.62806 10.728 8.94006 10.62 9.26406C10.368 10.0201 10.08 10.8601 9.74404 11.7841L9.09604 10.0081C9.01204 9.82806 8.90404 9.72006 8.74804 9.66006C8.59204 9.61206 8.41204 9.69606 8.22004 9.94806C8.12404 10.0681 8.01604 10.1881 7.90804 10.3201C7.80004 10.4521 7.69204 10.5841 7.58404 10.7041C7.47604 10.8361 7.38003 10.9441 7.27204 11.0401L7.04404 11.2801C6.91204 11.3881 6.79204 11.4601 6.66004 11.4961C6.52804 11.5321 6.36004 11.5561 6.14404 11.5561H4.60804V12.6961C4.83604 12.6961 5.77204 12.6961 5.96404 12.6841C6.13204 12.6841 6.28803 12.6841 6.45604 12.6721C6.61204 12.6601 6.74404 12.6721 6.84004 12.6841C7.02004 12.7081 7.18804 12.6841 7.32004 12.6121C7.45204 12.5401 7.60804 12.4201 7.76404 12.2281C7.83604 12.1441 7.92004 12.0481 7.99204 11.9521C8.06404 11.8561 8.14804 11.7721 8.20804 11.7001C8.29204 11.6161 8.36404 11.5201 8.42404 11.4361C8.54403 11.7721 8.65204 12.0721 8.76004 12.3481C8.84013 12.5775 8.92415 12.8055 9.01204 13.0321C9.08403 13.2601 9.14404 13.4041 9.16804 13.4881C9.21604 13.6441 9.28804 13.7881 9.37204 13.9081C9.45603 14.0281 9.58803 14.0881 9.76803 14.0881C9.94804 14.1001 10.068 14.0521 10.152 13.9441C10.236 13.8361 10.296 13.7161 10.344 13.5961L10.428 13.3321L10.608 12.7921C10.68 12.5761 10.764 12.3361 10.86 12.0721C10.956 11.8081 11.04 11.5441 11.124 11.2681C11.34 10.6321 11.58 9.91206 11.856 9.12006C12 10.5601 12.132 11.8561 12.24 13.0201C12.288 13.5241 12.336 14.0041 12.384 14.4841C12.432 14.9641 12.468 15.3961 12.504 15.7921C12.552 16.2241 12.684 17.4841 13.452 17.4841C14.076 17.4601 14.172 16.6441 14.52 15.5521C14.604 15.2641 14.7 14.9761 14.784 14.6881C14.988 14.0041 15.216 13.2601 15.468 12.4441C15.552 12.6721 15.636 12.9001 15.732 13.1041C15.804 13.2841 15.864 13.4521 15.936 13.6201C16.008 13.7881 16.056 13.9081 16.08 13.9801C16.116 14.0521 16.164 14.1121 16.248 14.1601C16.332 14.2081 16.416 14.2321 16.512 14.2441C16.608 14.2561 16.692 14.2321 16.788 14.1961C16.872 14.1601 16.944 14.0761 16.98 13.9681C17.064 13.7281 17.148 13.5001 17.244 13.2841C17.34 13.0561 17.412 12.9121 17.448 12.8281C17.496 12.7441 17.58 12.6721 17.7 12.5881C17.82 12.5041 17.94 12.4681 18.084 12.4801C18.084 12.4801 18.828 12.4681 19.38 12.4681V11.3521H17.976C17.928 11.3401 17.388 11.3161 17.136 11.3881ZM16.32 2.11206C14.736 2.11206 13.2 2.68806 12 3.70806C10.8 2.67606 9.26404 2.11206 7.68004 2.11206C3.96004 2.11206 0.936035 5.19606 0.936035 8.98806C0.936035 10.7881 1.45204 12.5641 2.46004 14.2561C3.26404 15.6001 4.38004 16.8961 5.78404 18.1081C7.34404 19.4521 9.28803 20.7241 11.256 21.6841C11.28 21.6961 11.304 21.7081 11.316 21.7081C11.532 21.8161 11.772 21.8761 12.012 21.8761C12.252 21.8761 12.492 21.8161 12.708 21.7081C12.72 21.7081 12.744 21.6961 12.768 21.6841C14.736 20.7241 16.68 19.4641 18.24 18.1081C19.644 16.8961 20.76 15.6001 21.564 14.2561C22.572 12.5641 23.088 10.7881 23.088 8.98806C23.076 5.19606 20.04 2.11206 16.32 2.11206ZM20.28 13.5121C19.56 14.7241 18.54 15.9001 17.256 17.0041C15.792 18.2761 13.968 19.4641 12.108 20.3641L12.072 20.3881H12.06L11.988 20.4001L11.964 20.4121L11.94 20.4001H11.928L11.88 20.3761C10.02 19.4761 8.19604 18.2881 6.73204 17.0161C5.44804 15.9001 4.42804 14.7241 3.70803 13.5121C2.83204 12.0481 2.38804 10.5241 2.38804 8.98806C2.38804 6.00006 4.75204 3.57606 7.65604 3.57606C8.88004 3.57606 10.08 4.02006 11.016 4.82406L11.976 5.64006L12.936 4.82406C13.884 4.02006 15.072 3.57606 16.296 3.57606C19.2 3.57606 21.564 6.00006 21.564 8.98806C21.6 10.5361 21.156 12.0481 20.28 13.5121Z" fill="url(#paint0_linear_17_448)"/>
</g>
<defs>
<linearGradient id="paint0_linear_17_448" x1="19.7652" y1="2.72969" x2="-0.973277" y2="20.2312" gradientUnits="userSpaceOnUse">
<stop stop-color="#00F686"/>
<stop offset="1" stop-color="#B0FDFF"/>
</linearGradient>
<clipPath id="clip0_17_448">
<rect width="24" height="24" fill="white"/>
</clipPath>
</defs>
</svg>
