<svg width="39" height="41" viewBox="0 0 39 41" fill="none" xmlns="http://www.w3.org/2000/svg">
<path d="M38.1562 8.39141C33.3691 3.67741 26.7402 0.759257 19.4154 0.759257C12.1336 0.759257 5.53959 3.64318 0.759257 8.3084M1.95053 26.042V25.9836C1.95053 16.2925 9.80671 8.43636 19.4978 8.43636M26.7559 10.0029C32.8254 12.7638 37.0452 18.8808 37.0452 25.9834V25.9966M9.62763 33.6602V25.9833C9.62763 20.532 14.0467 16.113 19.498 16.113C24.9492 16.113 29.3683 20.532 29.3683 25.9833V33.6602M12.944 40.2406C14.9311 39.75 16.2077 37.6547 16.2077 35.8835C16.2077 33.9999 16.2077 31.0655 16.2077 27.0802C16.2077 25.2631 17.6807 23.7901 19.4978 23.7901C21.3148 23.7901 22.7879 25.2631 22.7879 27.0802V35.8835" stroke="url(#paint0_linear_17_228)" stroke-width="1.5" stroke-linecap="round" stroke-linejoin="round"/>
<defs>
<linearGradient id="paint0_linear_17_228" x1="0.539276" y1="40.4729" x2="39.8453" y2="12.3333" gradientUnits="userSpaceOnUse">
<stop stop-color="#B0FDFF"/>
<stop offset="1" stop-color="#00F686"/>
</linearGradient>
</defs>
</svg>
