<svg width="20" height="20" viewBox="0 0 20 20" fill="none" xmlns="http://www.w3.org/2000/svg">
<g clip-path="url(#clip0_17_410)">
<path d="M15.4587 10.6269C15.4337 8.09375 17.5243 6.87937 17.6175 6.81875C16.4425 5.09937 14.6125 4.86437 13.9606 4.83687C12.4031 4.67937 10.9218 5.75375 10.1312 5.75375C9.34308 5.75375 8.12308 4.86 6.8312 4.88375C5.1337 4.90875 3.56808 5.87063 2.69433 7.39125C0.930578 10.4519 2.24245 14.9856 3.96183 17.4681C4.80183 18.6831 5.8037 20.0475 7.1187 19.9987C8.38495 19.9481 8.86433 19.1794 10.395 19.1794C11.9256 19.1794 12.3562 19.9987 13.6968 19.9737C15.0593 19.9481 15.9231 18.7356 16.7575 17.5169C17.7218 16.1075 18.1193 14.7425 18.1425 14.6725C18.1125 14.6587 15.485 13.6525 15.4587 10.6269ZM12.9406 3.19375C13.6387 2.34687 14.11 1.17188 13.9812 0C12.9756 0.04125 11.7568 0.67 11.0356 1.51437C10.3881 2.26375 9.82183 3.46 9.9737 4.60875C11.0962 4.69625 12.2418 4.03813 12.9406 3.19375Z" fill="black"/>
</g>
<defs>
<clipPath id="clip0_17_410">
<rect width="20" height="20" fill="white"/>
</clipPath>
</defs>
</svg>
