<svg width="22" height="42" viewBox="0 0 22 42" fill="none" xmlns="http://www.w3.org/2000/svg">
<path d="M10.8795 13.9157V27.0723M10.8795 27.0723C13.1152 27.0723 14.9277 28.8848 14.9277 31.1205C14.9277 33.3562 13.1152 35.1687 10.8795 35.1687C8.6438 35.1687 6.83133 33.3562 6.83133 31.1205C6.83133 28.8848 8.6438 27.0723 10.8795 27.0723ZM4.80723 23.0234V6.83133C4.80723 3.47769 7.52589 0.759036 10.8795 0.759036C14.2331 0.759036 16.9518 3.47769 16.9518 6.83133V23.0234C19.41 24.8698 21 27.8095 21 31.1205C21 36.7098 16.4689 41.241 10.8795 41.241C5.29018 41.241 0.759036 36.7098 0.759036 31.1205C0.759036 27.8095 2.34907 24.8698 4.80723 23.0234Z" stroke="url(#paint0_linear_17_223)" stroke-width="1.5" stroke-linecap="round" stroke-linejoin="round"/>
<defs>
<linearGradient id="paint0_linear_17_223" x1="0.639972" y1="41.4791" x2="28.7967" y2="30.8385" gradientUnits="userSpaceOnUse">
<stop stop-color="#B0FDFF"/>
<stop offset="1" stop-color="#00F686"/>
</linearGradient>
</defs>
</svg>
