<svg width="40" height="40" viewBox="0 0 40 40" fill="none" xmlns="http://www.w3.org/2000/svg">
<path d="M29.1139 0.759494H37.2152C38.3338 0.759494 39.2405 1.66626 39.2405 2.78481V10.8861M39.2405 29.114V37.2152C39.2405 38.3337 38.3338 39.2405 37.2152 39.2405H29.1139M10.8861 39.2405H2.78481C1.66626 39.2405 0.759494 38.3337 0.759494 37.2152V29.114M0.759494 10.8861V2.78481C0.759494 1.66626 1.66626 0.759494 2.78481 0.759494H10.8861M1.77215 20.0002H38.2278M16.0195 26.1832C17.3035 27.1323 18.6302 27.6068 19.9996 27.6068C21.369 27.6068 22.7322 27.1323 24.0889 26.1832M20 34.1775C26.7113 34.1775 32.1519 27.8301 32.1519 20.0002C32.1519 12.1704 26.7113 5.82303 20 5.82303C13.2887 5.82303 7.8481 12.1704 7.8481 20.0002C7.8481 27.8301 13.2887 34.1775 20 34.1775Z" stroke="url(#paint0_linear_17_240)" stroke-width="1.5" stroke-linecap="round" stroke-linejoin="round"/>
<defs>
<linearGradient id="paint0_linear_17_240" x1="0.533136" y1="39.4669" x2="39.4669" y2="10.0403" gradientUnits="userSpaceOnUse">
<stop stop-color="#B0FDFF"/>
<stop offset="1" stop-color="#00F686"/>
</linearGradient>
</defs>
</svg>
