<svg preserveAspectRatio="none" width="100%" height="100%" overflow="visible" style="display: block;" viewBox="0 0 80 80" fill="none" xmlns="http://www.w3.org/2000/svg">
<g id="Frame" clip-path="url(#clip0_0_148)">
<path id="Vector" d="M0 40C0 50.6087 4.21427 60.7828 11.7157 68.2843C19.2172 75.7857 29.3913 80 40 80C50.6087 80 60.7828 75.7857 68.2843 68.2843C75.7857 60.7828 80 50.6087 80 40C80 29.3913 75.7857 19.2172 68.2843 11.7157C60.7828 4.21427 50.6087 0 40 0C29.3913 0 19.2172 4.21427 11.7157 11.7157C4.21427 19.2172 0 29.3913 0 40Z" fill="var(--fill-0, #DE2910)"/>
<path id="Vector_2" d="M38 40.2571C36.0889 38.871 34.8012 36.7874 34.4161 34.4582C34.031 32.1289 34.5796 29.7418 35.9429 27.8143C35.9732 27.7707 36.0195 27.741 36.0718 27.7316C36.124 27.7222 36.1779 27.734 36.2214 27.7643C36.265 27.7946 36.2947 27.841 36.3041 27.8932C36.3135 27.9455 36.3017 27.9993 36.2714 28.0429C34.9817 29.8551 34.4469 32.0977 34.7801 34.2969C35.1134 36.4962 36.2884 38.4797 38.0571 39.8286C37.2377 38.9421 36.7835 37.7786 36.7857 36.5714C36.7415 35.6898 36.9559 34.8144 37.4026 34.0529C37.8493 33.2915 38.5088 32.6773 39.3 32.2857C40.4535 31.8051 41.4541 31.0191 42.1941 30.0123C42.9342 29.0054 43.3857 27.8158 43.5 26.5714C43.4958 25.5001 43.2047 24.4494 42.6571 23.5286C42.5619 23.3667 42.4571 23.2095 42.3429 23.0571C42.0603 22.5342 41.8897 21.9581 41.8418 21.3656C41.7939 20.7732 41.8697 20.1772 42.0645 19.6156C42.2593 19.054 42.5688 18.5391 42.9734 18.1036C43.3779 17.668 43.8686 17.3214 44.4143 17.0857H43.9571C36.0286 17.0857 30.6429 22.8 30.6429 29.4286C30.6422 31.7631 31.3434 34.0439 32.6553 35.9748C33.9673 37.9058 35.8294 39.3978 38 40.2571ZM36.5714 25.9714V24.5429L37.6857 25.4143L39.0286 24.9857L38.5429 26.3143L39.3714 27.4571H37.9429L37.1 28.6L36.7 27.1714L35.3571 26.7286L36.5714 25.9714Z" fill="var(--fill-0, white)"/>
<path id="Vector_3" d="M25.6143 44.7C27.8507 45.4352 30.2575 45.4752 32.5172 44.8147C34.7768 44.1541 36.7831 42.8241 38.2714 41C36.3879 42.4281 34.0168 43.0551 31.6735 42.7448C29.3302 42.4345 27.2041 41.212 25.7571 39.3429C25.732 39.3009 25.7232 39.2511 25.7323 39.203C25.7413 39.1549 25.7678 39.1118 25.8065 39.0819C25.8452 39.052 25.8936 39.0373 25.9424 39.0406C25.9912 39.044 26.0371 39.0651 26.0714 39.1C27.4065 40.8224 29.3474 41.9716 31.4996 42.314C33.6518 42.6563 35.8536 42.166 37.6571 40.9429C36.5897 41.4029 35.3913 41.4588 34.2857 41.1C33.4434 40.8637 32.6876 40.3886 32.1096 39.732C31.5316 39.0754 31.1561 38.2654 31.0286 37.4C30.9181 36.1603 30.473 34.9739 29.7408 33.9675C29.0087 32.9611 28.0169 32.1724 26.8714 31.6857C25.8609 31.3572 24.7812 31.303 23.7429 31.5286L23.2 31.6714C22.6151 31.7791 22.0142 31.7639 21.4355 31.6267C20.8569 31.4895 20.3131 31.2334 19.8387 30.8746C19.3644 30.5159 18.97 30.0623 18.6805 29.5428C18.391 29.0233 18.2127 28.4493 18.1571 27.8571L18 28.2857C15.5143 35.7571 19.2571 42.6286 25.6143 44.7ZM23.9714 36.8V35.3714L25.0857 36.2429L26.4286 35.8143L25.9429 37.1429L26.7714 38.2857H25.3429L24.5 39.4286L24.1 38L22.7571 37.5571L23.9714 36.8Z" fill="var(--fill-0, white)"/>
<path id="Vector_4" d="M37.8714 49.0857C36.83 50.6263 35.3308 51.8006 33.5857 52.4429C33.5435 52.4313 33.5062 52.4061 33.4796 52.3713C33.4531 52.3364 33.4387 52.2938 33.4387 52.25C33.4387 52.2062 33.4531 52.1636 33.4796 52.1287C33.5062 52.0939 33.5435 52.0687 33.5857 52.0571C35.6205 51.3249 37.3033 49.8507 38.2968 47.9299C39.2903 46.0091 39.5211 43.7838 38.9429 41.7C39.0279 42.8304 38.709 43.9542 38.0429 44.8714C37.5562 45.5979 36.8696 46.168 36.066 46.5127C35.2624 46.8575 34.3761 46.9622 33.5143 46.8143C32.2949 46.5242 31.0194 46.5732 29.8258 46.9559C28.6323 47.3387 27.5662 48.0406 26.7429 48.9857C26.1302 49.8255 25.7462 50.81 25.6286 51.8429V52.4143C25.5498 53.0035 25.3494 53.5699 25.0399 54.0775C24.7305 54.5851 24.3189 55.0228 23.8311 55.3627C23.3434 55.7026 22.7903 55.9374 22.207 56.052C21.6237 56.1666 21.0229 56.1586 20.4429 56.0286L20.8 56.3C27.2143 60.9571 34.9 59.5429 38.8286 54.1429C40.224 52.2348 41.0055 49.9472 41.0693 47.5842C41.1331 45.2213 40.4761 42.8948 39.1857 40.9143C39.6412 42.2814 39.7596 43.7384 39.5308 45.1612C39.3019 46.5839 38.7327 47.9303 37.8714 49.0857ZM31.8 53.5286L30.9571 54.6714L30.5571 53.2429L29.2143 52.8L30.3857 52V50.5714L31.5 51.4429L32.8429 51.0143L32.3571 52.3429L33.1857 53.4857L31.8 53.5286Z" fill="var(--fill-0, white)"/>
<path id="Vector_5" d="M39.2429 40.4143C41.6054 40.3681 43.8909 41.2558 45.6027 42.8848C47.3146 44.5137 48.3147 46.7523 48.3857 49.1143C48.3857 49.1673 48.3646 49.2182 48.3271 49.2557C48.2896 49.2932 48.2388 49.3143 48.1857 49.3143C48.1327 49.3143 48.0818 49.2932 48.0443 49.2557C48.0068 49.2182 47.9857 49.1673 47.9857 49.1143C47.9194 46.9535 47.0391 44.8976 45.5211 43.3585C44.0031 41.8193 41.9596 40.9105 39.8 40.8143C40.9458 41.0582 41.9624 41.7139 42.6571 42.6571C43.2005 43.3443 43.5329 44.1743 43.614 45.0465C43.6952 45.9188 43.5216 46.7958 43.1143 47.5714C42.4595 48.6476 42.1132 49.8831 42.1132 51.1429C42.1132 52.4026 42.4595 53.6381 43.1143 54.7143C43.7392 55.5766 44.5823 56.257 45.5571 56.6857L46.0857 56.8857C46.6236 57.1418 47.1022 57.5073 47.4909 57.9587C47.8797 58.4102 48.17 58.9378 48.3434 59.5077C48.5168 60.0777 48.5695 60.6776 48.4981 61.269C48.4266 61.8605 48.2327 62.4306 47.9286 62.9429L48.3 62.6857C54.7143 58.0286 55.7429 50.2714 51.8286 44.8714C50.4412 42.9273 48.4895 41.4569 46.2381 40.6595C43.9867 39.8622 41.5446 39.7766 39.2429 40.4143ZM48.3571 52.2143L47.5143 53.3571L47.1143 51.9286L45.7714 51.4857L46.9429 50.6857V49.2571L48.0571 50.1286L49.4 49.7L48.9143 51.0286L49.7429 52.1714L48.3571 52.2143Z" fill="var(--fill-0, white)"/>
<path id="Vector_6" d="M62.6571 38.3571C60.2 30.8143 53.1571 27.4429 46.8 29.5C44.5672 30.2181 42.6033 31.5939 41.1656 33.4471C39.7279 35.3003 38.8835 37.5445 38.7429 39.8857C39.4425 37.6426 40.9941 35.7635 43.0644 34.6523C45.1346 33.541 47.5582 33.2863 49.8143 33.9429C49.8396 33.9504 49.8632 33.9628 49.8837 33.9794C49.9043 33.996 49.9213 34.0165 49.9339 34.0398C49.9465 34.063 49.9544 34.0884 49.9572 34.1147C49.9599 34.141 49.9575 34.1675 49.95 34.1929C49.9425 34.2182 49.9301 34.2418 49.9135 34.2623C49.8968 34.2828 49.8763 34.2999 49.8531 34.3125C49.8299 34.3251 49.8044 34.333 49.7781 34.3358C49.7519 34.3385 49.7253 34.3361 49.7 34.3286C47.595 33.7147 45.3348 33.931 43.3844 34.9328C41.4339 35.9346 39.9416 37.6457 39.2143 39.7143C39.8053 38.676 40.7633 37.8964 41.9 37.5286C42.7215 37.2245 43.6135 37.1653 44.468 37.358C45.3225 37.5507 46.1028 37.9871 46.7143 38.6143C47.5299 39.5671 48.5908 40.2784 49.7819 40.6713C50.9731 41.0641 52.249 41.1234 53.4714 40.8429C54.4842 40.5147 55.3914 39.9231 56.1 39.1286L56.4571 38.6857C56.8676 38.2541 57.3635 37.9128 57.9132 37.6836C58.4629 37.4544 59.0543 37.3422 59.6498 37.3543C60.2452 37.3664 60.8317 37.5025 61.3716 37.7539C61.9115 38.0052 62.3931 38.3664 62.7857 38.8143C62.6571 38.6429 62.6571 38.5 62.6571 38.3571ZM52.1857 36.0429L51.3429 37.1857L50.9429 35.7571L49.6 35.3143L50.7714 34.5143V33.0857L51.8857 33.9571L53.2286 33.5286L52.7429 34.8571L53.5714 36L52.1857 36.0429Z" fill="var(--fill-0, white)"/>
</g>
<defs>
<clipPath id="clip0_0_148">
<rect width="80" height="80" fill="white"/>
</clipPath>
</defs>
</svg>
