<svg preserveAspectRatio="none" width="100%" height="100%" overflow="visible" style="display: block;" viewBox="0 0 80 80" fill="none" xmlns="http://www.w3.org/2000/svg">
<g id="CN" clip-path="url(#clip0_0_95)">
<path id="Vector" d="M40 80C62.0914 80 80 62.0914 80 40C80 17.9086 62.0914 0 40 0C17.9086 0 0 17.9086 0 40C0 62.0914 17.9086 80 40 80Z" fill="var(--fill-0, #D80027)"/>
<g id="Group">
<path id="Vector_2" d="M21.8912 24.3382L25.3443 34.9632H36.5162L27.4849 41.5414L30.938 52.1664L21.8912 45.6039L12.8443 52.1664L16.313 41.5414L7.26616 34.9632H18.438L21.8912 24.3382Z" fill="var(--fill-0, #FFDA44)"/>
<path id="Vector_3" d="M47.4208 61.9488L44.7802 58.6988L40.8739 60.2144L43.1395 56.6988L40.4989 53.4332L44.5458 54.5113L46.827 50.9957L47.0458 55.1832L51.1083 56.2613L47.1864 57.7613L47.4208 61.9488Z" fill="var(--fill-0, #FFDA44)"/>
<path id="Vector_4" d="M52.6726 52.4176L53.9226 48.4176L50.5007 45.9958L54.6882 45.9333L55.9226 41.9333L57.2819 45.902L61.4694 45.8551L58.1101 48.3551L59.4538 52.3239L56.0319 49.902L52.6726 52.4176Z" fill="var(--fill-0, #FFDA44)"/>
<path id="Vector_5" d="M59.7512 29.3554L57.9075 33.121L60.9075 36.0429L56.7668 35.4492L54.9231 39.1992L54.2043 35.0742L50.0481 34.4804L53.7668 32.5273L53.0481 28.3867L56.0481 31.3085L59.7512 29.3554Z" fill="var(--fill-0, #FFDA44)"/>
<path id="Vector_6" d="M47.5305 17.9502L47.218 22.1221L51.1087 23.7002L47.0305 24.7002L46.7337 28.8877L44.5305 25.3252L40.4524 26.3252L43.1555 23.1221L40.9368 19.5752L44.8274 21.1534L47.5305 17.9502Z" fill="var(--fill-0, #FFDA44)"/>
</g>
</g>
<defs>
<clipPath id="clip0_0_95">
<rect width="80" height="80" fill="white"/>
</clipPath>
</defs>
</svg>
