<svg preserveAspectRatio="none" width="100%" height="100%" overflow="visible" style="display: block;" viewBox="0 0 80 80" fill="none" xmlns="http://www.w3.org/2000/svg">
<g id="Frame" clip-path="url(#clip0_0_164)">
<path id="Vector" d="M40 80C62.0913 80 80 62.0913 80 40H0C0 62.0913 17.9087 80 40 80Z" fill="var(--fill-0, #F9F9F9)"/>
<path id="Vector_2" d="M40 0C17.9087 0 0 17.9087 0 40H80C80 17.9087 62.0913 0 40 0Z" fill="var(--fill-0, #FF4E60)"/>
<path id="Vector_3" d="M25.65 20.65L24 19.35H26.05L26.65 17.35L27.3 19.35H29.35L27.7 20.65L28.3 22.65L26.65 21.4L25 22.65L25.65 20.65ZM36.3 20.65L34.65 19.35H36.7L37.35 17.35L37.95 19.35H40L38.35 20.65L39 22.65L37.35 21.4L35.7 22.65L36.3 20.65ZM26.95 27.3L25.35 26.05H27.35L28 24L28.65 26.05H30.65L29 27.3L29.65 29.35L28 28.1L26.35 29.35L26.95 27.3ZM35 27.3L33.35 26.05H35.35L36 24L36.65 26.05H38.65L37.05 27.3L37.65 29.35L36 28.1L34.35 29.35L35 27.3ZM31 16.65L29.35 15.35H31.35L32 13.35L32.65 15.35H34.65L33.05 16.65L33.65 18.65L32 17.4L30.35 18.65L31 16.65Z" fill="var(--fill-0, #F9F9F9)"/>
<path id="Vector_4" d="M30 34.6C28.4438 34.574 26.9079 34.2416 25.4802 33.6219C24.0524 33.0022 22.7607 32.1073 21.6789 30.9883C20.597 29.8693 19.7462 28.5481 19.175 27.1003C18.6039 25.6524 18.3235 24.1062 18.35 22.55C18.3169 20.9896 18.5923 19.4381 19.1605 17.9844C19.7286 16.5308 20.5784 15.2037 21.6609 14.0794C22.7434 12.9551 24.0373 12.0557 25.4684 11.4328C26.8995 10.81 28.4395 10.476 30 10.45H31.35C29.7947 9.67937 28.0857 9.26921 26.35 9.25C24.6086 9.24918 22.8848 9.59821 21.281 10.2764C19.6771 10.9546 18.2258 11.9481 17.0132 13.1979C15.8007 14.4478 14.8516 15.9285 14.2224 17.5522C13.5931 19.1759 13.2964 20.9095 13.35 22.65C13.154 29.8267 18.8133 35.8033 25.99 36H26C28.1045 35.9931 30.1715 35.4419 32 34.4C31.3417 34.5337 30.6717 34.6007 30 34.6Z" fill="var(--fill-0, #F9F9F9)"/>
</g>
<defs>
<clipPath id="clip0_0_164">
<rect width="80" height="80" fill="white"/>
</clipPath>
</defs>
</svg>
