<svg width="42" height="36" viewBox="0 0 42 36" fill="none" xmlns="http://www.w3.org/2000/svg">
<path d="M40.7598 24.7371C40.7627 30.2599 36.2878 34.7394 30.765 34.7423M40.7598 24.7371C40.757 19.2143 36.2774 14.7394 30.7546 14.7423M40.7598 24.7371L20.7598 24.7474M30.765 34.7423C28.9741 34.7432 27.2928 34.2732 25.8384 33.4494M30.765 34.7423C30.765 34.7423 27.2619 28.8816 27.2598 24.7441C27.2577 20.6066 30.7546 14.7423 30.7546 14.7423M30.765 34.7423C30.765 34.7423 34.2619 28.8779 34.2598 24.7404C34.2577 20.6029 30.7546 14.7423 30.7546 14.7423M25.8384 33.4494C23.2779 31.999 21.4201 29.4517 20.9043 26.4456M25.8384 33.4494C23.1763 34.2558 19.6426 34.748 15.765 34.75C7.48068 34.7543 0.763825 32.5192 0.762398 29.7578L0.758266 21.7578M20.9043 26.4456C20.8096 25.8937 20.7601 25.3263 20.7598 24.7474M20.9043 26.4456C19.3001 26.6417 17.5678 26.7491 15.7608 26.75C7.47655 26.7543 0.759692 24.5192 0.758266 21.7578M20.7598 24.7474C20.7585 22.1797 21.7251 19.8375 23.3149 18.0659M23.3149 18.0659C25.1445 16.027 27.7995 14.7438 30.7546 14.7423M23.3149 18.0659C21.0956 18.4994 18.513 18.7486 15.7567 18.75C7.47241 18.7543 0.755559 16.5192 0.754133 13.7578M30.7546 14.7423L30.75 5.74226M30.75 5.74226C30.7514 8.50366 24.0369 10.7457 15.7526 10.75C7.46828 10.7543 0.751427 8.51915 0.75 5.75775M30.75 5.74226C30.7486 2.98084 24.0317 0.745727 15.7474 0.750006C7.46312 0.754286 0.748574 2.99633 0.75 5.75775M0.758266 21.7578L0.754133 13.7578M0.754133 13.7578L0.75 5.75775" stroke="url(#paint0_linear_50_2140)" stroke-width="1.5" stroke-linecap="round" stroke-linejoin="round"/>
<defs>
<linearGradient id="paint0_linear_50_2140" x1="0.514649" y1="34.95" x2="36.0274" y2="3.36457" gradientUnits="userSpaceOnUse">
<stop stop-color="#B0FDFF"/>
<stop offset="1" stop-color="#00F686"/>
</linearGradient>
</defs>
</svg>
