<svg width="49" height="49" viewBox="0 0 49 49" fill="none" xmlns="http://www.w3.org/2000/svg">
<path d="M24.0033 7.01222C35.049 7.00652 44.008 15.9562 44.0137 27.0019C41.1841 24.5791 39.0623 23.368 37.6482 23.3688C36.234 23.3695 34.1134 24.5828 31.2864 27.0085C28.8609 24.5855 26.436 23.3746 24.0118 23.3758C21.5876 23.3771 19.1639 24.5905 16.741 27.016C13.9114 24.5932 11.7896 23.3821 10.3754 23.3829C8.9613 23.3836 6.8407 24.5969 4.01367 27.0226C4.00797 15.9769 12.9576 7.01793 24.0033 7.01222ZM24.0033 7.01222L24.0013 3.01222M24.0121 24.0122L24.0196 38.5658C24.0212 41.58 26.5083 44.0221 29.5225 44.0206C32.5367 44.019 35.0212 41.5743 35.0196 38.5601" stroke="url(#paint0_linear_50_2157)" stroke-width="1.5" stroke-linecap="round" stroke-linejoin="round"/>
<defs>
<linearGradient id="paint0_linear_50_2157" x1="3.77838" y1="44.2618" x2="44.9765" y2="13.8893" gradientUnits="userSpaceOnUse">
<stop stop-color="#B0FDFF"/>
<stop offset="1" stop-color="#00F686"/>
</linearGradient>
</defs>
</svg>
