<svg width="49" height="49" viewBox="0 0 49 49" fill="none" xmlns="http://www.w3.org/2000/svg">
<path d="M31.8991 37.0081C29.0745 39.0834 26.2461 40.5983 24.0228 41.3384C17.0216 39.0158 4.01643 29.0225 4.01074 18.0225C4.00761 11.9475 8.92993 7.02001 15.0051 7.01687C18.7254 7.01495 22.0153 8.86015 24.0075 11.686C25.9967 8.85809 29.2848 7.00949 33.0051 7.00757C39.0802 7.00443 44.0076 11.9268 44.0107 18.0019C44.0116 19.7484 43.6848 21.4698 43.1063 23.1395M27.0164 29.0107L31.0164 29.0086L34.0144 25.0071L37.0185 33.0055L39.9789 29.004L44.0164 29.0019" stroke="url(#paint0_linear_50_2173)" stroke-width="1.5" stroke-linecap="round" stroke-linejoin="round"/>
<defs>
<linearGradient id="paint0_linear_50_2173" x1="3.77542" y1="41.5404" x2="39.5911" y2="9.99571" gradientUnits="userSpaceOnUse">
<stop stop-color="#B0FDFF"/>
<stop offset="1" stop-color="#00F686"/>
</linearGradient>
</defs>
</svg>
