<svg width="49" height="49" viewBox="0 0 49 49" fill="none" xmlns="http://www.w3.org/2000/svg">
<path d="M4.02295 42.0224L44.0229 42.0018M16.0219 40.0162L16.0157 28.0162C16.0151 26.9117 15.1193 26.0167 14.0147 26.0173L10.0147 26.0193C8.91011 26.0199 8.01515 26.9158 8.01572 28.0204L8.02192 40.0204C8.02249 41.1249 8.91838 42.0199 10.0229 42.0193L14.0229 42.0173C15.1275 42.0167 16.0225 41.1208 16.0219 40.0162ZM16.0219 40.0162C16.0225 41.1208 16.9184 42.0158 18.0229 42.0152L38.0229 42.0049C39.1275 42.0043 40.0225 41.1084 40.0219 40.0038L40.0043 6.00385C40.0038 4.89928 39.1079 4.00431 38.0033 4.00488L18.0033 4.01521C16.8987 4.01579 16.0038 4.91168 16.0044 6.01625L16.0219 40.0162ZM12.0188 34.0183L13.0188 34.0178M22.0064 10.0131L26.0064 10.0111L26.0085 14.0111L22.0085 14.0131L22.0064 10.0131ZM30.0064 10.009L34.0064 10.0069L34.0085 14.0069L30.0085 14.009L30.0064 10.009ZM22.01 17.0131L26.01 17.0111L26.0121 21.0111L22.0121 21.0131L22.01 17.0131ZM30.01 17.009L34.01 17.0069L34.0121 21.0069L30.0121 21.009L30.01 17.009ZM30.0136 24.009L34.0136 24.0069L34.0157 28.0069L30.0157 28.009L30.0136 24.009ZM30.0173 31.009L34.0173 31.0069L34.0193 35.0069L30.0193 35.009L30.0173 31.009Z" stroke="url(#paint0_linear_50_2189)" stroke-width="1.5" stroke-linecap="round" stroke-linejoin="round"/>
<defs>
<linearGradient id="paint0_linear_50_2189" x1="3.78766" y1="42.2461" x2="42.7427" y2="11.268" gradientUnits="userSpaceOnUse">
<stop stop-color="#B0FDFF"/>
<stop offset="1" stop-color="#00F686"/>
</linearGradient>
</defs>
</svg>
