<svg width="32" height="32" viewBox="0 0 32 32" fill="none" xmlns="http://www.w3.org/2000/svg">
<path d="M2.6665 9.33325L13.5531 16.9538C14.4346 17.5709 14.8754 17.8795 15.3549 17.999C15.7784 18.1046 16.2213 18.1046 16.6448 17.999C17.1243 17.8795 17.565 17.5709 18.4466 16.9538L29.3332 9.33325M9.0665 26.6666H22.9332C25.1734 26.6666 26.2935 26.6666 27.1491 26.2306C27.9018 25.8471 28.5137 25.2352 28.8972 24.4825C29.3332 23.6269 29.3332 22.5068 29.3332 20.2666V11.7333C29.3332 9.49304 29.3332 8.37294 28.8972 7.51729C28.5137 6.76464 27.9018 6.15272 27.1491 5.76923C26.2935 5.33325 25.1734 5.33325 22.9332 5.33325H9.0665C6.82629 5.33325 5.70619 5.33325 4.85054 5.76923C4.09789 6.15272 3.48597 6.76464 3.10248 7.51729C2.6665 8.37294 2.6665 9.49304 2.6665 11.7333V20.2666C2.6665 22.5068 2.6665 23.6269 3.10248 24.4825C3.48597 25.2352 4.09789 25.8471 4.85054 26.2306C5.70619 26.6666 6.82629 26.6666 9.0665 26.6666Z" stroke="url(#paint0_linear_50_2264)" stroke-width="1.5" stroke-linecap="round" stroke-linejoin="round"/>
<defs>
<linearGradient id="paint0_linear_50_2264" x1="2.50964" y1="26.7921" x2="24.9092" y2="5.62971" gradientUnits="userSpaceOnUse">
<stop stop-color="#B0FDFF"/>
<stop offset="1" stop-color="#00F686"/>
</linearGradient>
</defs>
</svg>
