<svg width="32" height="32" viewBox="0 0 32 32" fill="none" xmlns="http://www.w3.org/2000/svg">
<path d="M27.8532 13.7377C28.0217 12.6071 27.9665 11.4497 27.6874 10.3369C27.3188 8.86672 26.5596 7.47445 25.4099 6.32479C24.2603 5.17513 22.868 4.41598 21.3979 4.04735C20.2851 3.7683 19.1276 3.71303 17.9971 3.88155M22.7932 13.2023C22.9737 11.9912 22.5979 10.7132 21.6656 9.78092C20.7333 8.84865 19.4553 8.47272 18.2443 8.65325M9.58379 5.86274C10.0682 5.86274 10.5145 6.12542 10.7495 6.54891L12.3805 9.48679C12.5941 9.87145 12.6041 10.3367 12.4073 10.7303L10.8361 13.8727C10.8361 13.8727 11.2915 16.2137 13.1971 18.1193C15.1027 20.0249 17.4358 20.4723 17.4358 20.4723L20.5777 18.9014C20.9715 18.7045 21.4371 18.7147 21.8219 18.9286L24.7681 20.5666C25.1912 20.8018 25.4536 21.2479 25.4536 21.7319V25.1143C25.4536 26.8367 23.8537 28.0808 22.2216 27.5301C18.8697 26.3991 13.6665 24.2456 10.3687 20.9477C7.07072 17.6498 4.91725 12.4467 3.78623 9.09472C3.23555 7.46265 4.47961 5.86274 6.20204 5.86274H9.58379Z" stroke="url(#paint0_linear_50_2274)" stroke-width="1.5" stroke-linecap="round" stroke-linejoin="round"/>
<defs>
<linearGradient id="paint0_linear_50_2274" x1="3.51139" y1="27.8024" x2="27.7793" y2="9.13896" gradientUnits="userSpaceOnUse">
<stop stop-color="#B0FDFF"/>
<stop offset="1" stop-color="#00F686"/>
</linearGradient>
</defs>
</svg>
