<svg width="32" height="32" viewBox="0 0 32 32" fill="none" xmlns="http://www.w3.org/2000/svg">
<path d="M6.57223 21.8383C4.15938 22.5622 2.66699 23.5622 2.66699 24.6667C2.66699 26.8759 8.63653 28.6667 16.0003 28.6667C23.3641 28.6667 29.3337 26.8759 29.3337 24.6667C29.3337 23.5622 27.8413 22.5622 25.4284 21.8383M16.0003 23.3334C16.0003 23.3334 24.667 17.6694 24.667 11.1213C24.667 6.45198 20.7868 2.66675 16.0003 2.66675C11.2139 2.66675 7.33366 6.45198 7.33366 11.1213C7.33366 17.6694 16.0003 23.3334 16.0003 23.3334ZM16.0003 14.6667C17.8413 14.6667 19.3337 13.1743 19.3337 11.3334C19.3337 9.49248 17.8413 8.00008 16.0003 8.00008C14.1594 8.00008 12.667 9.49248 12.667 11.3334C12.667 13.1743 14.1594 14.6667 16.0003 14.6667Z" stroke="url(#paint0_linear_50_2285)" stroke-width="1.5" stroke-linecap="round" stroke-linejoin="round"/>
<defs>
<linearGradient id="paint0_linear_50_2285" x1="2.51013" y1="28.8197" x2="28.9905" y2="8.29228" gradientUnits="userSpaceOnUse">
<stop stop-color="#B0FDFF"/>
<stop offset="1" stop-color="#00F686"/>
</linearGradient>
</defs>
</svg>
