<svg width="32" height="32" viewBox="0 0 32 32" fill="none" xmlns="http://www.w3.org/2000/svg">
<path d="M29.3332 16.0001C29.3332 18.9456 23.3636 21.3334 15.9998 21.3334C8.63604 21.3334 2.6665 18.9456 2.6665 16.0001M29.3332 16.0001C29.3332 13.0545 23.3636 10.6667 15.9998 10.6667C8.63604 10.6667 2.6665 13.0545 2.6665 16.0001M29.3332 16.0001C29.3332 23.3639 23.3636 29.3334 15.9998 29.3334M29.3332 16.0001C29.3332 8.63628 23.3636 2.66675 15.9998 2.66675M2.6665 16.0001C2.6665 23.3639 8.63604 29.3334 15.9998 29.3334M2.6665 16.0001C2.6665 8.63628 8.63604 2.66675 15.9998 2.66675M15.9998 29.3334C18.9454 29.3334 21.3332 23.3639 21.3332 16.0001C21.3332 8.63628 18.9454 2.66675 15.9998 2.66675M15.9998 29.3334C13.0543 29.3334 10.6665 23.3639 10.6665 16.0001C10.6665 8.63628 13.0543 2.66675 15.9998 2.66675" stroke="url(#paint0_linear_50_2299)" stroke-width="1.5" stroke-linecap="round" stroke-linejoin="round"/>
<defs>
<linearGradient id="paint0_linear_50_2299" x1="2.50964" y1="29.4903" x2="29.49" y2="9.09812" gradientUnits="userSpaceOnUse">
<stop stop-color="#B0FDFF"/>
<stop offset="1" stop-color="#00F686"/>
</linearGradient>
</defs>
</svg>
