<svg width="40" height="40" viewBox="0 0 40 40" fill="none" xmlns="http://www.w3.org/2000/svg">
<path d="M32.5 5H7.5C6.11929 5 5 6.11929 5 7.5V32.5C5 33.8808 6.11929 35 7.5 35H32.5C33.8808 35 35 33.8808 35 32.5V7.5C35 6.11929 33.8808 5 32.5 5Z" stroke="url(#paint0_linear_50_2050)" stroke-width="1.5" stroke-linecap="round" stroke-linejoin="round"/>
<path d="M22.75 10C21.2312 10 20 11.1956 20 12.6704C20 15.3409 23.25 17.7686 25 18.3333C26.75 17.7686 30 15.3409 30 12.6704C30 11.1956 28.7687 10 27.25 10C26.3199 10 25.4977 10.4483 25 11.1347C24.5023 10.4483 23.6801 10 22.75 10Z" stroke="url(#paint1_linear_50_2050)" stroke-width="1.5" stroke-linecap="round" stroke-linejoin="round"/>
<defs>
<linearGradient id="paint0_linear_50_2050" x1="4.82353" y1="35.1765" x2="35.1765" y2="12.2353" gradientUnits="userSpaceOnUse">
<stop stop-color="#B0FDFF"/>
<stop offset="1" stop-color="#00F686"/>
</linearGradient>
<linearGradient id="paint1_linear_50_2050" x1="4.82353" y1="35.1765" x2="35.1765" y2="12.2353" gradientUnits="userSpaceOnUse">
<stop stop-color="#B0FDFF"/>
<stop offset="1" stop-color="#00F686"/>
</linearGradient>
</defs>
</svg>
