<svg width="40" height="40" viewBox="0 0 40 40" fill="none" xmlns="http://www.w3.org/2000/svg">
<path d="M20 30V25M20 30C18.1591 30 16.6667 31.4925 16.6667 33.3334M20 30C21.8409 30 23.3333 31.4925 23.3333 33.3334M20 25C26.9036 25 32.5 23.1345 32.5 20.8334V7.50004M20 25C13.0964 25 7.5 23.1345 7.5 20.8334V7.50004M16.6667 33.3334H5M16.6667 33.3334C16.6667 35.1743 18.1591 36.6667 20 36.6667C21.8409 36.6667 23.3333 35.1743 23.3333 33.3334M23.3333 33.3334H35M32.5 7.50004C32.5 9.80121 26.9036 11.6667 20 11.6667C13.0964 11.6667 7.5 9.80121 7.5 7.50004M32.5 7.50004C32.5 5.19886 26.9036 3.33337 20 3.33337C13.0964 3.33337 7.5 5.19886 7.5 7.50004M32.5 14.1667C32.5 16.4679 26.9036 18.3334 20 18.3334C13.0964 18.3334 7.5 16.4679 7.5 14.1667" stroke="url(#paint0_linear_50_2600)" stroke-width="1.5" stroke-linecap="round" stroke-linejoin="round"/>
<defs>
<linearGradient id="paint0_linear_50_2600" x1="4.82353" y1="36.8628" x2="37.4288" y2="14.6836" gradientUnits="userSpaceOnUse">
<stop stop-color="#B0FDFF"/>
<stop offset="1" stop-color="#00F686"/>
</linearGradient>
</defs>
</svg>
