<svg width="40" height="40" viewBox="0 0 40 40" fill="none" xmlns="http://www.w3.org/2000/svg">
<path d="M15.8635 36.6667C15.0469 34.0037 13.815 32.0184 12.1677 30.711C9.69683 28.7497 5.77086 29.9686 4.32065 27.9456C2.87044 25.9227 5.33668 22.2025 6.20212 20.0075C7.06755 17.8124 2.88499 17.0362 3.3733 16.4131C3.69885 15.9976 5.81242 14.7989 9.71408 12.8167C10.8227 6.49447 14.9175 3.33337 21.9987 3.33337C32.6202 3.33337 36.6668 12.3383 36.6668 18.0658C36.6668 23.7932 31.7669 29.9635 24.7869 31.294C24.1628 32.2029 25.063 33.9939 27.4875 36.6667M17.5183 3.82491C16.5284 8.18207 16.5284 11.5723 17.5183 13.9957C19.0033 17.6307 25.5675 17.0722 25.5675 20.4636C25.5675 23.855 21.7427 24.507 22.2531 26.86C22.5933 28.4285 23.3502 30.463 24.5234 32.9632M14.1668 25.459C14.363 25.459 16.1672 25.3437 17.4659 23.9994C18.3317 23.1031 18.7646 22.0478 18.7646 20.8334" stroke="url(#paint0_linear_50_2596)" stroke-width="1.5" stroke-linecap="round" stroke-linejoin="round"/>
<defs>
<linearGradient id="paint0_linear_50_2596" x1="3.13742" y1="36.8628" x2="36.8629" y2="11.3726" gradientUnits="userSpaceOnUse">
<stop stop-color="#B0FDFF"/>
<stop offset="1" stop-color="#00F686"/>
</linearGradient>
</defs>
</svg>
