<svg width="193" height="43" viewBox="0 0 193 43" fill="none" xmlns="http://www.w3.org/2000/svg">
<path d="M2.00049 35.7425L7.56516 12.0683C10.2453 0.665781 25.4286 -1.70323 31.455 8.34081L35.7213 15.4513C37.9939 19.2389 43.2443 19.8324 46.305 16.6476C49.4667 13.3577 54.9198 14.1184 57.0605 18.1479L61.2945 26.1176C62.9792 29.2888 66.6703 30.8272 70.1085 29.791L72.3918 29.1029C74.7412 28.3948 77.2487 29.5569 78.227 31.8072C79.9964 35.8766 85.8526 35.6184 87.2569 31.409L93.8904 11.5252C96.2639 4.41066 105.415 2.47662 110.464 8.0224C113.166 10.9898 117.401 12.0144 121.161 10.6098L125.15 9.11938C132.728 6.28802 141.227 9.56187 144.947 16.7454L147.851 22.3532C150.454 27.3798 156.722 29.2224 161.632 26.4043C167.188 23.2149 174.195 26.115 177.264 31.7383C180.828 38.2686 185.659 43.2473 190.721 39.0394" stroke="#00F686" stroke-width="4" stroke-linecap="round"/>
</svg>
