<svg width="46" height="46" viewBox="0 0 46 46" fill="none" xmlns="http://www.w3.org/2000/svg">
<path d="M25.9315 16.0076C24.8344 16.7898 23.4918 17.2499 22.0417 17.2499C18.3368 17.2499 15.3333 14.2465 15.3333 10.5416C15.3333 6.83667 18.3368 3.83325 22.0417 3.83325C24.4432 3.83325 26.55 5.09522 27.7351 6.99219M11.5 38.5003H16.5031C17.1554 38.5003 17.8037 38.5779 18.4361 38.7332L23.7224 40.0178C24.8694 40.2972 26.0643 40.3244 27.2233 40.0993L33.0682 38.9621C34.6122 38.6614 36.0325 37.922 37.1457 36.8392L41.281 32.8165C42.4619 31.6697 42.4619 29.8087 41.281 28.66C40.2177 27.6257 38.5341 27.5092 37.3312 28.3863L32.5117 31.9026C31.8214 32.4071 30.9816 32.6788 30.1178 32.6788H25.4639L28.4262 32.6786C30.0959 32.6786 31.4484 31.363 31.4484 29.7388V29.1508C31.4484 27.8021 30.5048 26.6262 29.1603 26.3002L24.5881 25.1883C23.8441 25.0078 23.082 24.9166 22.316 24.9166C20.4668 24.9166 17.1195 26.4476 17.1195 26.4476L11.5 28.7976M38.3333 12.4583C38.3333 16.1632 35.3299 19.1666 31.625 19.1666C27.9201 19.1666 24.9167 16.1632 24.9167 12.4583C24.9167 8.75334 27.9201 5.74992 31.625 5.74992C35.3299 5.74992 38.3333 8.75334 38.3333 12.4583ZM3.83334 27.9833L3.83334 39.0999C3.83334 40.1734 3.83334 40.7101 4.04225 41.1201C4.226 41.4807 4.51922 41.7739 4.87986 41.9577C5.28986 42.1666 5.82658 42.1666 6.90001 42.1666H8.43334C9.50678 42.1666 10.0435 42.1666 10.4535 41.9577C10.8141 41.7739 11.1073 41.4807 11.2911 41.1201C11.5 40.7101 11.5 40.1734 11.5 39.0999V27.9833C11.5 26.9098 11.5 26.3731 11.2911 25.9631C11.1073 25.6025 10.8141 25.3092 10.4535 25.1255C10.0435 24.9166 9.50678 24.9166 8.43334 24.9166L6.90001 24.9166C5.82658 24.9166 5.28986 24.9166 4.87986 25.1255C4.51922 25.3092 4.22601 25.6025 4.04225 25.9631C3.83334 26.3731 3.83334 26.9098 3.83334 27.9833Z" stroke="url(#paint0_linear_1_1264)" stroke-width="1.5" stroke-linecap="round" stroke-linejoin="round"/>
<defs>
<linearGradient id="paint0_linear_1_1264" x1="3.60785" y1="42.3921" x2="42.3922" y2="13.0783" gradientUnits="userSpaceOnUse">
<stop stop-color="#B0FDFF"/>
<stop offset="1" stop-color="#00F686"/>
</linearGradient>
</defs>
</svg>
