<svg width="46" height="46" viewBox="0 0 46 46" fill="none" xmlns="http://www.w3.org/2000/svg">
<path d="M6.70833 15.3333H30.6667M30.6667 15.3333V39.2917M30.6667 15.3333L39.2917 6.70833M40.25 29.3964V7.28333C40.25 6.74662 40.25 6.47826 40.1455 6.27326C40.0537 6.09294 39.9071 5.94633 39.7267 5.85445C39.5217 5.75 39.2534 5.75 38.7167 5.75H16.6036C16.1348 5.75 15.9004 5.75 15.6798 5.80296C15.4842 5.84991 15.2973 5.92735 15.1258 6.03244C14.9324 6.15097 14.7666 6.31671 14.4351 6.6482L6.64821 14.4351C6.31672 14.7666 6.15097 14.9324 6.03244 15.1258C5.92735 15.2973 5.84991 15.4842 5.80296 15.6798C5.75 15.9004 5.75 16.1348 5.75 16.6036V38.7167C5.75 39.2534 5.75 39.5217 5.85445 39.7267C5.94633 39.9071 6.09294 40.0537 6.27326 40.1455C6.47826 40.25 6.74662 40.25 7.28333 40.25H29.3964C29.8652 40.25 30.0996 40.25 30.3202 40.197C30.5158 40.1501 30.7027 40.0726 30.8742 39.9676C31.0676 39.849 31.2334 39.6833 31.5649 39.3518L39.3518 31.5649C39.6833 31.2334 39.849 31.0676 39.9676 30.8742C40.0726 30.7027 40.1501 30.5158 40.197 30.3202C40.25 30.0996 40.25 29.8652 40.25 29.3964Z" stroke="url(#paint0_linear_1_1266)" stroke-width="1.5" stroke-linecap="round" stroke-linejoin="round"/>
<defs>
<linearGradient id="paint0_linear_1_1266" x1="5.54706" y1="40.4529" x2="40.4529" y2="14.0706" gradientUnits="userSpaceOnUse">
<stop stop-color="#B0FDFF"/>
<stop offset="1" stop-color="#00F686"/>
</linearGradient>
</defs>
</svg>
