<svg width="46" height="46" viewBox="0 0 46 46" fill="none" xmlns="http://www.w3.org/2000/svg">
<path d="M24.9166 14.375L19.1666 20.125L26.8333 23.9583L21.0833 29.7083M38.3333 23C38.3333 32.4078 28.0715 39.2502 24.3378 41.4285C23.9134 41.676 23.7013 41.7998 23.4018 41.864C23.1695 41.9138 22.8304 41.9138 22.5981 41.864C22.2986 41.7998 22.0865 41.676 21.6621 41.4285C17.9284 39.2502 7.66663 32.4078 7.66663 23V13.8337C7.66663 12.3013 7.66663 11.5351 7.91725 10.8765C8.13865 10.2946 8.49843 9.77549 8.96547 9.36389C9.49416 8.89796 10.2116 8.62893 11.6464 8.09087L21.9232 4.23708C22.3216 4.08766 22.5209 4.01294 22.7258 3.98333C22.9076 3.95706 23.0923 3.95706 23.2741 3.98333C23.479 4.01294 23.6783 4.08766 24.0767 4.23708L34.3535 8.09087C35.7883 8.62893 36.5058 8.89796 37.0344 9.36389C37.5015 9.77549 37.8613 10.2946 38.0827 10.8765C38.3333 11.5351 38.3333 12.3013 38.3333 13.8337V23Z" stroke="url(#paint0_linear_1_1268)" stroke-width="1.5" stroke-linecap="round" stroke-linejoin="round"/>
<defs>
<linearGradient id="paint0_linear_1_1268" x1="7.48623" y1="42.1245" x2="42.987" y2="20.4351" gradientUnits="userSpaceOnUse">
<stop stop-color="#B0FDFF"/>
<stop offset="1" stop-color="#00F686"/>
</linearGradient>
</defs>
</svg>
