<svg width="46" height="46" viewBox="0 0 46 46" fill="none" xmlns="http://www.w3.org/2000/svg">
<path d="M15.3333 5.75H14.95C11.7297 5.75 10.1195 5.75 8.88955 6.37671C7.80762 6.92798 6.92798 7.80762 6.37671 8.88955C5.75 10.1195 5.75 11.7297 5.75 14.95V15.3333M15.3333 40.25H14.95C11.7297 40.25 10.1195 40.25 8.88955 39.6233C7.80762 39.072 6.92798 38.1924 6.37671 37.1104C5.75 35.8805 5.75 34.2703 5.75 31.05V30.6667M40.25 15.3333V14.95C40.25 11.7297 40.25 10.1195 39.6233 8.88955C39.072 7.80762 38.1924 6.92798 37.1104 6.37671C35.8805 5.75 34.2703 5.75 31.05 5.75H30.6667M40.25 30.6667V31.05C40.25 34.2703 40.25 35.8805 39.6233 37.1104C39.072 38.1924 38.1924 39.072 37.1104 39.6233C35.8805 40.25 34.2703 40.25 31.05 40.25H30.6667M14.375 15.3333V18.2083M31.625 15.3333V18.2083M21.0833 24.1502C22.6167 24.1502 23.9583 22.8085 23.9583 21.2752V15.3333M29.1337 29.1332C25.6837 32.5832 20.1254 32.5832 16.6754 29.1332" stroke="url(#paint0_linear_1_1270)" stroke-width="1.5" stroke-linecap="round" stroke-linejoin="round"/>
<defs>
<linearGradient id="paint0_linear_1_1270" x1="5.54706" y1="40.4529" x2="40.4529" y2="14.0706" gradientUnits="userSpaceOnUse">
<stop stop-color="#B0FDFF"/>
<stop offset="1" stop-color="#00F686"/>
</linearGradient>
</defs>
</svg>
