<svg width="46" height="46" viewBox="0 0 46 46" fill="none" xmlns="http://www.w3.org/2000/svg">
<path d="M39.2917 16.2916H6.70835C5.64981 16.2916 4.79169 17.1497 4.79169 18.2083L4.79172 37.375C4.79172 38.4335 5.64984 39.2916 6.70837 39.2916H39.2917C40.3503 39.2916 41.2084 38.4335 41.2084 37.375V18.2083C41.2084 17.1497 40.3503 16.2916 39.2917 16.2916Z" stroke="url(#paint0_linear_1_1305)" stroke-width="1.5" stroke-linecap="round" stroke-linejoin="round"/>
<path d="M32.5834 6.70837H13.4167V16.2917H32.5834V6.70837Z" stroke="url(#paint1_linear_1_1305)" stroke-width="1.5" stroke-linecap="round" stroke-linejoin="round"/>
<path d="M18.2083 27.7916H27.7916" stroke="url(#paint2_linear_1_1305)" stroke-width="1.5" stroke-linecap="round" stroke-linejoin="round"/>
<path d="M23 22.9999V32.5832" stroke="url(#paint3_linear_1_1305)" stroke-width="1.5" stroke-linecap="round" stroke-linejoin="round"/>
<defs>
<linearGradient id="paint0_linear_1_1305" x1="4.57747" y1="39.4269" x2="28.3812" y2="10.9409" gradientUnits="userSpaceOnUse">
<stop stop-color="#B0FDFF"/>
<stop offset="1" stop-color="#00F686"/>
</linearGradient>
<linearGradient id="paint1_linear_1_1305" x1="13.3039" y1="16.3481" x2="22.5794" y2="2.32706" gradientUnits="userSpaceOnUse">
<stop stop-color="#B0FDFF"/>
<stop offset="1" stop-color="#00F686"/>
</linearGradient>
<linearGradient id="paint2_linear_1_1305" x1="18.1519" y1="28.7975" x2="18.4369" y2="26.7335" gradientUnits="userSpaceOnUse">
<stop stop-color="#B0FDFF"/>
<stop offset="1" stop-color="#00F686"/>
</linearGradient>
<linearGradient id="paint3_linear_1_1305" x1="22.9941" y1="32.6396" x2="24.574" y2="32.515" gradientUnits="userSpaceOnUse">
<stop stop-color="#B0FDFF"/>
<stop offset="1" stop-color="#00F686"/>
</linearGradient>
</defs>
</svg>
