<svg width="46" height="46" viewBox="0 0 46 46" fill="none" xmlns="http://www.w3.org/2000/svg">
<path d="M40.1588 35.2041H6.36285V41.7755H40.1588V35.2041Z" stroke="url(#paint0_linear_1_1315)" stroke-width="1.5" stroke-linecap="round" stroke-linejoin="round"/>
<path d="M36.4037 34.2653L34.5261 9.85718H4.48532L10.6493 16.9443C11.1458 17.5151 11.3918 18.2618 11.3317 19.016L10.1179 34.2653" stroke="url(#paint1_linear_1_1315)" stroke-width="1.5" stroke-linecap="round" stroke-linejoin="round"/>
<path d="M25.1383 17.3674H20.4445" stroke="url(#paint2_linear_1_1315)" stroke-width="1.5" stroke-linecap="round" stroke-linejoin="round"/>
<path d="M25.1383 23H20.4445" stroke="url(#paint3_linear_1_1315)" stroke-width="1.5" stroke-linecap="round" stroke-linejoin="round"/>
<path d="M25.1383 28.6326H20.4445" stroke="url(#paint4_linear_1_1315)" stroke-width="1.5" stroke-linecap="round" stroke-linejoin="round"/>
<path d="M34.5261 9.85718H42.0363V24.8776H36.4036" stroke="url(#paint5_linear_1_1315)" stroke-width="1.5" stroke-linecap="round" stroke-linejoin="round"/>
<path d="M18.5669 8.91849V4.22461H27.0159V8.91849" stroke="url(#paint6_linear_1_1315)" stroke-width="1.5" stroke-linecap="round" stroke-linejoin="round"/>
<defs>
<linearGradient id="paint0_linear_1_1315" x1="6.16406" y1="41.8142" x2="9.49923" y2="28.8502" gradientUnits="userSpaceOnUse">
<stop stop-color="#B0FDFF"/>
<stop offset="1" stop-color="#00F686"/>
</linearGradient>
<linearGradient id="paint1_linear_1_1315" x1="4.29757" y1="34.4089" x2="29.9652" y2="9.03972" gradientUnits="userSpaceOnUse">
<stop stop-color="#B0FDFF"/>
<stop offset="1" stop-color="#00F686"/>
</linearGradient>
<linearGradient id="paint2_linear_1_1315" x1="20.4168" y1="18.3733" x2="20.9661" y2="16.4248" gradientUnits="userSpaceOnUse">
<stop stop-color="#B0FDFF"/>
<stop offset="1" stop-color="#00F686"/>
</linearGradient>
<linearGradient id="paint3_linear_1_1315" x1="20.4168" y1="24.0059" x2="20.9661" y2="22.0573" gradientUnits="userSpaceOnUse">
<stop stop-color="#B0FDFF"/>
<stop offset="1" stop-color="#00F686"/>
</linearGradient>
<linearGradient id="paint4_linear_1_1315" x1="20.4168" y1="29.6385" x2="20.9661" y2="27.6899" gradientUnits="userSpaceOnUse">
<stop stop-color="#B0FDFF"/>
<stop offset="1" stop-color="#00F686"/>
</linearGradient>
<linearGradient id="paint5_linear_1_1315" x1="34.4819" y1="24.9659" x2="44.9292" y2="21.0178" gradientUnits="userSpaceOnUse">
<stop stop-color="#B0FDFF"/>
<stop offset="1" stop-color="#00F686"/>
</linearGradient>
<linearGradient id="paint6_linear_1_1315" x1="18.5172" y1="8.9461" x2="23.2287" y2="2.53635" gradientUnits="userSpaceOnUse">
<stop stop-color="#B0FDFF"/>
<stop offset="1" stop-color="#00F686"/>
</linearGradient>
</defs>
</svg>
