<svg width="46" height="46" viewBox="0 0 46 46" fill="none" xmlns="http://www.w3.org/2000/svg">
<path d="M29.7083 22.0417H27.7917L24.9167 27.7917L21.0833 16.2917L18.2083 22.0417H16.2917M22.9869 9.84364C19.1548 5.3636 12.7645 4.15848 7.96316 8.26086C3.16181 12.3632 2.48585 19.2222 6.25637 24.0741C9.10433 27.7388 17.195 35.096 20.9837 38.4769C21.6802 39.0984 22.0284 39.4091 22.4362 39.5314C22.7902 39.6376 23.1836 39.6376 23.5376 39.5314C23.9453 39.4091 24.2936 39.0984 24.9901 38.4769C28.7788 35.096 36.8694 27.7388 39.7174 24.0741C43.4879 19.2222 42.8944 12.3201 38.0106 8.26086C33.1267 4.20163 26.819 5.3636 22.9869 9.84364Z" stroke="url(#paint0_linear_1_1326)" stroke-width="1.5" stroke-linecap="round" stroke-linejoin="round"/>
<defs>
<linearGradient id="paint0_linear_1_1326" x1="3.60784" y1="39.8103" x2="38.7902" y2="9.70685" gradientUnits="userSpaceOnUse">
<stop stop-color="#B0FDFF"/>
<stop offset="1" stop-color="#00F686"/>
</linearGradient>
</defs>
</svg>
