<svg width="34" height="34" viewBox="0 0 34 34" fill="none" xmlns="http://www.w3.org/2000/svg">
<path d="M17 31.1666C24.824 31.1666 31.1666 24.824 31.1666 16.9999C31.1666 9.17588 24.824 2.83325 17 2.83325C9.17595 2.83325 2.83331 9.17588 2.83331 16.9999C2.83331 24.824 9.17595 31.1666 17 31.1666Z" stroke="black" stroke-width="1.5" stroke-linecap="round" stroke-linejoin="round"/>
<path d="M17 31.1666C13.088 31.1666 9.91669 27.9952 9.91669 24.0833C9.91669 20.1713 13.088 16.9999 17 16.9999C20.912 16.9999 24.0834 13.8286 24.0834 9.91659C24.0834 6.00457 20.912 2.83325 17 2.83325" stroke="black" stroke-width="1.5" stroke-linecap="round" stroke-linejoin="round"/>
<path d="M31.1666 17.0001C31.1666 20.9121 27.9953 24.0834 24.0833 24.0834C20.1713 24.0834 17 20.9121 17 17.0001C17 13.0881 13.8286 9.91675 9.91665 9.91675C6.00463 9.91675 2.83331 13.0881 2.83331 17.0001" stroke="black" stroke-width="1.5" stroke-linecap="round" stroke-linejoin="round"/>
</svg>
