<svg width="34" height="34" viewBox="0 0 34 34" fill="none" xmlns="http://www.w3.org/2000/svg">
<path d="M24.7606 21.9583L21.9582 31.1666H12.0415L9.23914 21.9583" stroke="black" stroke-width="1.5" stroke-linecap="round" stroke-linejoin="round"/>
<path d="M9.23914 12.0416L12.0415 2.83325H21.9582L24.7606 12.0416" stroke="black" stroke-width="1.5" stroke-linecap="round" stroke-linejoin="round"/>
<path d="M26.2084 17.0001C26.2084 18.8257 25.6771 20.5272 24.7608 21.9584C23.1244 24.5143 20.2601 26.2084 17 26.2084C13.74 26.2084 10.8756 24.5143 9.23924 21.9584C8.32294 20.5272 7.79169 18.8257 7.79169 17.0001C7.79169 15.1745 8.32294 13.473 9.23924 12.0417C10.8756 9.48587 13.74 7.79175 17 7.79175C20.2601 7.79175 23.1244 9.48587 24.7608 12.0417C25.6771 13.473 26.2084 15.1745 26.2084 17.0001Z" stroke="black" stroke-width="1.5" stroke-linecap="round" stroke-linejoin="round"/>
<path d="M17 12.0417V17.0001L19.8333 19.8334" stroke="black" stroke-width="1.5" stroke-linecap="round" stroke-linejoin="round"/>
</svg>
