<svg width="34" height="34" viewBox="0 0 34 34" fill="none" xmlns="http://www.w3.org/2000/svg">
<path fill-rule="evenodd" clip-rule="evenodd" d="M9.29135 3.54175H9.91851C13.2237 4.03042 14.12 5.90634 17.0002 5.90634C19.8804 5.90634 20.7764 4.03053 24.0818 3.54175H24.4377C28.1541 3.54175 31.1669 6.5545 31.1669 10.2709V10.7143C31.1669 12.7704 28.9773 15.1183 28.3335 17.3421C27.6498 19.7041 27.1814 21.6344 27.0439 23.6544C26.7217 28.3866 25.1083 30.4584 23.3752 30.4584C20.7871 30.4584 18.4887 19.8512 17.0444 19.8512C15.6001 19.8512 12.7341 30.4584 10.6252 30.4584C9.3381 30.4584 7.67076 29.6972 7.04476 23.6544C6.79569 21.2501 6.37587 19.7914 5.66687 17.3421C5.04369 15.1894 2.941 12.6163 2.83353 10.3071C2.66756 6.74053 5.42429 3.71472 8.99088 3.54875C9.09096 3.54409 9.19112 3.54176 9.29135 3.54175Z" stroke="black" stroke-width="1.5" stroke-linecap="round" stroke-linejoin="round"/>
<path d="M10.9667 8.82812L22.667 12.6002" stroke="black" stroke-width="1.5" stroke-linecap="round" stroke-linejoin="round"/>
<path d="M10.9667 12.6003L22.667 8.82812" stroke="black" stroke-width="1.5" stroke-linecap="round" stroke-linejoin="round"/>
</svg>
