<svg width="34" height="34" viewBox="0 0 34 34" fill="none" xmlns="http://www.w3.org/2000/svg">
<path d="M12.75 18.4161V7.08325C12.75 4.73604 14.6528 2.83325 17 2.83325C19.3472 2.83325 21.25 4.73604 21.25 7.08325V18.4161C22.9705 19.7084 24.0834 21.7659 24.0834 24.0833C24.0834 27.9952 20.912 31.1666 17 31.1666C13.088 31.1666 9.91669 27.9952 9.91669 24.0833C9.91669 21.7659 11.0295 19.7084 12.75 18.4161Z" stroke="black" stroke-width="1.5" stroke-linecap="round" stroke-linejoin="round"/>
<path d="M17 12.0417V21.2501" stroke="black" stroke-width="1.5" stroke-linecap="round" stroke-linejoin="round"/>
<path d="M17 26.9167C18.5648 26.9167 19.8334 25.6481 19.8334 24.0833C19.8334 22.5186 18.5648 21.25 17 21.25C15.4352 21.25 14.1667 22.5186 14.1667 24.0833C14.1667 25.6481 15.4352 26.9167 17 26.9167Z" stroke="black" stroke-width="1.5" stroke-linecap="round" stroke-linejoin="round"/>
</svg>
