<svg width="20" height="20" viewBox="0 0 20 20" fill="none" xmlns="http://www.w3.org/2000/svg">
<path d="M0 18V16H10V18H0ZM3 15C2.45 15 1.97917 14.8042 1.5875 14.4125C1.19583 14.0208 1 13.55 1 13V4C1 3.45 1.19583 2.97917 1.5875 2.5875C1.97917 2.19583 2.45 2 3 2H17C17.55 2 18.0208 2.19583 18.4125 2.5875C18.8042 2.97917 19 3.45 19 4H3V13H10V15H3ZM18 16V8H14V16H18ZM13.5 18C13.0833 18 12.7292 17.8542 12.4375 17.5625C12.1458 17.2708 12 16.9167 12 16.5V7.5C12 7.08333 12.1458 6.72917 12.4375 6.4375C12.7292 6.14583 13.0833 6 13.5 6H18.5C18.9167 6 19.2708 6.14583 19.5625 6.4375C19.8542 6.72917 20 7.08333 20 7.5V16.5C20 16.9167 19.8542 17.2708 19.5625 17.5625C19.2708 17.8542 18.9167 18 18.5 18H13.5ZM16 10.5C16.2167 10.5 16.3958 10.425 16.5375 10.275C16.6792 10.125 16.75 9.95 16.75 9.75C16.75 9.53333 16.6792 9.35417 16.5375 9.2125C16.3958 9.07083 16.2167 9 16 9C15.8 9 15.625 9.07083 15.475 9.2125C15.325 9.35417 15.25 9.53333 15.25 9.75C15.25 9.95 15.325 10.125 15.475 10.275C15.625 10.425 15.8 10.5 16 10.5Z" fill="url(#paint0_linear_1_1386)"/>
<defs>
<linearGradient id="paint0_linear_1_1386" x1="17" y1="2.5" x2="-1.63913e-07" y2="18.5" gradientUnits="userSpaceOnUse">
<stop stop-color="#00F686"/>
<stop offset="1" stop-color="#B0FDFF"/>
</linearGradient>
</defs>
</svg>
