<svg width="20" height="20" viewBox="0 0 20 20" fill="none" xmlns="http://www.w3.org/2000/svg">
<path d="M8.5 15.5H11.5V13H14V10H11.5V7.5H8.5V10H6V13H8.5V15.5ZM5 19C4.45 19 3.97917 18.8042 3.5875 18.4125C3.19583 18.0208 3 17.55 3 17V6C3 5.45 3.19583 4.97917 3.5875 4.5875C3.97917 4.19583 4.45 4 5 4H15C15.55 4 16.0208 4.19583 16.4125 4.5875C16.8042 4.97917 17 5.45 17 6V17C17 17.55 16.8042 18.0208 16.4125 18.4125C16.0208 18.8042 15.55 19 15 19H5ZM5 17H15V6H5V17ZM4 3V1H16V3H4ZM5 6V17V6Z" fill="url(#paint0_linear_1_1404)"/>
<defs>
<linearGradient id="paint0_linear_1_1404" x1="14.9" y1="1.5625" x2="-1.81034" y2="11.3484" gradientUnits="userSpaceOnUse">
<stop stop-color="#00F686"/>
<stop offset="1" stop-color="#B0FDFF"/>
</linearGradient>
</defs>
</svg>
