<svg width="20" height="20" viewBox="0 0 20 20" fill="none" xmlns="http://www.w3.org/2000/svg">
<path d="M10.275 17C10.475 16.9833 10.6458 16.9042 10.7875 16.7625C10.9292 16.6208 11 16.45 11 16.25C11 16.0167 10.925 15.8292 10.775 15.6875C10.625 15.5458 10.4333 15.4833 10.2 15.5C9.51667 15.55 8.79167 15.3625 8.025 14.9375C7.25833 14.5125 6.775 13.7417 6.575 12.625C6.54167 12.4417 6.45417 12.2917 6.3125 12.175C6.17083 12.0583 6.00833 12 5.825 12C5.59167 12 5.4 12.0875 5.25 12.2625C5.1 12.4375 5.05 12.6417 5.1 12.875C5.38333 14.3917 6.05 15.475 7.1 16.125C8.15 16.775 9.20833 17.0667 10.275 17ZM10 20C7.71667 20 5.8125 19.2167 4.2875 17.65C2.7625 16.0833 2 14.1333 2 11.8C2 10.1333 2.6625 8.32083 3.9875 6.3625C5.3125 4.40417 7.31667 2.28333 10 0C12.6833 2.28333 14.6875 4.40417 16.0125 6.3625C17.3375 8.32083 18 10.1333 18 11.8C18 14.1333 17.2375 16.0833 15.7125 17.65C14.1875 19.2167 12.2833 20 10 20ZM10 18C11.7333 18 13.1667 17.4125 14.3 16.2375C15.4333 15.0625 16 13.5833 16 11.8C16 10.5833 15.4958 9.20833 14.4875 7.675C13.4792 6.14167 11.9833 4.46667 10 2.65C8.01667 4.46667 6.52083 6.14167 5.5125 7.675C4.50417 9.20833 4 10.5833 4 11.8C4 13.5833 4.56667 15.0625 5.7 16.2375C6.83333 17.4125 8.26667 18 10 18Z" fill="url(#paint0_linear_1_1413)"/>
<defs>
<linearGradient id="paint0_linear_1_1413" x1="15.6" y1="0.624999" x2="-3.21898" y2="11.9607" gradientUnits="userSpaceOnUse">
<stop stop-color="#00F686"/>
<stop offset="1" stop-color="#B0FDFF"/>
</linearGradient>
</defs>
</svg>
