<svg width="20" height="20" viewBox="0 0 20 20" fill="none" xmlns="http://www.w3.org/2000/svg">
<path d="M11.4 19.9001L10 18.5001L13.55 14.9501L5.05001 6.4501L1.50001 10.0001L0.100006 8.6001L1.50001 7.1501L0.100006 5.7501L2.20001 3.6501L0.800006 2.2001L2.20001 0.800098L3.65001 2.2001L5.75001 0.100098L7.15001 1.5001L8.60001 0.100098L10 1.5001L6.45001 5.0501L14.95 13.5501L18.5 10.0001L19.9 11.4001L18.5 12.8501L19.9 14.2501L17.8 16.3501L19.2 17.8001L17.8 19.2001L16.35 17.8001L14.25 19.9001L12.85 18.5001L11.4 19.9001Z" fill="url(#paint0_linear_1_1422)"/>
<defs>
<linearGradient id="paint0_linear_1_1422" x1="16.93" y1="0.718847" x2="-3.32516" y2="15.9698" gradientUnits="userSpaceOnUse">
<stop stop-color="#00F686"/>
<stop offset="1" stop-color="#B0FDFF"/>
</linearGradient>
</defs>
</svg>
