<svg width="97" height="32" viewBox="0 0 97 32" fill="none" xmlns="http://www.w3.org/2000/svg">
<path d="M96.0262 0.710001C96.1422 0.459394 96.0331 0.162218 95.7825 0.0462379C95.5319 -0.0697422 95.2347 0.0393944 95.1187 0.289999L95.5725 0.5L96.0262 0.710001ZM0.500008 30.5H7.62939e-06V31.5H0.500008V31V30.5ZM94.7145 1.12654C94.5921 1.37408 94.6936 1.67396 94.9411 1.79634C95.1887 1.91873 95.4886 1.81726 95.611 1.56972L95.1627 1.34813L94.7145 1.12654ZM93.8314 4.96793C93.9645 4.72597 93.8762 4.42194 93.6342 4.28887C93.3923 4.1558 93.0882 4.24407 92.9552 4.48603L93.3933 4.72698L93.8314 4.96793ZM92.0177 6.15299C91.8801 6.3924 91.9626 6.69804 92.202 6.83565C92.4414 6.97327 92.7471 6.89075 92.8847 6.65134L92.4512 6.40216L92.0177 6.15299ZM90.9156 9.93361C91.0621 9.69954 90.9911 9.39102 90.7571 9.2445C90.523 9.09799 90.2145 9.16896 90.068 9.40303L90.4918 9.66832L90.9156 9.93361ZM89.0427 11.0057C88.8916 11.2368 88.9564 11.5467 89.1876 11.6978C89.4187 11.8489 89.7286 11.7841 89.8797 11.5529L89.4612 11.2793L89.0427 11.0057ZM87.7103 14.7228C87.8713 14.4984 87.8198 14.186 87.5954 14.0251C87.371 13.8641 87.0586 13.9156 86.8977 14.14L87.304 14.4314L87.7103 14.7228ZM85.7748 15.6677C85.6086 15.8882 85.6526 16.2017 85.8731 16.3679C86.0936 16.5342 86.4071 16.4901 86.5734 16.2696L86.1741 15.9687L85.7748 15.6677ZM84.1799 19.2777C84.3578 19.0665 84.3307 18.7511 84.1195 18.5732C83.9083 18.3954 83.5929 18.4224 83.415 18.6337L83.7975 18.9557L84.1799 19.2777ZM82.1734 20.0634C81.9891 20.269 82.0064 20.5851 82.212 20.7695C82.4176 20.9538 82.7337 20.9365 82.918 20.7309L82.5457 20.3971L82.1734 20.0634ZM80.2464 23.5087C80.4452 23.3171 80.451 23.0005 80.2593 22.8017C80.0676 22.6029 79.7511 22.5971 79.5523 22.7888L79.8993 23.1488L80.2464 23.5087ZM78.166 24.0697C77.9591 24.2525 77.9396 24.5685 78.1225 24.7754C78.3053 24.9824 78.6213 25.0019 78.8282 24.819L78.4971 24.4443L78.166 24.0697ZM75.8037 27.2318C76.0287 27.0717 76.0814 26.7596 75.9213 26.5346C75.7612 26.3095 75.4491 26.2569 75.224 26.417L75.5139 26.8244L75.8037 27.2318ZM73.6619 27.4556C73.4271 27.6008 73.3544 27.9089 73.4996 28.1438C73.6448 28.3787 73.9529 28.4514 74.1878 28.3062L73.9249 27.8809L73.6619 27.4556ZM70.7312 30.0935C70.9863 29.9876 71.1073 29.6951 71.0014 29.44C70.8956 29.185 70.603 29.064 70.348 29.1698L70.5396 29.6317L70.7312 30.0935ZM68.5992 29.7989C68.335 29.8792 68.186 30.1585 68.2663 30.4227C68.3466 30.6869 68.6259 30.836 68.8901 30.7557L68.7447 30.2773L68.5992 29.7989ZM65.0319 31.4686C65.3075 31.451 65.5167 31.2134 65.4992 30.9378C65.4817 30.6623 65.2441 30.453 64.9685 30.4706L65.0002 30.9696L65.0319 31.4686ZM63.0822 30.5C62.806 30.5 62.5822 30.7239 62.5822 31C62.5822 31.2761 62.806 31.5 63.0822 31.5V31V30.5ZM59.231 31.5C59.5071 31.5 59.731 31.2761 59.731 31C59.731 30.7239 59.5071 30.5 59.231 30.5V31V31.5ZM57.3054 30.5C57.0292 30.5 56.8054 30.7239 56.8054 31C56.8054 31.2761 57.0292 31.5 57.3054 31.5V31V30.5ZM53.4542 31.5C53.7303 31.5 53.9542 31.2761 53.9542 31C53.9542 30.7239 53.7303 30.5 53.4542 30.5V31V31.5ZM51.5285 30.5C51.2524 30.5 51.0285 30.7239 51.0285 31C51.0285 31.2761 51.2524 31.5 51.5285 31.5V31V30.5ZM47.6773 31.5C47.9535 31.5 48.1773 31.2761 48.1773 31C48.1773 30.7239 47.9535 30.5 47.6773 30.5V31V31.5ZM45.7517 30.5C45.4756 30.5 45.2517 30.7239 45.2517 31C45.2517 31.2761 45.4756 31.5 45.7517 31.5V31V30.5ZM41.9005 31.5C42.1767 31.5 42.4005 31.2761 42.4005 31C42.4005 30.7239 42.1767 30.5 41.9005 30.5V31V31.5ZM39.9749 30.5C39.6988 30.5 39.4749 30.7239 39.4749 31C39.4749 31.2761 39.6988 31.5 39.9749 31.5V31V30.5ZM36.1237 31.5C36.3998 31.5 36.6237 31.2761 36.6237 31C36.6237 30.7239 36.3998 30.5 36.1237 30.5V31V31.5ZM34.1981 30.5C33.922 30.5 33.6981 30.7239 33.6981 31C33.6981 31.2761 33.922 31.5 34.1981 31.5V31V30.5ZM30.3469 31.5C30.623 31.5 30.8469 31.2761 30.8469 31C30.8469 30.7239 30.623 30.5 30.3469 30.5V31V31.5ZM28.4213 30.5C28.1451 30.5 27.9213 30.7239 27.9213 31C27.9213 31.2761 28.1451 31.5 28.4213 31.5V31V30.5ZM24.5701 31.5C24.8462 31.5 25.0701 31.2761 25.0701 31C25.0701 30.7239 24.8462 30.5 24.5701 30.5V31V31.5ZM22.6445 30.5C22.3683 30.5 22.1445 30.7239 22.1445 31C22.1445 31.2761 22.3683 31.5 22.6445 31.5V31V30.5ZM18.7933 31.5C19.0694 31.5 19.2933 31.2761 19.2933 31C19.2933 30.7239 19.0694 30.5 18.7933 30.5V31V31.5ZM16.8676 30.5C16.5915 30.5 16.3676 30.7239 16.3676 31C16.3676 31.2761 16.5915 31.5 16.8676 31.5V31V30.5ZM13.0164 31.5C13.2926 31.5 13.5164 31.2761 13.5164 31C13.5164 30.7239 13.2926 30.5 13.0164 30.5V31V31.5ZM11.0908 30.5C10.8147 30.5 10.5908 30.7239 10.5908 31C10.5908 31.2761 10.8147 31.5 11.0908 31.5V31V30.5ZM7.23962 31.5C7.51576 31.5 7.73962 31.2761 7.73962 31C7.73962 30.7239 7.51576 30.5 7.23962 30.5V31V31.5ZM5.31402 30.5C5.03787 30.5 4.81402 30.7239 4.81402 31C4.81402 31.2761 5.03787 31.5 5.31402 31.5V31V30.5ZM1.4628 31.5C1.73895 31.5 1.9628 31.2761 1.9628 31C1.9628 30.7239 1.73895 30.5 1.4628 30.5V31V31.5ZM95.5725 0.5C95.1187 0.289999 95.1187 0.289991 95.1187 0.289982C95.1187 0.289982 95.1187 0.289974 95.1187 0.289972C95.1187 0.289967 95.1187 0.289967 95.1187 0.289972C95.1187 0.289982 95.1187 0.290009 95.1187 0.290054C95.1186 0.290148 95.1186 0.290314 95.1185 0.290552C95.1182 0.291031 95.1179 0.291801 95.1174 0.292866C95.1164 0.294992 95.1149 0.298288 95.1128 0.302734C95.1086 0.311628 95.1023 0.32513 95.0939 0.343122C95.077 0.37911 95.0515 0.43306 95.0176 0.50403C94.9497 0.645975 94.8483 0.855988 94.7145 1.12654L95.1627 1.34813L95.611 1.56972C95.7468 1.29497 95.8502 1.08092 95.9199 0.935122C95.9547 0.862223 95.9811 0.806385 95.9989 0.768551C96.0078 0.749634 96.0145 0.735218 96.0191 0.72542C96.0214 0.720522 96.0231 0.716778 96.0243 0.714203C96.0249 0.712915 96.0254 0.71192 96.0257 0.711218C96.0258 0.710869 96.026 0.71059 96.0261 0.710388C96.0261 0.710287 96.0261 0.710203 96.0262 0.710138C96.0262 0.710106 96.0262 0.710079 96.0262 0.710056C96.0262 0.710045 96.0262 0.71003 96.0262 0.710024C96.0262 0.710012 96.0262 0.710001 95.5725 0.5ZM93.3933 4.72698L92.9552 4.48603C92.6687 5.00685 92.3558 5.56473 92.0177 6.15299L92.4512 6.40216L92.8847 6.65134C93.2261 6.05733 93.5421 5.49396 93.8314 4.96793L93.3933 4.72698ZM90.4918 9.66832L90.068 9.40303C89.7401 9.92686 89.3981 10.4621 89.0427 11.0057L89.4612 11.2793L89.8797 11.5529C90.2389 11.0036 90.5844 10.4628 90.9156 9.93361L90.4918 9.66832ZM87.304 14.4314L86.8977 14.14C86.5333 14.6482 86.1589 15.1581 85.7748 15.6677L86.1741 15.9687L86.5734 16.2696C86.9624 15.7534 87.3416 15.237 87.7103 14.7228L87.304 14.4314ZM83.7975 18.9557L83.415 18.6337C83.0092 19.1156 82.5952 19.5929 82.1734 20.0634L82.5457 20.3971L82.918 20.7309C83.347 20.2523 83.7678 19.7672 84.1799 19.2777L83.7975 18.9557ZM79.8993 23.1488L79.5523 22.7888C79.0971 23.2277 78.6349 23.6553 78.166 24.0697L78.4971 24.4443L78.8282 24.819C79.3085 24.3945 79.7814 23.957 80.2464 23.5087L79.8993 23.1488ZM75.5139 26.8244L75.224 26.417C74.7093 26.7832 74.1884 27.1302 73.6619 27.4556L73.9249 27.8809L74.1878 28.3062C74.7337 27.9687 75.2725 27.6097 75.8037 27.2318L75.5139 26.8244ZM70.5396 29.6317L70.348 29.1698C69.7699 29.4097 69.1868 29.6203 68.5992 29.7989L68.7447 30.2773L68.8901 30.7557C69.5107 30.567 70.1246 30.3452 70.7312 30.0935L70.5396 29.6317ZM65.0002 30.9696L64.9685 30.4706C64.6617 30.4901 64.3538 30.5 64.045 30.5V31V31.5C64.3752 31.5 64.7043 31.4894 65.0319 31.4686L65.0002 30.9696ZM64.045 31V30.5H63.0822V31V31.5H64.045V31ZM59.231 31V30.5H57.3054V31V31.5H59.231V31ZM53.4542 31V30.5H51.5285V31V31.5H53.4542V31ZM47.6773 31V30.5H45.7517V31V31.5H47.6773V31ZM41.9005 31V30.5H39.9749V31V31.5H41.9005V31ZM36.1237 31V30.5H34.1981V31V31.5H36.1237V31ZM30.3469 31V30.5H28.4213V31V31.5H30.3469V31ZM24.5701 31V30.5H22.6445V31V31.5H24.5701V31ZM18.7933 31V30.5H16.8676V31V31.5H18.7933V31ZM13.0164 31V30.5H11.0908V31V31.5H13.0164V31ZM7.23962 31V30.5H5.31402V31V31.5H7.23962V31ZM1.4628 31V30.5H0.500008V31V31.5H1.4628V31Z" fill="url(#paint0_linear_1_1436)"/>
<defs>
<linearGradient id="paint0_linear_1_1436" x1="180.5" y1="-65" x2="0.499992" y2="-65" gradientUnits="userSpaceOnUse">
<stop stop-color="#00F686"/>
<stop offset="1" stop-color="#B0FDFF"/>
</linearGradient>
</defs>
</svg>
