<svg width="97" height="32" viewBox="0 0 97 32" fill="none" xmlns="http://www.w3.org/2000/svg">
<path d="M96.0262 30.79C96.1422 31.0406 96.0331 31.3378 95.7825 31.4538C95.5319 31.5697 95.2347 31.4606 95.1187 31.21L95.5725 31L96.0262 30.79ZM0.500008 1H7.62939e-06V0H0.500008V0.5V1ZM94.7145 30.3735C94.5921 30.1259 94.6936 29.826 94.9411 29.7037C95.1887 29.5813 95.4886 29.6827 95.611 29.9303L95.1627 30.1519L94.7145 30.3735ZM93.8314 26.5321C93.9645 26.774 93.8762 27.0781 93.6342 27.2111C93.3923 27.3442 93.0882 27.2559 92.9552 27.014L93.3933 26.773L93.8314 26.5321ZM92.0177 25.347C91.8801 25.1076 91.9626 24.802 92.202 24.6643C92.4414 24.5267 92.7471 24.6093 92.8847 24.8487L92.4512 25.0978L92.0177 25.347ZM90.9156 21.5664C91.0621 21.8005 90.9911 22.109 90.7571 22.2555C90.523 22.402 90.2145 22.331 90.068 22.097L90.4918 21.8317L90.9156 21.5664ZM89.0427 20.4943C88.8916 20.2632 88.9564 19.9533 89.1876 19.8022C89.4187 19.6511 89.7286 19.7159 89.8797 19.9471L89.4612 20.2207L89.0427 20.4943ZM87.7103 16.7772C87.8713 17.0016 87.8198 17.314 87.5954 17.4749C87.371 17.6359 87.0586 17.5844 86.8977 17.36L87.304 17.0686L87.7103 16.7772ZM85.7748 15.8323C85.6086 15.6118 85.6526 15.2983 85.8731 15.1321C86.0936 14.9658 86.4071 15.0099 86.5734 15.2304L86.1741 15.5313L85.7748 15.8323ZM84.1799 12.2223C84.3578 12.4335 84.3307 12.7489 84.1195 12.9268C83.9083 13.1046 83.5929 13.0776 83.415 12.8663L83.7975 12.5443L84.1799 12.2223ZM82.1734 11.4366C81.9891 11.231 82.0064 10.9149 82.212 10.7305C82.4176 10.5462 82.7337 10.5635 82.918 10.7691L82.5457 11.1029L82.1734 11.4366ZM80.2464 7.99128C80.4452 8.18294 80.451 8.49946 80.2593 8.69827C80.0676 8.89706 79.7511 8.90285 79.5523 8.71119L79.8993 8.35123L80.2464 7.99128ZM78.166 7.43032C77.9591 7.24745 77.9396 6.93147 78.1225 6.72455C78.3053 6.51764 78.6213 6.49814 78.8282 6.68101L78.4971 7.05566L78.166 7.43032ZM75.8037 4.26818C76.0287 4.42825 76.0814 4.74043 75.9213 4.96544C75.7612 5.19046 75.4491 5.2431 75.224 5.08303L75.5139 4.67561L75.8037 4.26818ZM73.6619 4.04438C73.4271 3.89918 73.3544 3.59106 73.4996 3.35618C73.6448 3.12129 73.9529 3.04859 74.1878 3.19379L73.9249 3.61909L73.6619 4.04438ZM70.7312 1.40652C70.9863 1.51236 71.1073 1.80492 71.0014 2.05998C70.8956 2.31503 70.603 2.436 70.348 2.33016L70.5396 1.86834L70.7312 1.40652ZM68.5992 1.7011C68.335 1.62078 68.186 1.34149 68.2663 1.07729C68.3466 0.813084 68.6259 0.664017 68.8901 0.744336L68.7447 1.22272L68.5992 1.7011ZM65.0319 0.0314473C65.3075 0.0489657 65.5167 0.286574 65.4992 0.56216C65.4817 0.837746 65.2441 1.04695 64.9685 1.02943L65.0002 0.53044L65.0319 0.0314473ZM63.0822 1C62.806 1 62.5822 0.776142 62.5822 0.5C62.5822 0.223858 62.806 0 63.0822 0V0.5V1ZM59.231 0C59.5071 0 59.731 0.223858 59.731 0.5C59.731 0.776142 59.5071 1 59.231 1V0.5V0ZM57.3054 1C57.0292 1 56.8054 0.776142 56.8054 0.5C56.8054 0.223858 57.0292 0 57.3054 0V0.5V1ZM53.4542 0C53.7303 0 53.9542 0.223858 53.9542 0.5C53.9542 0.776142 53.7303 1 53.4542 1V0.5V0ZM51.5285 1C51.2524 1 51.0285 0.776142 51.0285 0.5C51.0285 0.223858 51.2524 0 51.5285 0V0.5V1ZM47.6773 0C47.9535 0 48.1773 0.223858 48.1773 0.5C48.1773 0.776142 47.9535 1 47.6773 1V0.5V0ZM45.7517 1C45.4756 1 45.2517 0.776142 45.2517 0.5C45.2517 0.223858 45.4756 0 45.7517 0V0.5V1ZM41.9005 0C42.1767 0 42.4005 0.223858 42.4005 0.5C42.4005 0.776142 42.1767 1 41.9005 1V0.5V0ZM39.9749 1C39.6988 1 39.4749 0.776142 39.4749 0.5C39.4749 0.223858 39.6988 0 39.9749 0V0.5V1ZM36.1237 0C36.3998 0 36.6237 0.223858 36.6237 0.5C36.6237 0.776142 36.3998 1 36.1237 1V0.5V0ZM34.1981 1C33.922 1 33.6981 0.776142 33.6981 0.5C33.6981 0.223858 33.922 0 34.1981 0V0.5V1ZM30.3469 0C30.623 0 30.8469 0.223858 30.8469 0.5C30.8469 0.776142 30.623 1 30.3469 1V0.5V0ZM28.4213 1C28.1451 1 27.9213 0.776142 27.9213 0.5C27.9213 0.223858 28.1451 0 28.4213 0V0.5V1ZM24.5701 0C24.8462 0 25.0701 0.223858 25.0701 0.5C25.0701 0.776142 24.8462 1 24.5701 1V0.5V0ZM22.6445 1C22.3683 1 22.1445 0.776142 22.1445 0.5C22.1445 0.223858 22.3683 0 22.6445 0V0.5V1ZM18.7933 0C19.0694 0 19.2933 0.223858 19.2933 0.5C19.2933 0.776142 19.0694 1 18.7933 1V0.5V0ZM16.8676 1C16.5915 1 16.3676 0.776142 16.3676 0.5C16.3676 0.223858 16.5915 0 16.8676 0V0.5V1ZM13.0164 0C13.2926 0 13.5164 0.223858 13.5164 0.5C13.5164 0.776142 13.2926 1 13.0164 1V0.5V0ZM11.0908 1C10.8147 1 10.5908 0.776142 10.5908 0.5C10.5908 0.223858 10.8147 0 11.0908 0V0.5V1ZM7.23962 0C7.51576 0 7.73962 0.223858 7.73962 0.5C7.73962 0.776142 7.51576 1 7.23962 1V0.5V0ZM5.31402 1C5.03787 1 4.81402 0.776142 4.81402 0.5C4.81402 0.223858 5.03787 0 5.31402 0V0.5V1ZM1.4628 0C1.73895 0 1.9628 0.223858 1.9628 0.5C1.9628 0.776142 1.73895 1 1.4628 1V0.5V0ZM95.5725 31C95.1187 31.21 95.1187 31.21 95.1187 31.21C95.1187 31.21 95.1187 31.21 95.1187 31.21C95.1187 31.21 95.1187 31.21 95.1187 31.21C95.1187 31.21 95.1187 31.21 95.1187 31.2099C95.1186 31.2099 95.1186 31.2097 95.1185 31.2094C95.1182 31.209 95.1179 31.2082 95.1174 31.2071C95.1164 31.205 95.1149 31.2017 95.1128 31.1973C95.1086 31.1884 95.1023 31.1749 95.0939 31.1569C95.077 31.1209 95.0515 31.0669 95.0176 30.996C94.9497 30.854 94.8483 30.644 94.7145 30.3735L95.1627 30.1519L95.611 29.9303C95.7468 30.205 95.8502 30.4191 95.9199 30.5649C95.9547 30.6378 95.9811 30.6936 95.9989 30.7314C96.0078 30.7504 96.0145 30.7648 96.0191 30.7746C96.0214 30.7795 96.0231 30.7832 96.0243 30.7858C96.0249 30.7871 96.0254 30.7881 96.0257 30.7888C96.0258 30.7891 96.026 30.7894 96.0261 30.7896C96.0261 30.7897 96.0261 30.7898 96.0262 30.7899C96.0262 30.7899 96.0262 30.7899 96.0262 30.7899C96.0262 30.79 96.0262 30.79 96.0262 30.79C96.0262 30.79 96.0262 30.79 95.5725 31ZM93.3933 26.773L92.9552 27.014C92.6687 26.4932 92.3558 25.9353 92.0177 25.347L92.4512 25.0978L92.8847 24.8487C93.2261 25.4427 93.5421 26.006 93.8314 26.5321L93.3933 26.773ZM90.4918 21.8317L90.068 22.097C89.7401 21.5731 89.3981 21.0379 89.0427 20.4943L89.4612 20.2207L89.8797 19.9471C90.2389 20.4964 90.5844 21.0372 90.9156 21.5664L90.4918 21.8317ZM87.304 17.0686L86.8977 17.36C86.5333 16.8518 86.1589 16.3419 85.7748 15.8323L86.1741 15.5313L86.5734 15.2304C86.9624 15.7466 87.3416 16.263 87.7103 16.7772L87.304 17.0686ZM83.7975 12.5443L83.415 12.8663C83.0092 12.3844 82.5952 11.9071 82.1734 11.4366L82.5457 11.1029L82.918 10.7691C83.347 11.2477 83.7678 11.7328 84.1799 12.2223L83.7975 12.5443ZM79.8993 8.35123L79.5523 8.71119C79.0971 8.27232 78.6349 7.84467 78.166 7.43032L78.4971 7.05566L78.8282 6.68101C79.3085 7.10546 79.7814 7.54295 80.2464 7.99128L79.8993 8.35123ZM75.5139 4.67561L75.224 5.08303C74.7093 4.71681 74.1884 4.36983 73.6619 4.04438L73.9249 3.61909L74.1878 3.19379C74.7337 3.53126 75.2725 3.89025 75.8037 4.26818L75.5139 4.67561ZM70.5396 1.86834L70.348 2.33016C69.7699 2.09026 69.1868 1.87972 68.5992 1.7011L68.7447 1.22272L68.8901 0.744336C69.5107 0.933006 70.1246 1.1548 70.7312 1.40652L70.5396 1.86834ZM65.0002 0.53044L64.9685 1.02943C64.6617 1.00993 64.3538 1 64.045 1V0.5V0C64.3752 0 64.7043 0.0106173 65.0319 0.0314473L65.0002 0.53044ZM64.045 0.5V1H63.0822V0.5V0H64.045V0.5ZM59.231 0.5V1H57.3054V0.5V0H59.231V0.5ZM53.4542 0.5V1H51.5285V0.5V0H53.4542V0.5ZM47.6773 0.5V1H45.7517V0.5V0H47.6773V0.5ZM41.9005 0.5V1H39.9749V0.5V0H41.9005V0.5ZM36.1237 0.5V1H34.1981V0.5V0H36.1237V0.5ZM30.3469 0.5V1H28.4213V0.5V0H30.3469V0.5ZM24.5701 0.5V1H22.6445V0.5V0H24.5701V0.5ZM18.7933 0.5V1H16.8676V0.5V0H18.7933V0.5ZM13.0164 0.5V1H11.0908V0.5V0H13.0164V0.5ZM7.23962 0.5V1H5.31402V0.5V0H7.23962V0.5ZM1.4628 0.5V1H0.500008V0.5V0H1.4628V0.5Z" fill="url(#paint0_linear_1_1437)"/>
<defs>
<linearGradient id="paint0_linear_1_1437" x1="180.5" y1="96.5" x2="0.499992" y2="96.5" gradientUnits="userSpaceOnUse">
<stop stop-color="#00F686"/>
<stop offset="1" stop-color="#B0FDFF"/>
</linearGradient>
</defs>
</svg>
