<svg width="97" height="32" viewBox="0 0 97 32" fill="none" xmlns="http://www.w3.org/2000/svg">
<path d="M0.0463601 0.710001C-0.0696198 0.459394 0.0395161 0.162218 0.290122 0.0462379C0.540728 -0.0697422 0.837904 0.0393944 0.953884 0.289999L0.500122 0.5L0.0463601 0.710001ZM95.5726 30.5H96.0726V31.5H95.5726V31V30.5ZM1.35808 1.12654C1.48046 1.37408 1.379 1.67396 1.13145 1.79634C0.883911 1.91873 0.584028 1.81726 0.461646 1.56972L0.909861 1.34813L1.35808 1.12654ZM2.24121 4.96793C2.10814 4.72597 2.19641 4.42194 2.43837 4.28887C2.68033 4.1558 2.98436 4.24407 3.11743 4.48603L2.67932 4.72698L2.24121 4.96793ZM4.05489 6.15299C4.19251 6.3924 4.10999 6.69804 3.87058 6.83565C3.63117 6.97327 3.32553 6.89075 3.18792 6.65134L3.62141 6.40216L4.05489 6.15299ZM5.15701 9.93361C5.01049 9.69954 5.08147 9.39102 5.31554 9.2445C5.54961 9.09799 5.85813 9.16896 6.00464 9.40303L5.58083 9.66832L5.15701 9.93361ZM7.02988 11.0057C7.18101 11.2368 7.11616 11.5467 6.88504 11.6978C6.65392 11.8489 6.34405 11.7841 6.19293 11.5529L6.6114 11.2793L7.02988 11.0057ZM8.36226 14.7228C8.20133 14.4984 8.2528 14.186 8.47721 14.0251C8.70162 13.8641 9.01399 13.9156 9.17491 14.14L8.76858 14.4314L8.36226 14.7228ZM10.2978 15.6677C10.464 15.8882 10.42 16.2017 10.1995 16.3679C9.97896 16.5342 9.66546 16.4901 9.49924 16.2696L9.89852 15.9687L10.2978 15.6677ZM11.8927 19.2777C11.7148 19.0665 11.7419 18.7511 11.9531 18.5732C12.1643 18.3954 12.4797 18.4224 12.6576 18.6337L12.2751 18.9557L11.8927 19.2777ZM13.8992 20.0634C14.0835 20.269 14.0662 20.5851 13.8606 20.7695C13.655 20.9538 13.3389 20.9365 13.1546 20.7309L13.5269 20.3971L13.8992 20.0634ZM15.8262 23.5087C15.6274 23.3171 15.6216 23.0005 15.8133 22.8017C16.005 22.6029 16.3215 22.5971 16.5203 22.7888L16.1733 23.1488L15.8262 23.5087ZM17.9066 24.0697C18.1135 24.2525 18.133 24.5685 17.9501 24.7754C17.7673 24.9824 17.4513 25.0019 17.2444 24.819L17.5755 24.4443L17.9066 24.0697ZM20.2689 27.2318C20.0439 27.0717 19.9912 26.7596 20.1513 26.5346C20.3114 26.3095 20.6235 26.2569 20.8486 26.417L20.5587 26.8244L20.2689 27.2318ZM22.4107 27.4556C22.6455 27.6008 22.7182 27.9089 22.573 28.1438C22.4278 28.3787 22.1197 28.4514 21.8848 28.3062L22.1477 27.8809L22.4107 27.4556ZM25.3414 30.0935C25.0863 29.9876 24.9653 29.6951 25.0712 29.44C25.177 29.185 25.4696 29.064 25.7246 29.1698L25.533 29.6317L25.3414 30.0935ZM27.4734 29.7989C27.7376 29.8792 27.8866 30.1585 27.8063 30.4227C27.726 30.6869 27.4467 30.836 27.1825 30.7557L27.3279 30.2773L27.4734 29.7989ZM31.0407 31.4686C30.7651 31.451 30.5559 31.2134 30.5734 30.9378C30.5909 30.6623 30.8285 30.453 31.1041 30.4706L31.0724 30.9696L31.0407 31.4686ZM32.9904 30.5C33.2666 30.5 33.4904 30.7239 33.4904 31C33.4904 31.2761 33.2666 31.5 32.9904 31.5V31V30.5ZM36.8416 31.5C36.5655 31.5 36.3416 31.2761 36.3416 31C36.3416 30.7239 36.5655 30.5 36.8416 30.5V31V31.5ZM38.7672 30.5C39.0434 30.5 39.2672 30.7239 39.2672 31C39.2672 31.2761 39.0434 31.5 38.7672 31.5V31V30.5ZM42.6185 31.5C42.3423 31.5 42.1185 31.2761 42.1185 31C42.1185 30.7239 42.3423 30.5 42.6185 30.5V31V31.5ZM44.5441 30.5C44.8202 30.5 45.0441 30.7239 45.0441 31C45.0441 31.2761 44.8202 31.5 44.5441 31.5V31V30.5ZM48.3953 31.5C48.1191 31.5 47.8953 31.2761 47.8953 31C47.8953 30.7239 48.1191 30.5 48.3953 30.5V31V31.5ZM50.3209 30.5C50.597 30.5 50.8209 30.7239 50.8209 31C50.8209 31.2761 50.597 31.5 50.3209 31.5V31V30.5ZM54.1721 31.5C53.8959 31.5 53.6721 31.2761 53.6721 31C53.6721 30.7239 53.8959 30.5 54.1721 30.5V31V31.5ZM56.0977 30.5C56.3738 30.5 56.5977 30.7239 56.5977 31C56.5977 31.2761 56.3738 31.5 56.0977 31.5V31V30.5ZM59.9489 31.5C59.6728 31.5 59.4489 31.2761 59.4489 31C59.4489 30.7239 59.6728 30.5 59.9489 30.5V31V31.5ZM61.8745 30.5C62.1506 30.5 62.3745 30.7239 62.3745 31C62.3745 31.2761 62.1506 31.5 61.8745 31.5V31V30.5ZM65.7257 31.5C65.4496 31.5 65.2257 31.2761 65.2257 31C65.2257 30.7239 65.4496 30.5 65.7257 30.5V31V31.5ZM67.6513 30.5C67.9275 30.5 68.1513 30.7239 68.1513 31C68.1513 31.2761 67.9275 31.5 67.6513 31.5V31V30.5ZM71.5025 31.5C71.2264 31.5 71.0025 31.2761 71.0025 31C71.0025 30.7239 71.2264 30.5 71.5025 30.5V31V31.5ZM73.4281 30.5C73.7043 30.5 73.9281 30.7239 73.9281 31C73.9281 31.2761 73.7043 31.5 73.4281 31.5V31V30.5ZM77.2794 31.5C77.0032 31.5 76.7794 31.2761 76.7794 31C76.7794 30.7239 77.0032 30.5 77.2794 30.5V31V31.5ZM79.205 30.5C79.4811 30.5 79.705 30.7239 79.705 31C79.705 31.2761 79.4811 31.5 79.205 31.5V31V30.5ZM83.0562 31.5C82.78 31.5 82.5562 31.2761 82.5562 31C82.5562 30.7239 82.78 30.5 83.0562 30.5V31V31.5ZM84.9818 30.5C85.2579 30.5 85.4818 30.7239 85.4818 31C85.4818 31.2761 85.2579 31.5 84.9818 31.5V31V30.5ZM88.833 31.5C88.5568 31.5 88.333 31.2761 88.333 31C88.333 30.7239 88.5568 30.5 88.833 30.5V31V31.5ZM90.7586 30.5C91.0347 30.5 91.2586 30.7239 91.2586 31C91.2586 31.2761 91.0347 31.5 90.7586 31.5V31V30.5ZM94.6098 31.5C94.3337 31.5 94.1098 31.2761 94.1098 31C94.1098 30.7239 94.3337 30.5 94.6098 30.5V31V31.5ZM0.500122 0.5C0.953884 0.289999 0.95388 0.289991 0.953876 0.289982C0.953875 0.289982 0.953872 0.289974 0.953871 0.289972C0.953869 0.289967 0.953869 0.289967 0.953871 0.289972C0.953875 0.289982 0.953888 0.290009 0.95391 0.290054C0.953952 0.290148 0.954029 0.290314 0.95414 0.290552C0.954362 0.291031 0.95472 0.291801 0.955214 0.292866C0.956202 0.294992 0.957735 0.298288 0.959809 0.302734C0.963957 0.311628 0.97027 0.32513 0.978729 0.343122C0.995646 0.37911 1.02114 0.43306 1.05505 0.50403C1.12286 0.645975 1.22432 0.855988 1.35808 1.12654L0.909861 1.34813L0.461646 1.56972C0.32581 1.29497 0.222396 1.08092 0.152741 0.935122C0.117912 0.862223 0.0915217 0.806385 0.0737364 0.768551C0.0648437 0.749634 0.058102 0.735218 0.0535324 0.72542C0.0512476 0.720522 0.0495058 0.716778 0.0483095 0.714203C0.0477114 0.712915 0.0472497 0.71192 0.0469247 0.711218C0.0467621 0.710869 0.0466338 0.71059 0.0465397 0.710388C0.0464927 0.710287 0.0464542 0.710203 0.0464242 0.710138C0.0464093 0.710106 0.0463964 0.710079 0.0463858 0.710056C0.0463804 0.710045 0.046374 0.71003 0.0463713 0.710024C0.0463654 0.710012 0.0463601 0.710001 0.500122 0.5ZM2.67932 4.72698L3.11743 4.48603C3.40387 5.00685 3.71675 5.56473 4.05489 6.15299L3.62141 6.40216L3.18792 6.65134C2.84648 6.05733 2.53051 5.49396 2.24121 4.96793L2.67932 4.72698ZM5.58083 9.66832L6.00464 9.40303C6.33253 9.92686 6.67446 10.4621 7.02988 11.0057L6.6114 11.2793L6.19293 11.5529C5.83372 11.0036 5.48823 10.4628 5.15701 9.93361L5.58083 9.66832ZM8.76858 14.4314L9.17491 14.14C9.53929 14.6482 9.91373 15.1581 10.2978 15.6677L9.89852 15.9687L9.49924 16.2696C9.11017 15.7534 8.73104 15.237 8.36226 14.7228L8.76858 14.4314ZM12.2751 18.9557L12.6576 18.6337C13.0634 19.1156 13.4774 19.5929 13.8992 20.0634L13.5269 20.3971L13.1546 20.7309C12.7256 20.2523 12.3048 19.7672 11.8927 19.2777L12.2751 18.9557ZM16.1733 23.1488L16.5203 22.7888C16.9755 23.2277 17.4377 23.6553 17.9066 24.0697L17.5755 24.4443L17.2444 24.819C16.7641 24.3945 16.2912 23.957 15.8262 23.5087L16.1733 23.1488ZM20.5587 26.8244L20.8486 26.417C21.3633 26.7832 21.8842 27.1302 22.4107 27.4556L22.1477 27.8809L21.8848 28.3062C21.3389 27.9687 20.8001 27.6097 20.2689 27.2318L20.5587 26.8244ZM25.533 29.6317L25.7246 29.1698C26.3027 29.4097 26.8858 29.6203 27.4734 29.7989L27.3279 30.2773L27.1825 30.7557C26.5619 30.567 25.948 30.3452 25.3414 30.0935L25.533 29.6317ZM31.0724 30.9696L31.1041 30.4706C31.4109 30.4901 31.7188 30.5 32.0276 30.5V31V31.5C31.6974 31.5 31.3683 31.4894 31.0407 31.4686L31.0724 30.9696ZM32.0276 31V30.5H32.9904V31V31.5H32.0276V31ZM36.8416 31V30.5H38.7672V31V31.5H36.8416V31ZM42.6185 31V30.5H44.5441V31V31.5H42.6185V31ZM48.3953 31V30.5H50.3209V31V31.5H48.3953V31ZM54.1721 31V30.5H56.0977V31V31.5H54.1721V31ZM59.9489 31V30.5H61.8745V31V31.5H59.9489V31ZM65.7257 31V30.5H67.6513V31V31.5H65.7257V31ZM71.5025 31V30.5H73.4281V31V31.5H71.5025V31ZM77.2794 31V30.5H79.205V31V31.5H77.2794V31ZM83.0562 31V30.5H84.9818V31V31.5H83.0562V31ZM88.833 31V30.5H90.7586V31V31.5H88.833V31ZM94.6098 31V30.5H95.5726V31V31.5H94.6098V31Z" fill="url(#paint0_linear_1_1455)"/>
<defs>
<linearGradient id="paint0_linear_1_1455" x1="-84.4274" y1="-65" x2="95.5726" y2="-65" gradientUnits="userSpaceOnUse">
<stop stop-color="#00F686"/>
<stop offset="1" stop-color="#B0FDFF"/>
</linearGradient>
</defs>
</svg>
