<svg width="97" height="32" viewBox="0 0 97 32" fill="none" xmlns="http://www.w3.org/2000/svg">
<path d="M0.0463601 30.79C-0.0696198 31.0406 0.0395161 31.3378 0.290122 31.4538C0.540728 31.5697 0.837904 31.4606 0.953884 31.21L0.500122 31L0.0463601 30.79ZM95.5726 1H96.0726V0H95.5726V0.5V1ZM1.35808 30.3735C1.48046 30.1259 1.379 29.826 1.13145 29.7037C0.883911 29.5813 0.584028 29.6827 0.461646 29.9303L0.909861 30.1519L1.35808 30.3735ZM2.24121 26.5321C2.10814 26.774 2.19641 27.0781 2.43837 27.2111C2.68033 27.3442 2.98436 27.2559 3.11743 27.014L2.67932 26.773L2.24121 26.5321ZM4.05489 25.347C4.19251 25.1076 4.10999 24.802 3.87058 24.6643C3.63117 24.5267 3.32553 24.6093 3.18792 24.8487L3.62141 25.0978L4.05489 25.347ZM5.15701 21.5664C5.01049 21.8005 5.08147 22.109 5.31554 22.2555C5.54961 22.402 5.85813 22.331 6.00464 22.097L5.58083 21.8317L5.15701 21.5664ZM7.02988 20.4943C7.18101 20.2632 7.11616 19.9533 6.88504 19.8022C6.65392 19.6511 6.34405 19.7159 6.19293 19.9471L6.6114 20.2207L7.02988 20.4943ZM8.36226 16.7772C8.20133 17.0016 8.2528 17.314 8.47721 17.4749C8.70162 17.6359 9.01399 17.5844 9.17491 17.36L8.76858 17.0686L8.36226 16.7772ZM10.2978 15.8323C10.464 15.6118 10.42 15.2983 10.1995 15.1321C9.97896 14.9658 9.66546 15.0099 9.49924 15.2304L9.89852 15.5313L10.2978 15.8323ZM11.8927 12.2223C11.7148 12.4335 11.7419 12.7489 11.9531 12.9268C12.1643 13.1046 12.4797 13.0776 12.6576 12.8663L12.2751 12.5443L11.8927 12.2223ZM13.8992 11.4366C14.0835 11.231 14.0662 10.9149 13.8606 10.7305C13.655 10.5462 13.3389 10.5635 13.1546 10.7691L13.5269 11.1029L13.8992 11.4366ZM15.8262 7.99128C15.6274 8.18294 15.6216 8.49946 15.8133 8.69827C16.005 8.89706 16.3215 8.90285 16.5203 8.71119L16.1733 8.35123L15.8262 7.99128ZM17.9066 7.43032C18.1135 7.24745 18.133 6.93147 17.9501 6.72455C17.7673 6.51764 17.4513 6.49814 17.2444 6.68101L17.5755 7.05566L17.9066 7.43032ZM20.2689 4.26818C20.0439 4.42825 19.9912 4.74043 20.1513 4.96544C20.3114 5.19046 20.6235 5.2431 20.8486 5.08303L20.5587 4.67561L20.2689 4.26818ZM22.4107 4.04438C22.6455 3.89918 22.7182 3.59106 22.573 3.35618C22.4278 3.12129 22.1197 3.04859 21.8848 3.19379L22.1477 3.61909L22.4107 4.04438ZM25.3414 1.40652C25.0863 1.51236 24.9653 1.80492 25.0712 2.05998C25.177 2.31503 25.4696 2.436 25.7246 2.33016L25.533 1.86834L25.3414 1.40652ZM27.4734 1.7011C27.7376 1.62078 27.8866 1.34149 27.8063 1.07729C27.726 0.813084 27.4467 0.664017 27.1825 0.744336L27.3279 1.22272L27.4734 1.7011ZM31.0407 0.0314473C30.7651 0.0489657 30.5559 0.286574 30.5734 0.56216C30.5909 0.837746 30.8285 1.04695 31.1041 1.02943L31.0724 0.53044L31.0407 0.0314473ZM32.9904 1C33.2666 1 33.4904 0.776142 33.4904 0.5C33.4904 0.223858 33.2666 0 32.9904 0V0.5V1ZM36.8416 0C36.5655 0 36.3416 0.223858 36.3416 0.5C36.3416 0.776142 36.5655 1 36.8416 1V0.5V0ZM38.7672 1C39.0434 1 39.2672 0.776142 39.2672 0.5C39.2672 0.223858 39.0434 0 38.7672 0V0.5V1ZM42.6185 0C42.3423 0 42.1185 0.223858 42.1185 0.5C42.1185 0.776142 42.3423 1 42.6185 1V0.5V0ZM44.5441 1C44.8202 1 45.0441 0.776142 45.0441 0.5C45.0441 0.223858 44.8202 0 44.5441 0V0.5V1ZM48.3953 0C48.1191 0 47.8953 0.223858 47.8953 0.5C47.8953 0.776142 48.1191 1 48.3953 1V0.5V0ZM50.3209 1C50.597 1 50.8209 0.776142 50.8209 0.5C50.8209 0.223858 50.597 0 50.3209 0V0.5V1ZM54.1721 0C53.8959 0 53.6721 0.223858 53.6721 0.5C53.6721 0.776142 53.8959 1 54.1721 1V0.5V0ZM56.0977 1C56.3738 1 56.5977 0.776142 56.5977 0.5C56.5977 0.223858 56.3738 0 56.0977 0V0.5V1ZM59.9489 0C59.6728 0 59.4489 0.223858 59.4489 0.5C59.4489 0.776142 59.6728 1 59.9489 1V0.5V0ZM61.8745 1C62.1506 1 62.3745 0.776142 62.3745 0.5C62.3745 0.223858 62.1506 0 61.8745 0V0.5V1ZM65.7257 0C65.4496 0 65.2257 0.223858 65.2257 0.5C65.2257 0.776142 65.4496 1 65.7257 1V0.5V0ZM67.6513 1C67.9275 1 68.1513 0.776142 68.1513 0.5C68.1513 0.223858 67.9275 0 67.6513 0V0.5V1ZM71.5025 0C71.2264 0 71.0025 0.223858 71.0025 0.5C71.0025 0.776142 71.2264 1 71.5025 1V0.5V0ZM73.4281 1C73.7043 1 73.9281 0.776142 73.9281 0.5C73.9281 0.223858 73.7043 0 73.4281 0V0.5V1ZM77.2794 0C77.0032 0 76.7794 0.223858 76.7794 0.5C76.7794 0.776142 77.0032 1 77.2794 1V0.5V0ZM79.205 1C79.4811 1 79.705 0.776142 79.705 0.5C79.705 0.223858 79.4811 0 79.205 0V0.5V1ZM83.0562 0C82.78 0 82.5562 0.223858 82.5562 0.5C82.5562 0.776142 82.78 1 83.0562 1V0.5V0ZM84.9818 1C85.2579 1 85.4818 0.776142 85.4818 0.5C85.4818 0.223858 85.2579 0 84.9818 0V0.5V1ZM88.833 0C88.5568 0 88.333 0.223858 88.333 0.5C88.333 0.776142 88.5568 1 88.833 1V0.5V0ZM90.7586 1C91.0347 1 91.2586 0.776142 91.2586 0.5C91.2586 0.223858 91.0347 0 90.7586 0V0.5V1ZM94.6098 0C94.3337 0 94.1098 0.223858 94.1098 0.5C94.1098 0.776142 94.3337 1 94.6098 1V0.5V0ZM0.500122 31C0.953884 31.21 0.95388 31.21 0.953876 31.21C0.953875 31.21 0.953872 31.21 0.953871 31.21C0.953869 31.21 0.953869 31.21 0.953871 31.21C0.953875 31.21 0.953888 31.21 0.95391 31.2099C0.953952 31.2099 0.954029 31.2097 0.95414 31.2094C0.954362 31.209 0.95472 31.2082 0.955214 31.2071C0.956202 31.205 0.957735 31.2017 0.959809 31.1973C0.963957 31.1884 0.97027 31.1749 0.978729 31.1569C0.995646 31.1209 1.02114 31.0669 1.05505 30.996C1.12286 30.854 1.22432 30.644 1.35808 30.3735L0.909861 30.1519L0.461646 29.9303C0.32581 30.205 0.222396 30.4191 0.152741 30.5649C0.117912 30.6378 0.0915217 30.6936 0.0737364 30.7314C0.0648437 30.7504 0.058102 30.7648 0.0535324 30.7746C0.0512476 30.7795 0.0495058 30.7832 0.0483095 30.7858C0.0477114 30.7871 0.0472497 30.7881 0.0469247 30.7888C0.0467621 30.7891 0.0466338 30.7894 0.0465397 30.7896C0.0464927 30.7897 0.0464542 30.7898 0.0464242 30.7899C0.0464093 30.7899 0.0463964 30.7899 0.0463858 30.7899C0.0463804 30.79 0.046374 30.79 0.0463713 30.79C0.0463654 30.79 0.0463601 30.79 0.500122 31ZM2.67932 26.773L3.11743 27.014C3.40387 26.4932 3.71675 25.9353 4.05489 25.347L3.62141 25.0978L3.18792 24.8487C2.84648 25.4427 2.53051 26.006 2.24121 26.5321L2.67932 26.773ZM5.58083 21.8317L6.00464 22.097C6.33253 21.5731 6.67446 21.0379 7.02988 20.4943L6.6114 20.2207L6.19293 19.9471C5.83372 20.4964 5.48823 21.0372 5.15701 21.5664L5.58083 21.8317ZM8.76858 17.0686L9.17491 17.36C9.53929 16.8518 9.91373 16.3419 10.2978 15.8323L9.89852 15.5313L9.49924 15.2304C9.11017 15.7466 8.73104 16.263 8.36226 16.7772L8.76858 17.0686ZM12.2751 12.5443L12.6576 12.8663C13.0634 12.3844 13.4774 11.9071 13.8992 11.4366L13.5269 11.1029L13.1546 10.7691C12.7256 11.2477 12.3048 11.7328 11.8927 12.2223L12.2751 12.5443ZM16.1733 8.35123L16.5203 8.71119C16.9755 8.27232 17.4377 7.84467 17.9066 7.43032L17.5755 7.05566L17.2444 6.68101C16.7641 7.10546 16.2912 7.54295 15.8262 7.99128L16.1733 8.35123ZM20.5587 4.67561L20.8486 5.08303C21.3633 4.71681 21.8842 4.36983 22.4107 4.04438L22.1477 3.61909L21.8848 3.19379C21.3389 3.53126 20.8001 3.89025 20.2689 4.26818L20.5587 4.67561ZM25.533 1.86834L25.7246 2.33016C26.3027 2.09026 26.8858 1.87972 27.4734 1.7011L27.3279 1.22272L27.1825 0.744336C26.5619 0.933006 25.948 1.1548 25.3414 1.40652L25.533 1.86834ZM31.0724 0.53044L31.1041 1.02943C31.4109 1.00993 31.7188 1 32.0276 1V0.5V0C31.6974 0 31.3683 0.0106173 31.0407 0.0314473L31.0724 0.53044ZM32.0276 0.5V1H32.9904V0.5V0H32.0276V0.5ZM36.8416 0.5V1H38.7672V0.5V0H36.8416V0.5ZM42.6185 0.5V1H44.5441V0.5V0H42.6185V0.5ZM48.3953 0.5V1H50.3209V0.5V0H48.3953V0.5ZM54.1721 0.5V1H56.0977V0.5V0H54.1721V0.5ZM59.9489 0.5V1H61.8745V0.5V0H59.9489V0.5ZM65.7257 0.5V1H67.6513V0.5V0H65.7257V0.5ZM71.5025 0.5V1H73.4281V0.5V0H71.5025V0.5ZM77.2794 0.5V1H79.205V0.5V0H77.2794V0.5ZM83.0562 0.5V1H84.9818V0.5V0H83.0562V0.5ZM88.833 0.5V1H90.7586V0.5V0H88.833V0.5ZM94.6098 0.5V1H95.5726V0.5V0H94.6098V0.5Z" fill="url(#paint0_linear_1_1456)"/>
<defs>
<linearGradient id="paint0_linear_1_1456" x1="-84.4274" y1="96.5" x2="95.5726" y2="96.5" gradientUnits="userSpaceOnUse">
<stop stop-color="#00F686"/>
<stop offset="1" stop-color="#B0FDFF"/>
</linearGradient>
</defs>
</svg>
