<svg width="20" height="20" viewBox="0 0 20 20" fill="none" xmlns="http://www.w3.org/2000/svg">
<path d="M10 20L1 15V5L10 0L19 5V15L10 20ZM7.1 7.25C7.48333 6.85 7.925 6.54167 8.425 6.325C8.925 6.10833 9.45 6 10 6C10.55 6 11.075 6.10833 11.575 6.325C12.075 6.54167 12.5167 6.85 12.9 7.25L15.9 5.575L10 2.3L4.1 5.575L7.1 7.25ZM9 17.15V13.875C8.1 13.6417 7.375 13.1667 6.825 12.45C6.275 11.7333 6 10.9167 6 10C6 9.81667 6.00833 9.64583 6.025 9.4875C6.04167 9.32917 6.075 9.16667 6.125 9L3 7.25V13.825L9 17.15ZM10 12C10.55 12 11.0208 11.8042 11.4125 11.4125C11.8042 11.0208 12 10.55 12 10C12 9.45 11.8042 8.97917 11.4125 8.5875C11.0208 8.19583 10.55 8 10 8C9.45 8 8.97917 8.19583 8.5875 8.5875C8.19583 8.97917 8 9.45 8 10C8 10.55 8.19583 11.0208 8.5875 11.4125C8.97917 11.8042 9.45 12 10 12ZM11 17.15L17 13.825V7.25L13.875 9C13.925 9.16667 13.9583 9.32917 13.975 9.4875C13.9917 9.64583 14 9.81667 14 10C14 10.9167 13.725 11.7333 13.175 12.45C12.625 13.1667 11.9 13.6417 11 13.875V17.15Z" fill="url(#paint0_linear_1_1472)"/>
<defs>
<linearGradient id="paint0_linear_1_1472" x1="16.3" y1="0.624999" x2="-3.47305" y2="14.0241" gradientUnits="userSpaceOnUse">
<stop stop-color="#00F686"/>
<stop offset="1" stop-color="#B0FDFF"/>
</linearGradient>
</defs>
</svg>
