<svg width="20" height="20" viewBox="0 0 20 20" fill="none" xmlns="http://www.w3.org/2000/svg">
<path d="M8.95 13.55L14.6 7.9L13.175 6.475L8.95 10.7L6.85 8.6L5.425 10.025L8.95 13.55ZM10 20C7.68333 19.4167 5.77083 18.0875 4.2625 16.0125C2.75417 13.9375 2 11.6333 2 9.1V3L10 0L18 3V9.1C18 11.6333 17.2458 13.9375 15.7375 16.0125C14.2292 18.0875 12.3167 19.4167 10 20ZM10 17.9C11.7333 17.35 13.1667 16.25 14.3 14.6C15.4333 12.95 16 11.1167 16 9.1V4.375L10 2.125L4 4.375V9.1C4 11.1167 4.56667 12.95 5.7 14.6C6.83333 16.25 8.26667 17.35 10 17.9Z" fill="url(#paint0_linear_1_1499)"/>
<defs>
<linearGradient id="paint0_linear_1_1499" x1="15.6" y1="0.624999" x2="-3.21898" y2="11.9607" gradientUnits="userSpaceOnUse">
<stop stop-color="#00F686"/>
<stop offset="1" stop-color="#B0FDFF"/>
</linearGradient>
</defs>
</svg>
