<svg width="20" height="20" viewBox="0 0 20 20" fill="none" xmlns="http://www.w3.org/2000/svg">
<path d="M1.81818 18C1.31818 18 0.890152 17.8157 0.534091 17.4471C0.17803 17.0784 0 16.6353 0 16.1176C0 15.6 0.17803 15.1569 0.534091 14.7882C0.890152 14.4196 1.31818 14.2353 1.81818 14.2353C1.90909 14.2353 1.98864 14.2353 2.05682 14.2353C2.125 14.2353 2.19697 14.251 2.27273 14.2824L6.40909 10C6.37879 9.92157 6.36364 9.84706 6.36364 9.77647C6.36364 9.70588 6.36364 9.62353 6.36364 9.52941C6.36364 9.01176 6.54167 8.56863 6.89773 8.2C7.25379 7.83137 7.68182 7.64706 8.18182 7.64706C8.68182 7.64706 9.10985 7.83137 9.46591 8.2C9.82197 8.56863 10 9.01176 10 9.52941C10 9.56078 9.98485 9.71765 9.95455 10L12.2727 12.4C12.3485 12.3686 12.4205 12.3529 12.4886 12.3529C12.5568 12.3529 12.6364 12.3529 12.7273 12.3529C12.8182 12.3529 12.8977 12.3529 12.9659 12.3529C13.0341 12.3529 13.1061 12.3686 13.1818 12.4L16.4091 9.05882C16.3788 8.98039 16.3636 8.90588 16.3636 8.83529C16.3636 8.76471 16.3636 8.68235 16.3636 8.58824C16.3636 8.07059 16.5417 7.62745 16.8977 7.25882C17.2538 6.8902 17.6818 6.70588 18.1818 6.70588C18.6818 6.70588 19.1098 6.8902 19.4659 7.25882C19.822 7.62745 20 8.07059 20 8.58824C20 9.10588 19.822 9.54902 19.4659 9.91765C19.1098 10.2863 18.6818 10.4706 18.1818 10.4706C18.0909 10.4706 18.0114 10.4706 17.9432 10.4706C17.875 10.4706 17.803 10.4549 17.7273 10.4235L14.5 13.7647C14.5303 13.8431 14.5455 13.9176 14.5455 13.9882C14.5455 14.0588 14.5455 14.1412 14.5455 14.2353C14.5455 14.7529 14.3674 15.1961 14.0114 15.5647C13.6553 15.9333 13.2273 16.1176 12.7273 16.1176C12.2273 16.1176 11.7992 15.9333 11.4432 15.5647C11.0871 15.1961 10.9091 14.7529 10.9091 14.2353C10.9091 14.1412 10.9091 14.0588 10.9091 13.9882C10.9091 13.9176 10.9242 13.8431 10.9545 13.7647L8.63636 11.3647C8.56061 11.3961 8.48864 11.4118 8.42045 11.4118C8.35227 11.4118 8.27273 11.4118 8.18182 11.4118C8.15152 11.4118 8 11.3961 7.72727 11.3647L3.59091 15.6471C3.62121 15.7255 3.63636 15.8 3.63636 15.8706C3.63636 15.9412 3.63636 16.0235 3.63636 16.1176C3.63636 16.6353 3.45833 17.0784 3.10227 17.4471C2.74621 17.8157 2.31818 18 1.81818 18ZM2.72727 8.56471L2.15909 7.29412L0.931818 6.70588L2.15909 6.11765L2.72727 4.84706L3.29545 6.11765L4.52273 6.70588L3.29545 7.29412L2.72727 8.56471ZM12.7273 7.64706L11.8636 5.71765L10 4.82353L11.8636 3.92941L12.7273 2L13.5909 3.92941L15.4545 4.82353L13.5909 5.71765L12.7273 7.64706Z" fill="url(#paint0_linear_1_1508)"/>
<defs>
<linearGradient id="paint0_linear_1_1508" x1="15.4545" y1="2.58824" x2="-3.60746" y2="16.4515" gradientUnits="userSpaceOnUse">
<stop stop-color="#00F686"/>
<stop offset="1" stop-color="#B0FDFF"/>
</linearGradient>
</defs>
</svg>
