<svg width="24" height="24" viewBox="0 0 24 24" fill="none" xmlns="http://www.w3.org/2000/svg">
<path d="M2.625 20.75V3.25C2.625 3.25 2.625 3.71354 2.625 4.64062C2.625 5.56771 2.625 6.77083 2.625 8.25V15.75C2.625 17.2292 2.625 18.4323 2.625 19.3594C2.625 20.2865 2.625 20.75 2.625 20.75ZM2.625 23.25C1.9375 23.25 1.34896 23.0052 0.859375 22.5156C0.369792 22.026 0.125 21.4375 0.125 20.75V3.25C0.125 2.5625 0.369792 1.97396 0.859375 1.48438C1.34896 0.994792 1.9375 0.75 2.625 0.75H20.125C20.8125 0.75 21.401 0.994792 21.8906 1.48438C22.3802 1.97396 22.625 2.5625 22.625 3.25V6.375H20.125V3.25H2.625V20.75H20.125V17.625H22.625V20.75C22.625 21.4375 22.3802 22.026 21.8906 22.5156C21.401 23.0052 20.8125 23.25 20.125 23.25H2.625ZM12.625 18.25C11.9375 18.25 11.349 18.0052 10.8594 17.5156C10.3698 17.026 10.125 16.4375 10.125 15.75V8.25C10.125 7.5625 10.3698 6.97396 10.8594 6.48438C11.349 5.99479 11.9375 5.75 12.625 5.75H21.375C22.0625 5.75 22.651 5.99479 23.1406 6.48438C23.6302 6.97396 23.875 7.5625 23.875 8.25V15.75C23.875 16.4375 23.6302 17.026 23.1406 17.5156C22.651 18.0052 22.0625 18.25 21.375 18.25H12.625ZM21.375 15.75V8.25H12.625V15.75H21.375ZM16.375 13.875C16.8958 13.875 17.3385 13.6927 17.7031 13.3281C18.0677 12.9635 18.25 12.5208 18.25 12C18.25 11.4792 18.0677 11.0365 17.7031 10.6719C17.3385 10.3073 16.8958 10.125 16.375 10.125C15.8542 10.125 15.4115 10.3073 15.0469 10.6719C14.6823 11.0365 14.5 11.4792 14.5 12C14.5 12.5208 14.6823 12.9635 15.0469 13.3281C15.4115 13.6927 15.8542 13.875 16.375 13.875Z" fill="url(#paint0_linear_1_1518)"/>
<defs>
<linearGradient id="paint0_linear_1_1518" x1="20.3125" y1="1.45312" x2="-3.01946" y2="19.9967" gradientUnits="userSpaceOnUse">
<stop stop-color="#00F686"/>
<stop offset="1" stop-color="#B0FDFF"/>
</linearGradient>
</defs>
</svg>
