<svg width="24" height="24" viewBox="0 0 24 24" fill="none" xmlns="http://www.w3.org/2000/svg">
<path d="M12 23.25C8.85417 23.25 6.19271 22.7656 4.01562 21.7969C1.83854 20.8281 0.75 19.6458 0.75 18.25V5.75C0.75 4.375 1.84896 3.19792 4.04688 2.21875C6.24479 1.23958 8.89583 0.75 12 0.75C15.1042 0.75 17.7552 1.23958 19.9531 2.21875C22.151 3.19792 23.25 4.375 23.25 5.75V18.25C23.25 19.6458 22.1615 20.8281 19.9844 21.7969C17.8073 22.7656 15.1458 23.25 12 23.25ZM12 8.28125C13.8542 8.28125 15.7188 8.01562 17.5938 7.48438C19.4688 6.95312 20.5208 6.38542 20.75 5.78125C20.5208 5.17708 19.474 4.60417 17.6094 4.0625C15.7448 3.52083 13.875 3.25 12 3.25C10.1042 3.25 8.24479 3.51562 6.42188 4.04688C4.59896 4.57812 3.54167 5.15625 3.25 5.78125C3.54167 6.40625 4.59896 6.97917 6.42188 7.5C8.24479 8.02083 10.1042 8.28125 12 8.28125ZM12 14.5C12.875 14.5 13.7188 14.4583 14.5312 14.375C15.3438 14.2917 16.1198 14.1719 16.8594 14.0156C17.599 13.8594 18.2969 13.6667 18.9531 13.4375C19.6094 13.2083 20.2083 12.9479 20.75 12.6562V8.90625C20.2083 9.19792 19.6094 9.45833 18.9531 9.6875C18.2969 9.91667 17.599 10.1094 16.8594 10.2656C16.1198 10.4219 15.3438 10.5417 14.5312 10.625C13.7188 10.7083 12.875 10.75 12 10.75C11.125 10.75 10.2708 10.7083 9.4375 10.625C8.60417 10.5417 7.81771 10.4219 7.07812 10.2656C6.33854 10.1094 5.64583 9.91667 5 9.6875C4.35417 9.45833 3.77083 9.19792 3.25 8.90625V12.6562C3.77083 12.9479 4.35417 13.2083 5 13.4375C5.64583 13.6667 6.33854 13.8594 7.07812 14.0156C7.81771 14.1719 8.60417 14.2917 9.4375 14.375C10.2708 14.4583 11.125 14.5 12 14.5ZM12 20.75C12.9583 20.75 13.9323 20.6771 14.9219 20.5312C15.9115 20.3854 16.8229 20.1927 17.6562 19.9531C18.4896 19.7135 19.1875 19.4427 19.75 19.1406C20.3125 18.8385 20.6458 18.5312 20.75 18.2188V15.1562C20.2083 15.4479 19.6094 15.7083 18.9531 15.9375C18.2969 16.1667 17.599 16.3594 16.8594 16.5156C16.1198 16.6719 15.3438 16.7917 14.5312 16.875C13.7188 16.9583 12.875 17 12 17C11.125 17 10.2708 16.9583 9.4375 16.875C8.60417 16.7917 7.81771 16.6719 7.07812 16.5156C6.33854 16.3594 5.64583 16.1667 5 15.9375C4.35417 15.7083 3.77083 15.4479 3.25 15.1562V18.25C3.35417 18.5625 3.68229 18.8646 4.23438 19.1562C4.78646 19.4479 5.47917 19.7135 6.3125 19.9531C7.14583 20.1927 8.0625 20.3854 9.0625 20.5312C10.0625 20.6771 11.0417 20.75 12 20.75Z" fill="url(#paint0_linear_1_1526)"/>
<defs>
<linearGradient id="paint0_linear_1_1526" x1="19.875" y1="1.45312" x2="-3.14224" y2="18.7837" gradientUnits="userSpaceOnUse">
<stop stop-color="#00F686"/>
<stop offset="1" stop-color="#B0FDFF"/>
</linearGradient>
</defs>
</svg>
