<svg width="21" height="23" viewBox="0 0 21 23" fill="none" xmlns="http://www.w3.org/2000/svg">
<path d="M19.9464 0.965427C19.8505 0.798493 19.7316 0.647088 19.5935 0.515094C19.4516 0.379217 19.2906 0.270515 19.118 0.185107C18.9454 0.0996989 18.7613 0.0453482 18.5695 0.0181729C18.3854 -0.00900237 18.2013 -0.00512001 18.0172 0.0259375C17.7756 0.0647593 17.5416 0.15405 17.3307 0.286045C17.1696 0.386981 17.0239 0.511211 16.9011 0.650969C16.7707 0.798492 16.6633 0.969309 16.5828 1.15177C14.5347 5.73663 12.4828 10.3215 10.4348 14.9102C10.3274 15.1509 10.22 15.3916 10.1126 15.6323C10.0052 15.3916 9.8978 15.1509 9.79041 14.9102C7.74234 10.3254 5.69043 5.74051 3.64235 1.15177C3.56181 0.969309 3.45442 0.798492 3.32402 0.650969C3.20129 0.507329 3.05555 0.383099 2.89446 0.286045C2.68352 0.15405 2.44956 0.0647593 2.20794 0.0259375C2.02768 -0.00512001 1.83974 -0.00900237 1.65565 0.0181729C1.46772 0.0453482 1.27978 0.103581 1.10719 0.185107C0.934599 0.270515 0.773518 0.383099 0.631611 0.515094C0.493538 0.647088 0.374637 0.798493 0.278754 0.965427C0.152187 1.18671 0.0639788 1.43517 0.0256254 1.69139C-0.0050574 1.8855 -0.00889438 2.08349 0.017953 2.2776C0.0448004 2.4756 0.0984946 2.67359 0.179037 2.85605C2.89063 8.9239 5.60222 14.9879 8.31381 21.0557C8.47873 21.4207 8.73186 21.7079 9.03869 21.902C9.34551 22.0962 9.69836 22.201 10.0589 22.201C10.0589 22.201 10.0666 22.201 10.0704 22.201C10.0704 22.201 10.0781 22.201 10.0819 22.201C10.0972 22.201 10.1049 22.201 10.1126 22.201C10.1203 22.201 10.1318 22.201 10.1433 22.201H10.1509C10.1509 22.201 10.1586 22.201 10.1624 22.201C10.523 22.201 10.8796 22.0962 11.1826 21.902C11.4895 21.7079 11.7426 21.4207 11.9075 21.0557C14.6191 14.9879 17.3307 8.9239 20.0423 2.85605C20.1228 2.67359 20.1804 2.4756 20.2034 2.2776C20.2302 2.08349 20.2264 1.8855 20.1957 1.69139C20.1573 1.43517 20.0691 1.19059 19.9426 0.969308L19.9464 0.965427Z" fill="white"/>
</svg>
