<svg width="32" height="32" viewBox="0 0 32 32" fill="none" xmlns="http://www.w3.org/2000/svg">
<path d="M15.75 30.75C24.0343 30.75 30.75 24.0343 30.75 15.75C30.75 7.46573 24.0343 0.75 15.75 0.75C7.46573 0.75 0.75 7.46573 0.75 15.75C0.75 24.0343 7.46573 30.75 15.75 30.75Z" stroke="black" stroke-width="1.5" stroke-linecap="round" stroke-linejoin="round"/>
<path d="M12 11.198C12 10.4821 12 10.1241 12.1496 9.92427C12.28 9.75011 12.4796 9.64115 12.6966 9.62565C12.9456 9.60787 13.2467 9.80144 13.8489 10.1886L20.9298 14.7406C21.4524 15.0765 21.7137 15.2445 21.8039 15.4581C21.8828 15.6447 21.8828 15.8553 21.8039 16.0419C21.7137 16.2555 21.4524 16.4235 20.9298 16.7594L13.8489 21.3114C13.2467 21.6986 12.9456 21.8921 12.6966 21.8743C12.4796 21.8588 12.28 21.7499 12.1496 21.5757C12 21.3759 12 21.0179 12 20.302V11.198Z" stroke="black" stroke-width="1.5" stroke-linecap="round" stroke-linejoin="round"/>
</svg>
