<svg preserveAspectRatio="none" width="100%" height="100%" overflow="visible" style="display: block;" viewBox="0 0 190 381" fill="none" xmlns="http://www.w3.org/2000/svg">
<g id="Group 1094">
<path id="Vector 379" d="M185 190.5C181.07 190.5 172.262 190.5 160.076 190.5C126.938 190.5 100.072 163.628 100.072 130.491C100.072 106.484 100.072 84.5163 100.072 60.5088C100.072 27.3717 73.2096 0.5 40.0725 0.5H5" stroke="url(#paint0_linear_0_10)" stroke-linecap="square" stroke-dasharray="2 4"/>
<path id="Vector 381" d="M185 190.5C181.07 190.5 172.262 190.5 160.076 190.5C126.938 190.5 100.072 217.372 100.072 250.509C100.072 274.516 100.072 296.484 100.072 320.491C100.072 353.628 73.2096 380.5 40.0725 380.5H5" stroke="url(#paint1_linear_0_10)" stroke-linecap="square" stroke-dasharray="2 4"/>
<path id="Vector 382" d="M100.526 256.21C100.642 255.959 100.533 255.662 100.282 255.546C100.032 255.43 99.7347 255.539 99.6187 255.79L100.072 256L100.526 256.21ZM5 286H4.5V287H5V286.5V286ZM99.2145 256.627C99.0921 256.874 99.1936 257.174 99.4411 257.296C99.6887 257.419 99.9886 257.317 100.111 257.07L99.6627 256.848L99.2145 256.627ZM98.3314 260.468C98.4645 260.226 98.3762 259.922 98.1342 259.789C97.8923 259.656 97.5882 259.744 97.4552 259.986L97.8933 260.227L98.3314 260.468ZM96.5177 261.653C96.3801 261.892 96.4626 262.198 96.702 262.336C96.9414 262.473 97.2471 262.391 97.3847 262.151L96.9512 261.902L96.5177 261.653ZM95.4156 265.434C95.5621 265.2 95.4911 264.891 95.2571 264.745C95.023 264.598 94.7145 264.669 94.5679 264.903L94.9918 265.168L95.4156 265.434ZM93.5427 266.506C93.3916 266.737 93.4564 267.047 93.6876 267.198C93.9187 267.349 94.2285 267.284 94.3797 267.053L93.9612 266.779L93.5427 266.506ZM92.2103 270.223C92.3713 269.998 92.3198 269.686 92.0954 269.525C91.871 269.364 91.5586 269.416 91.3977 269.64L91.804 269.931L92.2103 270.223ZM90.2748 271.168C90.1086 271.388 90.1526 271.702 90.3731 271.868C90.5936 272.034 90.9071 271.99 91.0734 271.77L90.6741 271.469L90.2748 271.168ZM88.6799 274.778C88.8578 274.567 88.8307 274.251 88.6195 274.073C88.4083 273.895 88.0928 273.922 87.915 274.134L88.2975 274.456L88.6799 274.778ZM86.6734 275.563C86.4891 275.769 86.5063 276.085 86.712 276.269C86.9176 276.454 87.2337 276.437 87.418 276.231L87.0457 275.897L86.6734 275.563ZM84.7464 279.009C84.9452 278.817 84.951 278.501 84.7593 278.302C84.5676 278.103 84.2511 278.097 84.0523 278.289L84.3993 278.649L84.7464 279.009ZM82.666 279.57C82.4591 279.753 82.4396 280.069 82.6225 280.275C82.8053 280.482 83.1213 280.502 83.3282 280.319L82.9971 279.944L82.666 279.57ZM80.3037 282.732C80.5287 282.572 80.5814 282.26 80.4213 282.035C80.2612 281.81 79.9491 281.757 79.724 281.917L80.0139 282.324L80.3037 282.732ZM78.1619 282.956C77.9271 283.101 77.8544 283.409 77.9996 283.644C78.1448 283.879 78.4529 283.951 78.6878 283.806L78.4249 283.381L78.1619 282.956ZM75.2312 285.593C75.4863 285.488 75.6072 285.195 75.5014 284.94C75.3956 284.685 75.103 284.564 74.848 284.67L75.0396 285.132L75.2312 285.593ZM73.0992 285.299C72.835 285.379 72.686 285.659 72.7663 285.923C72.8466 286.187 73.1259 286.336 73.3901 286.256L73.2447 285.777L73.0992 285.299ZM69.5319 286.969C69.8075 286.951 70.0167 286.713 69.9992 286.438C69.9817 286.162 69.7441 285.953 69.4685 285.971L69.5002 286.47L69.5319 286.969ZM67.5822 286C67.306 286 67.0822 286.224 67.0822 286.5C67.0822 286.776 67.306 287 67.5822 287V286.5V286ZM63.731 287C64.0071 287 64.231 286.776 64.231 286.5C64.231 286.224 64.0071 286 63.731 286V286.5V287ZM61.8054 286C61.5292 286 61.3054 286.224 61.3054 286.5C61.3054 286.776 61.5292 287 61.8054 287V286.5V286ZM57.9541 287C58.2303 287 58.4541 286.776 58.4541 286.5C58.4541 286.224 58.2303 286 57.9541 286V286.5V287ZM56.0285 286C55.7524 286 55.5285 286.224 55.5285 286.5C55.5285 286.776 55.7524 287 56.0285 287V286.5V286ZM52.1773 287C52.4535 287 52.6773 286.776 52.6773 286.5C52.6773 286.224 52.4535 286 52.1773 286V286.5V287ZM50.2517 286C49.9756 286 49.7517 286.224 49.7517 286.5C49.7517 286.776 49.9756 287 50.2517 287V286.5V286ZM46.4005 287C46.6767 287 46.9005 286.776 46.9005 286.5C46.9005 286.224 46.6767 286 46.4005 286V286.5V287ZM44.4749 286C44.1988 286 43.9749 286.224 43.9749 286.5C43.9749 286.776 44.1988 287 44.4749 287V286.5V286ZM40.6237 287C40.8998 287 41.1237 286.776 41.1237 286.5C41.1237 286.224 40.8998 286 40.6237 286V286.5V287ZM38.6981 286C38.4219 286 38.1981 286.224 38.1981 286.5C38.1981 286.776 38.4219 287 38.6981 287V286.5V286ZM34.8469 287C35.123 287 35.3469 286.776 35.3469 286.5C35.3469 286.224 35.123 286 34.8469 286V286.5V287ZM32.9213 286C32.6451 286 32.4213 286.224 32.4213 286.5C32.4213 286.776 32.6451 287 32.9213 287V286.5V286ZM29.0701 287C29.3462 287 29.5701 286.776 29.5701 286.5C29.5701 286.224 29.3462 286 29.0701 286V286.5V287ZM27.1445 286C26.8683 286 26.6445 286.224 26.6445 286.5C26.6445 286.776 26.8683 287 27.1445 287V286.5V286ZM23.2932 287C23.5694 287 23.7932 286.776 23.7932 286.5C23.7932 286.224 23.5694 286 23.2932 286V286.5V287ZM21.3676 286C21.0915 286 20.8676 286.224 20.8676 286.5C20.8676 286.776 21.0915 287 21.3676 287V286.5V286ZM17.5164 287C17.7926 287 18.0164 286.776 18.0164 286.5C18.0164 286.224 17.7926 286 17.5164 286V286.5V287ZM15.5908 286C15.3147 286 15.0908 286.224 15.0908 286.5C15.0908 286.776 15.3147 287 15.5908 287V286.5V286ZM11.7396 287C12.0158 287 12.2396 286.776 12.2396 286.5C12.2396 286.224 12.0158 286 11.7396 286V286.5V287ZM9.81401 286C9.53786 286 9.31401 286.224 9.31401 286.5C9.31401 286.776 9.53786 287 9.81401 287V286.5V286ZM5.96279 287C6.23894 287 6.46279 286.776 6.46279 286.5C6.46279 286.224 6.23894 286 5.96279 286V286.5V287ZM100.072 256C99.6187 255.79 99.6187 255.79 99.6187 255.79C99.6187 255.79 99.6187 255.79 99.6187 255.79C99.6187 255.79 99.6187 255.79 99.6187 255.79C99.6187 255.79 99.6187 255.79 99.6187 255.79C99.6186 255.79 99.6186 255.79 99.6185 255.791C99.6182 255.791 99.6179 255.792 99.6174 255.793C99.6164 255.795 99.6149 255.798 99.6128 255.803C99.6086 255.812 99.6023 255.825 99.5939 255.843C99.5769 255.879 99.5515 255.933 99.5175 256.004C99.4497 256.146 99.3483 256.356 99.2145 256.627L99.6627 256.848L100.111 257.07C100.247 256.795 100.35 256.581 100.42 256.435C100.455 256.362 100.481 256.306 100.499 256.269C100.508 256.25 100.514 256.235 100.519 256.225C100.521 256.221 100.523 256.217 100.524 256.214C100.525 256.213 100.525 256.212 100.526 256.211C100.526 256.211 100.526 256.211 100.526 256.21C100.526 256.21 100.526 256.21 100.526 256.21C100.526 256.21 100.526 256.21 100.526 256.21C100.526 256.21 100.526 256.21 100.526 256.21C100.526 256.21 100.526 256.21 100.072 256ZM97.8933 260.227L97.4552 259.986C97.1687 260.507 96.8558 261.065 96.5177 261.653L96.9512 261.902L97.3847 262.151C97.7261 261.557 98.0421 260.994 98.3314 260.468L97.8933 260.227ZM94.9918 265.168L94.5679 264.903C94.2401 265.427 93.8981 265.962 93.5427 266.506L93.9612 266.779L94.3797 267.053C94.7389 266.504 95.0844 265.963 95.4156 265.434L94.9918 265.168ZM91.804 269.931L91.3977 269.64C91.0333 270.148 90.6589 270.658 90.2748 271.168L90.6741 271.469L91.0734 271.77C91.4624 271.253 91.8416 270.737 92.2103 270.223L91.804 269.931ZM88.2975 274.456L87.915 274.134C87.5092 274.616 87.0952 275.093 86.6734 275.563L87.0457 275.897L87.418 276.231C87.847 275.752 88.2678 275.267 88.6799 274.778L88.2975 274.456ZM84.3993 278.649L84.0523 278.289C83.5971 278.728 83.1349 279.155 82.666 279.57L82.9971 279.944L83.3282 280.319C83.8085 279.895 84.2813 279.457 84.7464 279.009L84.3993 278.649ZM80.0139 282.324L79.724 281.917C79.2092 282.283 78.6884 282.63 78.1619 282.956L78.4249 283.381L78.6878 283.806C79.2337 283.469 79.7725 283.11 80.3037 282.732L80.0139 282.324ZM75.0396 285.132L74.848 284.67C74.2698 284.91 73.6868 285.12 73.0992 285.299L73.2447 285.777L73.3901 286.256C74.0107 286.067 74.6246 285.845 75.2312 285.593L75.0396 285.132ZM69.5002 286.47L69.4685 285.971C69.1617 285.99 68.8538 286 68.545 286V286.5V287C68.8752 287 69.2043 286.989 69.5319 286.969L69.5002 286.47ZM68.545 286.5V286H67.5822V286.5V287H68.545V286.5ZM63.731 286.5V286H61.8054V286.5V287H63.731V286.5ZM57.9541 286.5V286H56.0285V286.5V287H57.9541V286.5ZM52.1773 286.5V286H50.2517V286.5V287H52.1773V286.5ZM46.4005 286.5V286H44.4749V286.5V287H46.4005V286.5ZM40.6237 286.5V286H38.6981V286.5V287H40.6237V286.5ZM34.8469 286.5V286H32.9213V286.5V287H34.8469V286.5ZM29.0701 286.5V286H27.1445V286.5V287H29.0701V286.5ZM23.2932 286.5V286H21.3676V286.5V287H23.2932V286.5ZM17.5164 286.5V286H15.5908V286.5V287H17.5164V286.5ZM11.7396 286.5V286H9.81401V286.5V287H11.7396V286.5ZM5.96279 286.5V286H5V286.5V287H5.96279V286.5Z" fill="url(#paint2_linear_0_10)"/>
<path id="Vector 383" d="M100.526 124.774C100.642 125.025 100.533 125.322 100.282 125.438C100.032 125.554 99.7347 125.445 99.6187 125.194L100.072 124.984L100.526 124.774ZM5.00001 94.9844H4.50001V93.9844H5.00001V94.4844V94.9844ZM99.2145 124.358C99.0921 124.11 99.1936 123.81 99.4411 123.688C99.6887 123.566 99.9886 123.667 100.111 123.915L99.6627 124.136L99.2145 124.358ZM98.3314 120.516C98.4645 120.758 98.3762 121.062 98.1342 121.196C97.8923 121.329 97.5882 121.24 97.4552 120.998L97.8933 120.757L98.3314 120.516ZM96.5177 119.331C96.3801 119.092 96.4626 118.786 96.702 118.649C96.9414 118.511 97.2471 118.594 97.3847 118.833L96.9512 119.082L96.5177 119.331ZM95.4156 115.551C95.5621 115.785 95.4911 116.093 95.2571 116.24C95.023 116.386 94.7145 116.315 94.568 116.081L94.9918 115.816L95.4156 115.551ZM93.5427 114.479C93.3916 114.248 93.4564 113.938 93.6876 113.787C93.9187 113.635 94.2286 113.7 94.3797 113.931L93.9612 114.205L93.5427 114.479ZM92.2103 110.762C92.3713 110.986 92.3198 111.298 92.0954 111.459C91.871 111.62 91.5586 111.569 91.3977 111.344L91.804 111.053L92.2103 110.762ZM90.2748 109.817C90.1086 109.596 90.1526 109.283 90.3731 109.116C90.5936 108.95 90.9071 108.994 91.0734 109.215L90.6741 109.516L90.2748 109.817ZM88.6799 106.207C88.8578 106.418 88.8307 106.733 88.6195 106.911C88.4083 107.089 88.0929 107.062 87.915 106.851L88.2975 106.529L88.6799 106.207ZM86.6734 105.421C86.4891 105.215 86.5064 104.899 86.712 104.715C86.9176 104.531 87.2337 104.548 87.418 104.753L87.0457 105.087L86.6734 105.421ZM84.7464 101.976C84.9452 102.167 84.951 102.484 84.7593 102.683C84.5676 102.881 84.2511 102.887 84.0523 102.696L84.3993 102.336L84.7464 101.976ZM82.666 101.415C82.4591 101.232 82.4396 100.916 82.6225 100.709C82.8053 100.502 83.1213 100.483 83.3282 100.665L82.9971 101.04L82.666 101.415ZM80.3037 98.2526C80.5287 98.4126 80.5814 98.7248 80.4213 98.9498C80.2612 99.1748 79.9491 99.2275 79.724 99.0674L80.0139 98.66L80.3037 98.2526ZM78.1619 98.0288C77.9271 97.8836 77.8544 97.5754 77.9996 97.3406C78.1448 97.1057 78.4529 97.033 78.6878 97.1782L78.4249 97.6035L78.1619 98.0288ZM75.2312 95.3909C75.4863 95.4967 75.6073 95.7893 75.5014 96.0444C75.3956 96.2994 75.103 96.4204 74.848 96.3145L75.0396 95.8527L75.2312 95.3909ZM73.0992 95.6855C72.835 95.6052 72.686 95.3259 72.7663 95.0617C72.8466 94.7975 73.1259 94.6484 73.3901 94.7287L73.2447 95.2071L73.0992 95.6855ZM69.5319 94.0158C69.8075 94.0333 70.0167 94.2709 69.9992 94.5465C69.9817 94.8221 69.7441 95.0313 69.4685 95.0138L69.5002 94.5148L69.5319 94.0158ZM67.5822 94.9844C67.306 94.9844 67.0822 94.7605 67.0822 94.4844C67.0822 94.2082 67.306 93.9844 67.5822 93.9844V94.4844V94.9844ZM63.731 93.9844C64.0071 93.9844 64.231 94.2082 64.231 94.4844C64.231 94.7605 64.0071 94.9844 63.731 94.9844V94.4844V93.9844ZM61.8054 94.9844C61.5292 94.9844 61.3054 94.7605 61.3054 94.4844C61.3054 94.2082 61.5292 93.9844 61.8054 93.9844V94.4844V94.9844ZM57.9542 93.9844C58.2303 93.9844 58.4542 94.2082 58.4542 94.4844C58.4542 94.7605 58.2303 94.9844 57.9542 94.9844V94.4844V93.9844ZM56.0285 94.9844C55.7524 94.9844 55.5285 94.7605 55.5285 94.4844C55.5285 94.2082 55.7524 93.9844 56.0285 93.9844V94.4844V94.9844ZM52.1773 93.9844C52.4535 93.9844 52.6773 94.2082 52.6773 94.4844C52.6773 94.7605 52.4535 94.9844 52.1773 94.9844V94.4844V93.9844ZM50.2517 94.9844C49.9756 94.9844 49.7517 94.7605 49.7517 94.4844C49.7517 94.2082 49.9756 93.9844 50.2517 93.9844V94.4844V94.9844ZM46.4005 93.9844C46.6767 93.9844 46.9005 94.2082 46.9005 94.4844C46.9005 94.7605 46.6767 94.9844 46.4005 94.9844V94.4844V93.9844ZM44.4749 94.9844C44.1988 94.9844 43.9749 94.7605 43.9749 94.4844C43.9749 94.2082 44.1988 93.9844 44.4749 93.9844V94.4844V94.9844ZM40.6237 93.9844C40.8998 93.9844 41.1237 94.2082 41.1237 94.4844C41.1237 94.7605 40.8998 94.9844 40.6237 94.9844V94.4844V93.9844ZM38.6981 94.9844C38.422 94.9844 38.1981 94.7605 38.1981 94.4844C38.1981 94.2082 38.422 93.9844 38.6981 93.9844V94.4844V94.9844ZM34.8469 93.9844C35.123 93.9844 35.3469 94.2082 35.3469 94.4844C35.3469 94.7605 35.123 94.9844 34.8469 94.9844V94.4844V93.9844ZM32.9213 94.9844C32.6451 94.9844 32.4213 94.7605 32.4213 94.4844C32.4213 94.2082 32.6451 93.9844 32.9213 93.9844V94.4844V94.9844ZM29.0701 93.9844C29.3462 93.9844 29.5701 94.2082 29.5701 94.4844C29.5701 94.7605 29.3462 94.9844 29.0701 94.9844V94.4844V93.9844ZM27.1445 94.9844C26.8683 94.9844 26.6445 94.7605 26.6445 94.4844C26.6445 94.2082 26.8683 93.9844 27.1445 93.9844V94.4844V94.9844ZM23.2933 93.9844C23.5694 93.9844 23.7933 94.2082 23.7933 94.4844C23.7933 94.7605 23.5694 94.9844 23.2933 94.9844V94.4844V93.9844ZM21.3676 94.9844C21.0915 94.9844 20.8676 94.7605 20.8676 94.4844C20.8676 94.2082 21.0915 93.9844 21.3676 93.9844V94.4844V94.9844ZM17.5164 93.9844C17.7926 93.9844 18.0164 94.2082 18.0164 94.4844C18.0164 94.7605 17.7926 94.9844 17.5164 94.9844V94.4844V93.9844ZM15.5908 94.9844C15.3147 94.9844 15.0908 94.7605 15.0908 94.4844C15.0908 94.2082 15.3147 93.9844 15.5908 93.9844V94.4844V94.9844ZM11.7396 93.9844C12.0158 93.9844 12.2396 94.2082 12.2396 94.4844C12.2396 94.7605 12.0158 94.9844 11.7396 94.9844V94.4844V93.9844ZM9.81402 94.9844C9.53787 94.9844 9.31402 94.7605 9.31402 94.4844C9.31402 94.2082 9.53787 93.9844 9.81402 93.9844V94.4844V94.9844ZM5.9628 93.9844C6.23895 93.9844 6.4628 94.2082 6.4628 94.4844C6.4628 94.7605 6.23895 94.9844 5.9628 94.9844V94.4844V93.9844ZM100.072 124.984C99.6187 125.194 99.6187 125.194 99.6187 125.194C99.6187 125.194 99.6187 125.194 99.6187 125.194C99.6187 125.194 99.6187 125.194 99.6187 125.194C99.6187 125.194 99.6187 125.194 99.6187 125.194C99.6186 125.194 99.6186 125.194 99.6185 125.194C99.6182 125.193 99.6179 125.193 99.6174 125.192C99.6164 125.189 99.6149 125.186 99.6128 125.182C99.6086 125.173 99.6023 125.159 99.5939 125.141C99.577 125.105 99.5515 125.051 99.5176 124.98C99.4497 124.838 99.3483 124.628 99.2145 124.358L99.6627 124.136L100.111 123.915C100.247 124.189 100.35 124.403 100.42 124.549C100.455 124.622 100.481 124.678 100.499 124.716C100.508 124.735 100.514 124.749 100.519 124.759C100.521 124.764 100.523 124.768 100.524 124.77C100.525 124.771 100.525 124.772 100.526 124.773C100.526 124.774 100.526 124.774 100.526 124.774C100.526 124.774 100.526 124.774 100.526 124.774C100.526 124.774 100.526 124.774 100.526 124.774C100.526 124.774 100.526 124.774 100.526 124.774C100.526 124.774 100.526 124.774 100.072 124.984ZM97.8933 120.757L97.4552 120.998C97.1687 120.478 96.8558 119.92 96.5177 119.331L96.9512 119.082L97.3847 118.833C97.7261 119.427 98.0421 119.99 98.3314 120.516L97.8933 120.757ZM94.9918 115.816L94.568 116.081C94.2401 115.558 93.8981 115.022 93.5427 114.479L93.9612 114.205L94.3797 113.931C94.7389 114.481 95.0844 115.022 95.4156 115.551L94.9918 115.816ZM91.804 111.053L91.3977 111.344C91.0333 110.836 90.6589 110.326 90.2748 109.817L90.6741 109.516L91.0734 109.215C91.4624 109.731 91.8416 110.247 92.2103 110.762L91.804 111.053ZM88.2975 106.529L87.915 106.851C87.5092 106.369 87.0952 105.891 86.6734 105.421L87.0457 105.087L87.418 104.753C87.847 105.232 88.2678 105.717 88.6799 106.207L88.2975 106.529ZM84.3993 102.336L84.0523 102.696C83.5971 102.257 83.1349 101.829 82.666 101.415L82.9971 101.04L83.3282 100.665C83.8085 101.09 84.2814 101.527 84.7464 101.976L84.3993 102.336ZM80.0139 98.66L79.724 99.0674C79.2093 98.7012 78.6884 98.3542 78.1619 98.0288L78.4249 97.6035L78.6878 97.1782C79.2337 97.5156 79.7725 97.8746 80.3037 98.2526L80.0139 98.66ZM75.0396 95.8527L74.848 96.3145C74.2699 96.0746 73.6868 95.8641 73.0992 95.6855L73.2447 95.2071L73.3901 94.7287C74.0107 94.9174 74.6246 95.1392 75.2312 95.3909L75.0396 95.8527ZM69.5002 94.5148L69.4685 95.0138C69.1617 94.9943 68.8538 94.9844 68.545 94.9844V94.4844V93.9844C68.8752 93.9844 69.2043 93.995 69.5319 94.0158L69.5002 94.5148ZM68.545 94.4844V94.9844H67.5822V94.4844V93.9844H68.545V94.4844ZM63.731 94.4844V94.9844H61.8054V94.4844V93.9844H63.731V94.4844ZM57.9542 94.4844V94.9844H56.0285V94.4844V93.9844H57.9542V94.4844ZM52.1773 94.4844V94.9844H50.2517V94.4844V93.9844H52.1773V94.4844ZM46.4005 94.4844V94.9844H44.4749V94.4844V93.9844H46.4005V94.4844ZM40.6237 94.4844V94.9844H38.6981V94.4844V93.9844H40.6237V94.4844ZM34.8469 94.4844V94.9844H32.9213V94.4844V93.9844H34.8469V94.4844ZM29.0701 94.4844V94.9844H27.1445V94.4844V93.9844H29.0701V94.4844ZM23.2933 94.4844V94.9844H21.3676V94.4844V93.9844H23.2933V94.4844ZM17.5164 94.4844V94.9844H15.5908V94.4844V93.9844H17.5164V94.4844ZM11.7396 94.4844V94.9844H9.81402V94.4844V93.9844H11.7396V94.4844ZM5.9628 94.4844V94.9844H5.00001V94.4844V93.9844H5.9628V94.4844Z" fill="url(#paint3_linear_0_10)"/>
<line id="Line 1" x1="0.5" y1="191" x2="189.5" y2="191" stroke="url(#paint4_linear_0_10)" stroke-linecap="round" stroke-dasharray="2 4"/>
</g>
<defs>
<linearGradient id="paint0_linear_0_10" x1="185" y1="190.5" x2="5" y2="190.5" gradientUnits="userSpaceOnUse">
<stop stop-color="#00F686"/>
<stop offset="1" stop-color="#B0FDFF"/>
</linearGradient>
<linearGradient id="paint1_linear_0_10" x1="185" y1="190.5" x2="5" y2="190.5" gradientUnits="userSpaceOnUse">
<stop stop-color="#00F686"/>
<stop offset="1" stop-color="#B0FDFF"/>
</linearGradient>
<linearGradient id="paint2_linear_0_10" x1="185" y1="190.5" x2="4.99998" y2="190.5" gradientUnits="userSpaceOnUse">
<stop stop-color="#00F686"/>
<stop offset="1" stop-color="#B0FDFF"/>
</linearGradient>
<linearGradient id="paint3_linear_0_10" x1="185" y1="190.484" x2="4.99999" y2="190.484" gradientUnits="userSpaceOnUse">
<stop stop-color="#00F686"/>
<stop offset="1" stop-color="#B0FDFF"/>
</linearGradient>
<linearGradient id="paint4_linear_0_10" x1="0" y1="192.5" x2="190" y2="192.498" gradientUnits="userSpaceOnUse">
<stop stop-color="#B0FDFF"/>
<stop offset="1" stop-color="#00F686"/>
</linearGradient>
</defs>
</svg>
