<svg preserveAspectRatio="none" width="100%" height="100%" overflow="visible" style="display: block;" viewBox="0 0 32 32" fill="none" xmlns="http://www.w3.org/2000/svg">
<g id="Frame" clip-path="url(#clip0_0_7)">
<path id="Vector" d="M0 16C0 20.2435 1.68571 24.3131 4.68629 27.3137C7.68687 30.3143 11.7565 32 16 32C20.2435 32 24.3131 30.3143 27.3137 27.3137C30.3143 24.3131 32 20.2435 32 16C32 11.7565 30.3143 7.68687 27.3137 4.68629C24.3131 1.68571 20.2435 0 16 0C11.7565 0 7.68687 1.68571 4.68629 4.68629C1.68571 7.68687 0 11.7565 0 16Z" fill="var(--fill-0, #DE2910)"/>
<path id="Vector_2" d="M15.2 16.1029C14.4356 15.5484 13.9205 14.715 13.7664 13.7833C13.6124 12.8516 13.8318 11.8967 14.3771 11.1257C14.3893 11.1083 14.4078 11.0964 14.4287 11.0926C14.4496 11.0889 14.4711 11.0936 14.4886 11.1057C14.506 11.1178 14.5179 11.1364 14.5217 11.1573C14.5254 11.1782 14.5207 11.1997 14.5086 11.2171C13.9927 11.942 13.7788 12.8391 13.9121 13.7188C14.0453 14.5985 14.5154 15.3919 15.2229 15.9314C14.8951 15.5768 14.7134 15.1115 14.7143 14.6286C14.6966 14.2759 14.7824 13.9257 14.961 13.6212C15.1397 13.3166 15.4035 13.0709 15.72 12.9143C16.1814 12.7221 16.5816 12.4077 16.8777 12.0049C17.1737 11.6022 17.3543 11.1263 17.4 10.6286C17.3983 10.2 17.2819 9.77977 17.0629 9.41143C17.0248 9.34667 16.9829 9.28381 16.9371 9.22286C16.8241 9.01366 16.7559 8.78325 16.7367 8.54626C16.7175 8.30926 16.7479 8.07087 16.8258 7.84624C16.9037 7.6216 17.0275 7.41564 17.1893 7.24142C17.3512 7.06721 17.5474 6.92856 17.7657 6.83429H17.5829C14.4114 6.83429 12.2571 9.12 12.2571 11.7714C12.2569 12.7052 12.5374 13.6175 13.0621 14.3899C13.5869 15.1623 14.3318 15.7591 15.2 16.1029ZM14.6286 10.3886V9.81714L15.0743 10.1657L15.6114 9.99429L15.4171 10.5257L15.7486 10.9829H15.1771L14.84 11.44L14.68 10.8686L14.1429 10.6914L14.6286 10.3886Z" fill="var(--fill-0, white)"/>
<path id="Vector_3" d="M10.2457 17.88C11.1403 18.1741 12.103 18.1901 13.0069 17.9259C13.9107 17.6616 14.7132 17.1296 15.3086 16.4C14.5551 16.9712 13.6067 17.222 12.6694 17.0979C11.7321 16.9738 10.8816 16.4848 10.3029 15.7371C10.2928 15.7203 10.2893 15.7004 10.2929 15.6812C10.2965 15.662 10.3071 15.6447 10.3226 15.6328C10.3381 15.6208 10.3574 15.6149 10.377 15.6163C10.3965 15.6176 10.4149 15.626 10.4286 15.64C10.9626 16.329 11.739 16.7887 12.5998 16.9256C13.4607 17.0625 14.3414 16.8664 15.0629 16.3771C14.6359 16.5612 14.1565 16.5835 13.7143 16.44C13.3774 16.3455 13.075 16.1554 12.8438 15.8928C12.6126 15.6302 12.4624 15.3062 12.4114 14.96C12.3672 14.4641 12.1892 13.9896 11.8963 13.587C11.6035 13.1844 11.2068 12.869 10.7486 12.6743C10.3444 12.5429 9.91249 12.5212 9.49714 12.6114L9.28 12.6686C9.04604 12.7116 8.80569 12.7055 8.57421 12.6507C8.34274 12.5958 8.12522 12.4934 7.9355 12.3498C7.74577 12.2063 7.58799 12.0249 7.47218 11.8171C7.35638 11.6093 7.28509 11.3797 7.26286 11.1429L7.2 11.3143C6.20571 14.3029 7.70286 17.0514 10.2457 17.88ZM9.58857 14.72V14.1486L10.0343 14.4971L10.5714 14.3257L10.3771 14.8571L10.7086 15.3143H10.1371L9.8 15.7714L9.64 15.2L9.10286 15.0229L9.58857 14.72Z" fill="var(--fill-0, white)"/>
<path id="Vector_4" d="M15.1486 19.6343C14.732 20.2505 14.1323 20.7203 13.4343 20.9771C13.4174 20.9725 13.4025 20.9624 13.3919 20.9485C13.3812 20.9346 13.3755 20.9175 13.3755 20.9C13.3755 20.8825 13.3812 20.8654 13.3919 20.8515C13.4025 20.8376 13.4174 20.8275 13.4343 20.8229C14.2482 20.53 14.9213 19.9403 15.3187 19.172C15.7161 18.4036 15.8084 17.5135 15.5771 16.68C15.6112 17.1321 15.4836 17.5817 15.2171 17.9486C15.0225 18.2392 14.7478 18.4672 14.4264 18.6051C14.1049 18.743 13.7504 18.7849 13.4057 18.7257C12.918 18.6097 12.4078 18.6293 11.9303 18.7824C11.4529 18.9355 11.0265 19.2162 10.6971 19.5943C10.4521 19.9302 10.2985 20.324 10.2514 20.7371V20.9657C10.2199 21.2014 10.1398 21.428 10.016 21.631C9.8922 21.834 9.72754 22.0091 9.53246 22.1451C9.33738 22.281 9.11614 22.3749 8.88281 22.4208C8.64949 22.4666 8.40917 22.4635 8.17714 22.4114L8.32 22.52C10.8857 24.3829 13.96 23.8171 15.5314 21.6571C16.0896 20.8939 16.4022 19.9789 16.4277 19.0337C16.4532 18.0885 16.1904 17.1579 15.6743 16.3657C15.8565 16.9126 15.9038 17.4954 15.8123 18.0645C15.7208 18.6336 15.4931 19.1721 15.1486 19.6343ZM12.72 21.4114L12.3829 21.8686L12.2229 21.2971L11.6857 21.12L12.1543 20.8V20.2286L12.6 20.5771L13.1371 20.4057L12.9429 20.9371L13.2743 21.3943L12.72 21.4114Z" fill="var(--fill-0, white)"/>
<path id="Vector_5" d="M15.6971 16.1657C16.6422 16.1472 17.5563 16.5023 18.2411 17.1539C18.9258 17.8055 19.3259 18.7009 19.3543 19.6457C19.3543 19.6669 19.3459 19.6873 19.3309 19.7023C19.3159 19.7173 19.2955 19.7257 19.2743 19.7257C19.2531 19.7257 19.2327 19.7173 19.2177 19.7023C19.2027 19.6873 19.1943 19.6669 19.1943 19.6457C19.1678 18.7814 18.8156 17.959 18.2084 17.3434C17.6013 16.7277 16.7839 16.3642 15.92 16.3257C16.3783 16.4233 16.785 16.6855 17.0629 17.0629C17.2802 17.3377 17.4131 17.6697 17.4456 18.0186C17.4781 18.3675 17.4086 18.7183 17.2457 19.0286C16.9838 19.4591 16.8453 19.9533 16.8453 20.4571C16.8453 20.961 16.9838 21.4552 17.2457 21.8857C17.4957 22.2306 17.8329 22.5028 18.2229 22.6743L18.4343 22.7543C18.6494 22.8567 18.8409 23.0029 18.9964 23.1835C19.1519 23.3641 19.268 23.5751 19.3374 23.8031C19.4067 24.0311 19.4278 24.271 19.3992 24.5076C19.3707 24.7442 19.2931 24.9722 19.1714 25.1771L19.32 25.0743C21.8857 23.2114 22.2971 20.1086 20.7314 17.9486C20.1765 17.1709 19.3958 16.5827 18.4952 16.2638C17.5947 15.9449 16.6178 15.9106 15.6971 16.1657ZM19.3429 20.8857L19.0057 21.3429L18.8457 20.7714L18.3086 20.5943L18.7771 20.2743V19.7029L19.2229 20.0514L19.76 19.88L19.5657 20.4114L19.8971 20.8686L19.3429 20.8857Z" fill="var(--fill-0, white)"/>
<path id="Vector_6" d="M25.0629 15.3429C24.08 12.3257 21.2629 10.9771 18.72 11.8C17.8269 12.0873 17.0413 12.6376 16.4662 13.3788C15.8912 14.1201 15.5534 15.0178 15.4971 15.9543C15.777 15.0571 16.3976 14.3054 17.2258 13.8609C18.0539 13.4164 19.0233 13.3145 19.9257 13.5771C19.9358 13.5801 19.9453 13.5851 19.9535 13.5918C19.9617 13.5984 19.9685 13.6066 19.9736 13.6159C19.9786 13.6252 19.9818 13.6354 19.9829 13.6459C19.984 13.6564 19.983 13.667 19.98 13.6771C19.977 13.6873 19.972 13.6967 19.9654 13.7049C19.9587 13.7131 19.9505 13.72 19.9412 13.725C19.932 13.73 19.9218 13.7332 19.9113 13.7343C19.9008 13.7354 19.8901 13.7344 19.88 13.7314C19.038 13.4859 18.1339 13.5724 17.3537 13.9731C16.5736 14.3738 15.9766 15.0583 15.6857 15.8857C15.9221 15.4704 16.3053 15.1586 16.76 15.0114C17.0886 14.8898 17.4454 14.8661 17.7872 14.9432C18.129 15.0203 18.4411 15.1948 18.6857 15.4457C19.012 15.8268 19.4363 16.1114 19.9128 16.2685C20.3892 16.4256 20.8996 16.4494 21.3886 16.3371C21.7937 16.2059 22.1566 15.9692 22.44 15.6514L22.5829 15.4743C22.747 15.3017 22.9454 15.1651 23.1653 15.0734C23.3851 14.9817 23.6217 14.9369 23.8599 14.9417C24.0981 14.9466 24.3327 15.001 24.5486 15.1015C24.7646 15.2021 24.9573 15.3466 25.1143 15.5257C25.0629 15.4571 25.0629 15.4 25.0629 15.3429ZM20.8743 14.4171L20.5371 14.8743L20.3771 14.3029L19.84 14.1257L20.3086 13.8057V13.2343L20.7543 13.5829L21.2914 13.4114L21.0971 13.9429L21.4286 14.4L20.8743 14.4171Z" fill="var(--fill-0, white)"/>
</g>
<defs>
<clipPath id="clip0_0_7">
<rect width="32" height="32" fill="white"/>
</clipPath>
</defs>
</svg>
