<svg preserveAspectRatio="none" width="100%" height="100%" overflow="visible" style="display: block;" viewBox="0 0 43.1667 43.1667" fill="none" xmlns="http://www.w3.org/2000/svg">
<path id="Icon" d="M21.5833 0.75V4.91667M21.5833 38.25V42.4167M4.91667 21.5833H0.75M9.73774 9.73774L6.79146 6.79146M33.4289 9.73774L36.3752 6.79146M9.73774 33.4375L6.79146 36.3838M33.4289 33.4375L36.3752 36.3838M42.4167 21.5833H38.25M32 21.5833C32 27.3363 27.3363 32 21.5833 32C15.8304 32 11.1667 27.3363 11.1667 21.5833C11.1667 15.8304 15.8304 11.1667 21.5833 11.1667C27.3363 11.1667 32 15.8304 32 21.5833Z" stroke="url(#paint0_linear_0_11)" stroke-width="1.5" stroke-linecap="round" stroke-linejoin="round"/>
<defs>
<linearGradient id="paint0_linear_0_11" x1="0.504903" y1="42.6618" x2="42.6618" y2="10.799" gradientUnits="userSpaceOnUse">
<stop stop-color="#B0FDFF"/>
<stop offset="1" stop-color="#00F686"/>
</linearGradient>
</defs>
</svg>
