<svg preserveAspectRatio="none" width="100%" height="100%" overflow="visible" style="display: block;" viewBox="0 0 50 50" fill="none" xmlns="http://www.w3.org/2000/svg">
<g id="Hospital-four (&#229;&#140;&#187;&#233;&#153;&#162;4)">
<path id="Vector" d="M29.1666 43.75V8.33333C29.1666 7.18274 28.2339 6.25 27.0833 6.25H6.24996C5.09937 6.25 4.16663 7.18274 4.16663 8.33333V41.6667C4.16663 42.8173 5.09937 43.75 6.24996 43.75H29.1666ZM29.1666 43.75H43.75C44.9006 43.75 45.8333 42.8173 45.8333 41.6667V27.0833C45.8333 25.9327 44.9006 25 43.75 25H29.1667L29.1666 43.75ZM21.875 43.75V34.375C21.875 32.6491 20.4759 31.25 18.75 31.25H14.5833C12.8574 31.25 11.4583 32.6491 11.4583 34.375V43.75M12.5 18.75H20.8333M35.4167 31.25H39.5833M35.4167 37.5H39.5833M16.6667 14.5833V22.9167M7.29167 43.75H26.0417" stroke="url(#paint0_linear_0_9)" stroke-width="1.5" stroke-linecap="round" stroke-linejoin="round"/>
</g>
<defs>
<linearGradient id="paint0_linear_0_9" x1="3.92153" y1="43.9706" x2="42.7657" y2="11.3495" gradientUnits="userSpaceOnUse">
<stop stop-color="#B0FDFF"/>
<stop offset="1" stop-color="#00F686"/>
</linearGradient>
</defs>
</svg>
