<svg preserveAspectRatio="none" width="100%" height="100%" overflow="visible" style="display: block;" viewBox="0 0 43.1668 40.5625" fill="none" xmlns="http://www.w3.org/2000/svg">
<path id="Icon" d="M15.3334 39.8125V24.3958C15.3334 23.2291 15.3334 22.6457 15.5605 22.2C15.7602 21.808 16.0789 21.4893 16.4709 21.2896C16.9166 21.0625 17.4999 21.0625 18.6667 21.0625H24.5001C25.6668 21.0625 26.2502 21.0625 26.6959 21.2896C27.0879 21.4893 27.4066 21.808 27.6063 22.2C27.8334 22.6457 27.8334 23.2291 27.8334 24.3958V39.8125M0.750044 15.8542L19.5834 1.72917C20.3006 1.19126 20.6592 0.92231 21.053 0.818635C21.4007 0.727122 21.7661 0.727122 22.1137 0.818635C22.5076 0.922311 22.8662 1.19126 23.5834 1.72917L42.4167 15.8542M4.91672 12.7292V33.1458C4.91672 35.4794 4.91672 36.6462 5.37086 37.5375C5.77033 38.3215 6.40775 38.9589 7.19176 39.3584C8.08306 39.8125 9.24983 39.8125 11.5834 39.8125H31.5834C33.9169 39.8125 35.0837 39.8125 35.975 39.3584C36.759 38.9589 37.3964 38.3215 37.7959 37.5375C38.2501 36.6462 38.2501 35.4794 38.2501 33.1458V12.7292L25.5834 3.22917C24.149 2.15336 23.4318 1.61545 22.6441 1.4081C21.9488 1.22508 21.218 1.22508 20.5227 1.4081C19.735 1.61545 19.0178 2.15336 17.5834 3.22917L4.91672 12.7292Z" stroke="url(#paint0_linear_0_8)" stroke-width="1.5" stroke-linecap="round" stroke-linejoin="round"/>
<defs>
<linearGradient id="paint0_linear_0_8" x1="0.504947" y1="40.0423" x2="40.6508" y2="7.67658" gradientUnits="userSpaceOnUse">
<stop stop-color="#B0FDFF"/>
<stop offset="1" stop-color="#00F686"/>
</linearGradient>
</defs>
</svg>
