<svg width="48" height="48" viewBox="0 0 48 48" fill="none" xmlns="http://www.w3.org/2000/svg">
<path d="M32 6H38C40.2091 6 42 7.79086 42 10V16M16 42H10C7.79086 42 6 40.2091 6 38V32M22 8V20C22 22.2091 17.9706 24 13 24C8.02944 24 4 22.2091 4 20V8M22 8C22 10.2091 17.9706 12 13 12C8.02944 12 4 10.2091 4 8M22 8C22 5.79086 17.9706 4 13 4C8.02944 4 4 5.79086 4 8M22 14C22 16.2091 17.9706 18 13 18C8.02944 18 4 16.2091 4 14M39 28C39 28.9564 39 32 39 32H31C31 32 31 30.2091 31 28C31 25.7909 32.7909 24 35 24C37.2091 24 39 25.7909 39 28ZM26 32H44V44H26V32Z" stroke="url(#paint0_linear_17_1100)" stroke-width="1.5" stroke-linecap="round" stroke-linejoin="round"/>
<defs>
<linearGradient id="paint0_linear_17_1100" x1="3.76471" y1="44.2353" x2="44.2353" y2="13.6471" gradientUnits="userSpaceOnUse">
<stop stop-color="#B0FDFF"/>
<stop offset="1" stop-color="#00F686"/>
</linearGradient>
</defs>
</svg>
