<svg width="48" height="48" viewBox="0 0 48 48" fill="none" xmlns="http://www.w3.org/2000/svg">
<path d="M17 25C19.2091 25 21 23.2091 21 21C21 18.7909 19.2091 17 17 17C14.7909 17 13 18.7909 13 21C13 23.2091 14.7909 25 17 25ZM17 25C20.3137 25 23 27.6863 23 31M17 25C13.6863 25 11 27.6863 11 31M28 20H36M30 28H36M6 8H42C43.1046 8 44 8.89543 44 10V38C44 39.1046 43.1046 40 42 40H6C4.89543 40 4 39.1046 4 38V10C4 8.89543 4.89543 8 6 8Z" stroke="url(#paint0_linear_17_1110)" stroke-width="1.5" stroke-linecap="round" stroke-linejoin="round"/>
<defs>
<linearGradient id="paint0_linear_17_1110" x1="3.76471" y1="40.1882" x2="37.364" y2="8.44468" gradientUnits="userSpaceOnUse">
<stop stop-color="#B0FDFF"/>
<stop offset="1" stop-color="#00F686"/>
</linearGradient>
</defs>
</svg>
