<svg width="14" height="23" viewBox="0 0 14 23" fill="none" xmlns="http://www.w3.org/2000/svg">
<path d="M13.8533 1.18018C13.7574 0.951136 13.6155 0.741497 13.4429 0.566799C13.2703 0.3921 13.0632 0.24846 12.8369 0.151405C12.7218 0.100937 12.6029 0.0621144 12.4802 0.0388213C12.3536 0.011646 12.2232 0 12.0967 0H3.17183C2.93404 0 2.70392 0.0310575 2.4738 0.0970546C2.46996 0.0970546 2.46613 0.0970546 2.46229 0.0970546C2.43544 0.0931724 2.41243 0.0892907 2.38558 0.0854085C2.28203 0.0659976 2.18998 0.0543503 2.10561 0.0543503H1.71056C1.23882 0.0543503 0.813095 0.24846 0.502432 0.562917C0.191769 0.877374 0 1.3083 0 1.7858V20.5212C0 20.9987 0.191769 21.4297 0.502432 21.7441C0.813095 22.0586 1.23882 22.2527 1.71056 22.2527H2.10561C2.57735 22.2527 3.00307 22.0586 3.31374 21.7441C3.6244 21.4297 3.81617 20.9987 3.81617 20.5212V3.85889H12.0967C12.2271 3.85889 12.3536 3.84724 12.4802 3.82007C12.6029 3.79289 12.7218 3.75795 12.8369 3.70749C13.0632 3.61043 13.2703 3.46679 13.4429 3.29209C13.6155 3.11739 13.7574 2.90776 13.8533 2.67871C13.9031 2.56224 13.9415 2.44189 13.9645 2.31766C13.9913 2.18955 14.0028 2.05756 14.0028 1.92945C14.0028 1.80133 13.9913 1.66934 13.9645 1.54123C13.9376 1.417 13.9031 1.29665 13.8533 1.18018Z" fill="white"/>
</svg>
