<svg width="40" height="40" viewBox="0 0 40 40" fill="none" xmlns="http://www.w3.org/2000/svg">
<path d="M24.9999 20C24.9999 29.2048 22.7613 36.6667 19.9999 36.6667C17.2385 36.6667 14.9999 29.2048 14.9999 20M24.9999 20C24.9999 10.7953 22.7613 3.33337 19.9999 3.33337C17.2385 3.33337 14.9999 10.7953 14.9999 20M24.9999 20C24.9999 12.6362 26.4923 6.66671 28.3333 6.66671C30.1742 6.66671 31.6666 12.6362 31.6666 20C31.6666 27.3639 30.1742 33.3334 28.3333 33.3334C26.4923 33.3334 24.9999 27.3639 24.9999 20ZM14.9999 20C14.9999 27.3639 13.5075 33.3334 11.6666 33.3334C9.82567 33.3334 8.33325 27.3639 8.33325 20C8.33325 12.6362 9.82567 6.66671 11.6666 6.66671C13.5075 6.66671 14.9999 12.6362 14.9999 20ZM34.1666 27.5C35.5473 27.5 36.6666 24.5153 36.6666 20.8334C36.6666 17.1515 35.5473 14.1667 34.1666 14.1667C32.7858 14.1667 31.6666 17.1515 31.6666 20.8334C31.6666 24.5153 32.7858 27.5 34.1666 27.5ZM5.83325 27.5C7.21396 27.5 8.33325 24.5153 8.33325 20.8334C8.33325 17.1515 7.21396 14.1667 5.83325 14.1667C4.45254 14.1667 3.33325 17.1515 3.33325 20.8334C3.33325 24.5153 4.45254 27.5 5.83325 27.5Z" stroke="url(#paint0_linear_58_636)" stroke-width="1.5" stroke-linecap="round" stroke-linejoin="round"/>
<defs>
<linearGradient id="paint0_linear_58_636" x1="8.29404" y1="33.4904" x2="18.527" y2="31.5569" gradientUnits="userSpaceOnUse">
<stop stop-color="#B0FDFF"/>
<stop offset="1" stop-color="#00F686"/>
</linearGradient>
</defs>
</svg>
