<svg width="40" height="40" viewBox="0 0 40 40" fill="none" xmlns="http://www.w3.org/2000/svg">
<path d="M19.9999 20V10M19.9999 20L11.25 25.0518M19.9999 20L28.7498 25.0518M19.9999 10C21.8408 10 23.3333 8.50762 23.3333 6.66671C23.3333 4.82576 21.8409 3.33337 20 3.33337C18.1591 3.33337 16.6667 4.82576 16.6667 6.66671C16.6667 8.50762 18.159 10 19.9999 10ZM11.6667 13.3334C11.6667 15.1743 10.1742 16.6667 8.33333 16.6667C6.49238 16.6667 5 15.1743 5 13.3334C5 11.4925 6.49238 10 8.33333 10C10.1742 10 11.6667 11.4925 11.6667 13.3334ZM11.6667 26.6667C11.6667 28.5076 10.1742 30 8.33333 30C6.49238 30 5 28.5076 5 26.6667C5 24.8258 6.49238 23.3334 8.33333 23.3334C10.1742 23.3334 11.6667 24.8258 11.6667 26.6667ZM23.3333 33.3334C23.3333 35.1743 21.8409 36.6667 20 36.6667C18.1591 36.6667 16.6667 35.1743 16.6667 33.3334C16.6667 31.4925 18.1591 30 20 30C21.8409 30 23.3333 31.4925 23.3333 33.3334ZM35 26.6667C35 28.5076 33.5076 30 31.6667 30C29.8257 30 28.3333 28.5076 28.3333 26.6667C28.3333 24.8258 29.8257 23.3334 31.6667 23.3334C33.5076 23.3334 35 24.8258 35 26.6667ZM35 13.3334C35 15.1743 33.5076 16.6667 31.6667 16.6667C29.8257 16.6667 28.3333 15.1743 28.3333 13.3334C28.3333 11.4925 29.8257 10 31.6667 10C33.5076 10 35 11.4925 35 13.3334Z" stroke="url(#paint0_linear_17_1067)" stroke-width="1.5" stroke-linecap="round" stroke-linejoin="round"/>
<defs>
<linearGradient id="paint0_linear_17_1067" x1="4.82353" y1="36.8628" x2="37.4288" y2="14.6836" gradientUnits="userSpaceOnUse">
<stop stop-color="#B0FDFF"/>
<stop offset="1" stop-color="#00F686"/>
</linearGradient>
</defs>
</svg>
