<svg width="40" height="40" viewBox="0 0 40 40" fill="none" xmlns="http://www.w3.org/2000/svg">
<path d="M36.6667 15.8044C31.0211 10.4541 23.4324 8.33821 16.25 9.45671M31.6667 21.4991C29.4055 19.2379 26.6512 17.7702 23.75 17.0961M8.33333 21.4991C9.43967 20.3928 10.6641 19.4764 11.9659 18.75M13.3333 26.9281C14.5323 25.7291 15.9738 24.9206 17.5 24.5025M33.3333 33.3333L6.66667 6.66663M3.33398 15.8042C3.82465 15.3392 4.33 14.8986 4.84849 14.4825C5.306 14.1153 5.77374 13.7671 6.25064 13.4379M20 33.3333C21.1506 33.3333 22.0833 32.4005 22.0833 31.25C22.0833 30.0994 21.1506 29.1666 20 29.1666C18.8494 29.1666 17.9167 30.0994 17.9167 31.25C17.9167 32.4005 18.8494 33.3333 20 33.3333Z" stroke="url(#paint0_linear_58_644)" stroke-width="1.5" stroke-linecap="round" stroke-linejoin="round"/>
<defs>
<linearGradient id="paint0_linear_58_644" x1="3.13791" y1="33.4902" x2="31.1373" y2="7.03774" gradientUnits="userSpaceOnUse">
<stop stop-color="#B0FDFF"/>
<stop offset="1" stop-color="#00F686"/>
</linearGradient>
</defs>
</svg>
