<svg width="40" height="40" viewBox="0 0 40 40" fill="none" xmlns="http://www.w3.org/2000/svg">
<path d="M36.6668 3.33343C36.6668 3.33343 27.9917 1.83428 25.0002 6.66676C22.7733 10.264 25.8335 14.1668 25.8335 14.1668M36.6668 3.33343L25.8335 14.1668M36.6668 3.33343C36.6668 3.33343 38.166 12.0085 33.3335 15.0001C29.7363 17.227 25.8335 14.1668 25.8335 14.1668M25.8335 14.1668L23.3335 16.6668M25.8335 25.8334L23.3335 23.3334M25.8335 25.8334C25.8335 25.8334 22.7733 29.7362 25.0002 33.3334C27.9917 38.1659 36.6668 36.6667 36.6668 36.6667M25.8335 25.8334L36.6668 36.6667M25.8335 25.8334C25.8335 25.8334 29.7363 22.7732 33.3335 25C38.166 27.9916 36.6668 36.6667 36.6668 36.6667M14.3867 14.1668L16.8867 16.6668M14.3867 14.1668C14.3867 14.1668 17.4468 10.264 15.22 6.66676C12.2284 1.83428 3.55328 3.33343 3.55328 3.33343M14.3867 14.1668L3.55328 3.33343M14.3867 14.1668C14.3867 14.1668 10.4838 17.227 6.88661 15.0001C2.05412 12.0085 3.55328 3.33343 3.55328 3.33343M14.3867 25.8334L16.8867 23.3334M14.3867 25.8334C14.3867 25.8334 17.4468 29.7362 15.22 33.3334C12.2284 38.1659 3.55328 36.6667 3.55328 36.6667M14.3867 25.8334L3.55328 36.6667M14.3867 25.8334C14.3867 25.8334 10.4838 22.7732 6.88661 25C2.05412 27.9916 3.55328 36.6667 3.55328 36.6667" stroke="url(#paint0_linear_58_648)" stroke-width="1.5" stroke-linecap="round" stroke-linejoin="round"/>
<defs>
<linearGradient id="paint0_linear_58_648" x1="3.13613" y1="37.0852" x2="37.2448" y2="11.4731" gradientUnits="userSpaceOnUse">
<stop stop-color="#B0FDFF"/>
<stop offset="1" stop-color="#00F686"/>
</linearGradient>
</defs>
</svg>
