<svg width="193" height="204" viewBox="0 0 193 204" fill="none" xmlns="http://www.w3.org/2000/svg">
<path d="M165.362 13.2706C174.615 27.5911 147.065 61.8471 103.829 89.7835C60.5925 117.72 18.0415 128.758 8.78856 114.437M165.362 13.2706C156.109 -1.04994 113.558 9.9879 70.3212 37.9243C27.0848 65.8607 -0.464361 100.117 8.78856 114.437M165.362 13.2706L243.546 134.275C252.817 148.623 225.506 182.686 182.014 210.788C138.521 238.89 96.2438 249.79 86.9734 235.442L8.78856 114.437M204.454 73.773C213.725 88.1207 186.414 122.184 142.921 150.286C99.4289 178.388 57.1514 189.287 47.881 174.94" stroke="#00F686" stroke-opacity="0.3" stroke-width="14" stroke-linecap="round" stroke-linejoin="round"/>
</svg>
