<svg width="191" height="204" viewBox="0 0 191 204" fill="none" xmlns="http://www.w3.org/2000/svg">
<path d="M184.622 12.5809L127.196 112.675M127.196 112.675L11.8815 117.065M127.196 112.675L185.424 208.941M243.523 98.4861L193.771 16.2331C191.671 12.761 190.621 11.0249 189.171 9.78687C187.889 8.69159 186.387 7.88296 184.765 7.41506C182.931 6.88617 180.9 6.96352 176.836 7.11824L76.445 10.9406C72.5976 11.0871 70.6738 11.1604 68.9586 11.7704C67.4405 12.3103 66.0476 13.1528 64.8646 14.2467C63.528 15.4826 62.57 17.1525 60.6539 20.4921L10.6589 107.633C8.63531 111.16 7.62351 112.923 7.24072 114.793C6.90208 116.447 6.92074 118.153 7.29545 119.797C7.719 121.656 8.76907 123.392 10.8692 126.864L60.621 209.117C62.7211 212.589 63.7712 214.325 65.2207 215.563C66.5031 216.658 68.0055 217.467 69.6275 217.935C71.4609 218.464 73.4926 218.386 77.5561 218.232L177.947 214.409C181.795 214.263 183.718 214.189 185.434 213.579C186.952 213.039 188.345 212.197 189.528 211.103C190.864 209.867 191.822 208.197 193.738 204.858L243.733 117.717C245.757 114.19 246.769 112.426 247.151 110.557C247.49 108.903 247.471 107.197 247.097 105.553C246.673 103.694 245.623 101.958 243.523 98.4861Z" stroke="#00F686" stroke-opacity="0.3" stroke-width="14" stroke-linecap="round" stroke-linejoin="round"/>
</svg>
