<svg width="22" height="31" viewBox="0 0 22 31" fill="none" xmlns="http://www.w3.org/2000/svg">
<path d="M15.8323 8.30399H3.82384V1.51405C3.82384 1.09866 3.65508 0.722086 3.38277 0.446451C3.11046 0.170816 2.73844 0 2.32805 0H1.49578C1.0854 0 0.713375 0.170816 0.441065 0.446451C0.168756 0.722086 0 1.09866 0 1.51405V24.3258C0 25.9641 0.64434 27.5402 1.79111 28.6971C2.93788 29.8579 4.49119 30.5101 6.1097 30.5101H15.8285C17.447 30.5101 19.0041 29.8579 20.1471 28.6971C21.29 27.5363 21.9382 25.9641 21.9382 24.3258V14.4883C21.9382 12.85 21.2938 11.2739 20.1471 10.117C19.0003 8.9562 17.447 8.30399 15.8285 8.30399H15.8323ZM17.098 25.6069C16.4421 26.2707 15.5562 26.6434 14.628 26.6434H7.314C6.38968 26.6434 5.49989 26.2707 4.84404 25.6069C4.1882 24.943 3.82 24.0462 3.82 23.1068V12.1706H14.6242C15.5485 12.1706 16.4383 12.5433 17.0941 13.2072C17.75 13.871 18.1182 14.7678 18.1182 15.7073C18.1182 18.1764 18.1182 20.6416 18.1182 23.1106C18.1182 24.0462 17.75 24.9469 17.0941 25.6108L17.098 25.6069Z" fill="white"/>
</svg>
