<svg width="348" height="238" viewBox="0 0 348 238" fill="none" xmlns="http://www.w3.org/2000/svg">
<path d="M240.536 35.5927C240.885 36.3916 241.287 37.1696 241.812 37.8655C246.074 43.5116 253.711 46.9999 261.994 47H332C340.837 47 348 54.1634 348 63V219C348 229.493 337.428 238 324.386 238H23.6143C10.5725 238 0 229.493 0 219V19C0 8.50659 10.5725 0 23.6143 0H214.507C220.865 0 226.62 3.76468 229.167 9.5903L240.536 35.5927Z" fill="black"/>
<path d="M23.6143 0.5H214.507C220.666 0.5 226.241 4.14744 228.709 9.79102L240.078 35.793C240.435 36.6095 240.855 37.4273 241.413 38.167C245.648 43.7779 253.098 47.2759 261.207 47.4893L261.994 47.5H332C340.56 47.5 347.5 54.4396 347.5 63V219C347.5 229.121 337.258 237.5 324.386 237.5H23.6143C10.7416 237.5 0.5 229.121 0.5 219V19C0.5 8.87876 10.7416 0.500012 23.6143 0.5Z" stroke="white" stroke-opacity="0.3"/>
</svg>
