<svg width="40" height="40" viewBox="0 0 40 40" fill="none" xmlns="http://www.w3.org/2000/svg">
<path d="M19.9999 36.6667C29.2047 36.6667 36.6666 29.2048 36.6666 20M19.9999 36.6667C10.7952 36.6667 3.33325 29.2048 3.33325 20M19.9999 36.6667C23.6818 36.6667 26.6666 29.2048 26.6666 20C26.6666 10.7953 23.6818 3.33337 19.9999 3.33337M19.9999 36.6667C16.318 36.6667 13.3333 29.2048 13.3333 20C13.3333 10.7953 16.318 3.33337 19.9999 3.33337M36.6666 20C36.6666 10.7953 29.2047 3.33337 19.9999 3.33337M36.6666 20H3.33325M19.9999 3.33337C10.7952 3.33337 3.33325 10.7953 3.33325 20M8.21484 8.45179C11.2309 11.4679 15.3976 13.3334 19.9999 13.3334C24.6023 13.3334 28.769 11.4679 31.7851 8.45179M31.7851 31.5483C28.769 28.5322 24.6023 26.6667 19.9999 26.6667C15.3976 26.6667 11.2309 28.5322 8.21484 31.5483" stroke="url(#paint0_linear_17_1078)" stroke-width="1.5" stroke-linecap="round" stroke-linejoin="round"/>
<defs>
<linearGradient id="paint0_linear_17_1078" x1="3.13717" y1="36.8628" x2="36.8627" y2="11.3726" gradientUnits="userSpaceOnUse">
<stop stop-color="#B0FDFF"/>
<stop offset="1" stop-color="#00F686"/>
</linearGradient>
</defs>
</svg>
