<svg width="40" height="40" viewBox="0 0 40 40" fill="none" xmlns="http://www.w3.org/2000/svg">
<path d="M27.6191 8.59521C32.037 11.2191 35.0002 16.0554 35.0002 21.5874C35.0002 22.068 34.9779 22.5435 34.9341 23.0127M25.845 35.479C24.0488 36.2437 22.0736 36.6666 20.0001 36.6666C17.9267 36.6666 15.9515 36.2437 14.1553 35.479M5.06613 23.0127C5.02238 22.5435 5 22.068 5 21.5874C5 16.0554 7.96325 11.2191 12.3811 8.59521M20.0007 9.68266C21.7448 9.68266 23.1586 8.26139 23.1586 6.5081C23.1586 4.75481 21.7448 3.3335 20.0007 3.3335C18.2566 3.3335 16.8428 4.75481 16.8428 6.5081C16.8428 8.26139 18.2566 9.68266 20.0007 9.68266ZM8.15789 33.4923C9.90192 33.4923 11.3158 32.071 11.3158 30.3177C11.3158 28.5644 9.90192 27.1431 8.15789 27.1431C6.41384 27.1431 5 28.5644 5 30.3177C5 32.071 6.41384 33.4923 8.15789 33.4923ZM31.8415 33.4923C33.5855 33.4923 34.9993 32.071 34.9993 30.3177C34.9993 28.5644 33.5855 27.1431 31.8415 27.1431C30.0974 27.1431 28.6836 28.5644 28.6836 30.3177C28.6836 32.071 30.0974 33.4923 31.8415 33.4923Z" stroke="url(#paint0_linear_17_1045)" stroke-width="1.5" stroke-linecap="round" stroke-linejoin="round"/>
<defs>
<linearGradient id="paint0_linear_17_1045" x1="4.82353" y1="36.8627" x2="37.4287" y2="14.6832" gradientUnits="userSpaceOnUse">
<stop stop-color="#B0FDFF"/>
<stop offset="1" stop-color="#00F686"/>
</linearGradient>
</defs>
</svg>
