<svg width="63" height="63" viewBox="0 0 63 63" fill="none" xmlns="http://www.w3.org/2000/svg">
<path d="M42.0517 21.8984C41.9303 21.708 42.1935 21.5093 42.3434 21.6782L51.4589 31.9472C51.6269 32.1365 51.6097 32.4262 51.4204 32.5943L41.1513 41.7098C40.9824 41.8596 40.7447 41.6311 40.8878 41.4564L48.1345 32.6129C48.3856 32.3063 48.4114 31.8732 48.1984 31.539L42.0517 21.8984Z" fill="#334155" stroke="#334155" stroke-width="3.66667" stroke-linecap="round"/>
<path d="M18.7583 20.5122C18.6369 20.3218 18.9001 20.1231 19.05 20.2919L28.1654 30.561C28.3334 30.7503 28.3162 31.04 28.1269 31.208L17.8578 40.3235C17.689 40.4734 17.4512 40.2449 17.5943 40.0702L24.841 31.2266C25.0921 30.9201 25.1179 30.487 24.9049 30.1528L18.7583 20.5122Z" fill="#334155" stroke="#334155" stroke-width="3.66667" stroke-linecap="round"/>
<path d="M30.4053 21.2053C30.2839 21.0149 30.547 20.8162 30.6969 20.985L39.8124 31.2541C39.9804 31.4434 39.9632 31.7331 39.7739 31.9012L29.5048 41.0166C29.336 41.1665 29.0982 40.938 29.2413 40.7633L36.067 32.4335C36.5693 31.8205 36.6208 30.9541 36.1948 30.2859L30.4053 21.2053Z" fill="#334155" stroke="#334155" stroke-width="3.66667" stroke-linecap="round"/>
</svg>
