<svg width="63" height="63" viewBox="0 0 63 63" fill="none" xmlns="http://www.w3.org/2000/svg">
<path d="M40.6063 20.3953C40.4593 20.2239 40.692 19.9901 40.8641 20.1362L51.3326 29.022C51.5256 29.1858 51.5492 29.475 51.3854 29.668L42.4997 40.1365C42.3536 40.3086 42.0861 40.1158 42.2032 39.9227L48.1347 30.1483C48.3403 29.8095 48.305 29.3771 48.0471 29.0762L40.6063 20.3953Z" fill="#334155" stroke="#334155" stroke-width="3.66667" stroke-linecap="round"/>
<path d="M17.3494 22.2972C17.2025 22.1257 17.4351 21.892 17.6073 22.0381L28.0758 30.9238C28.2687 31.0876 28.2924 31.3769 28.1286 31.5699L19.2428 42.0384C19.0967 42.2105 18.8292 42.0177 18.9463 41.8246L24.8779 32.0502C25.0835 31.7114 25.0481 31.2789 24.7902 30.978L17.3494 22.2972Z" fill="#334155" stroke="#334155" stroke-width="3.66667" stroke-linecap="round"/>
<path d="M28.9779 21.3463C28.8309 21.1748 29.0636 20.9411 29.2357 21.0872L39.7042 29.9729C39.8971 30.1367 39.9208 30.426 39.757 30.6189L30.8713 41.0874C30.7252 41.2596 30.4576 41.0668 30.5748 40.8737L36.1618 31.6671C36.5729 30.9896 36.5021 30.1245 35.9864 29.5228L28.9779 21.3463Z" fill="#334155" stroke="#334155" stroke-width="3.66667" stroke-linecap="round"/>
</svg>
