<svg width="60" height="60" viewBox="0 0 60 60" fill="none" xmlns="http://www.w3.org/2000/svg">
<path d="M36.7262 17.2321C36.5451 17.0971 36.7207 16.818 36.9207 16.9227L49.0854 23.2919C49.3096 23.4093 49.3963 23.6863 49.2788 23.9106L42.9096 36.0752C42.8049 36.2753 42.5016 36.1459 42.5734 35.9318L46.2131 25.0932C46.3392 24.7175 46.2097 24.3034 45.892 24.0665L36.7262 17.2321Z" fill="#B0FDFF" stroke="#334155" stroke-width="3.66667" stroke-linecap="round"/>
<path d="M14.4551 24.1962C14.2741 24.0612 14.4497 23.7821 14.6498 23.8868L26.8144 30.256C27.0386 30.3734 27.1252 30.6505 27.0078 30.8747L20.6386 43.0393C20.5339 43.2394 20.2305 43.11 20.3024 42.8959L23.942 32.0573C24.0682 31.6816 23.9387 31.2675 23.621 31.0306L14.4551 24.1962Z" fill="#B0FDFF" stroke="#334155" stroke-width="3.66667" stroke-linecap="round"/>
<path d="M25.5909 20.714C25.4099 20.579 25.5855 20.2999 25.7855 20.4046L37.9502 26.7739C38.1744 26.8913 38.261 27.1683 38.1436 27.3925L31.7744 39.5572C31.6696 39.7572 31.3663 39.6279 31.4382 39.4137L34.8664 29.2048C35.1186 28.4535 34.8596 27.6252 34.2243 27.1514L25.5909 20.714Z" fill="#B0FDFF" stroke="#334155" stroke-width="3.66667" stroke-linecap="round"/>
</svg>
