<svg width="61" height="61" viewBox="0 0 61 61" fill="none" xmlns="http://www.w3.org/2000/svg">
<path d="M42.6691 23.0041C42.5769 22.7979 42.8665 22.64 42.9899 22.8291L50.4985 34.3255C50.6369 34.5374 50.5773 34.8214 50.3654 34.9598L38.869 42.4684C38.6799 42.5919 38.4783 42.3309 38.6455 42.1791L47.1123 34.4957C47.4058 34.2293 47.4949 33.8047 47.3333 33.4429L42.6691 23.0041Z" fill="#334155" stroke="#334155" stroke-width="3.66667" stroke-linecap="round"/>
<path d="M19.8321 18.2121C19.7401 18.0059 20.0295 17.848 20.153 18.0371L27.6616 29.5335C27.8 29.7454 27.7404 30.0294 27.5285 30.1678L16.032 37.6764C15.843 37.7999 15.6414 37.5389 15.8086 37.3871L24.2754 29.7037C24.5689 29.4373 24.658 29.0127 24.4963 28.6509L19.8321 18.2121Z" fill="#334155" stroke="#334155" stroke-width="3.66667" stroke-linecap="round"/>
<path d="M31.2506 20.6081C31.1585 20.4019 31.448 20.244 31.5715 20.4331L39.08 31.9295C39.2184 32.1414 39.1588 32.4254 38.9469 32.5638L27.4505 40.0724C27.2615 40.1959 27.0599 39.9349 27.2271 39.7831L35.2021 32.5461C35.7889 32.0134 35.9671 31.164 35.6439 30.4405L31.2506 20.6081Z" fill="#334155" stroke="#334155" stroke-width="3.66667" stroke-linecap="round"/>
</svg>
