<svg width="48" height="48" viewBox="0 0 48 48" fill="none" xmlns="http://www.w3.org/2000/svg">
<path d="M18.0001 28H30.0001M18.0001 34H30.0001M24.0089 28V38M30.0001 22L24.0001 28L18.0001 22M15.0003 14.3848C19.1257 16.0002 24.0086 16.0002 24.0086 16.0002C24.0086 16.0002 28.8803 16.0002 33.0003 14.3848C37.5021 19.6386 40.6567 26.5646 42.73 32.3977C44.829 38.3029 40.2009 44.0002 33.9337 44.0002H14.02C7.76848 44.0002 3.14618 38.329 5.23459 32.4366C7.29823 26.614 10.4551 19.6856 15.0003 14.3848ZM24.0001 16C31.1798 16 37.0001 13.3137 37.0001 10C37.0001 6.68629 31.1798 4 24.0001 4C16.8204 4 11.0001 6.68629 11.0001 10C11.0001 13.3137 16.8204 16 24.0001 16Z" stroke="url(#paint0_linear_50_1444)" stroke-width="1.5" stroke-linecap="round" stroke-linejoin="round"/>
<defs>
<linearGradient id="paint0_linear_50_1444" x1="4.49951" y1="44.2355" x2="44.5287" y2="15.1032" gradientUnits="userSpaceOnUse">
<stop stop-color="#B0FDFF"/>
<stop offset="1" stop-color="#00F686"/>
</linearGradient>
</defs>
</svg>
