<svg width="44" height="44" viewBox="0 0 44 44" fill="none" xmlns="http://www.w3.org/2000/svg">
<path d="M20.166 7.33341V18.3334C20.166 20.3584 16.4724 22.0001 11.916 22.0001C7.35967 22.0001 3.66602 20.3584 3.66602 18.3334V7.33341M20.166 7.33341C20.166 9.35842 16.4724 11.0001 11.916 11.0001C7.35967 11.0001 3.66602 9.35842 3.66602 7.33341M20.166 7.33341C20.166 5.30837 16.4724 3.66675 11.916 3.66675C7.35967 3.66675 3.66602 5.30837 3.66602 7.33341M20.166 12.8334C20.166 14.8584 16.4724 16.5001 11.916 16.5001C7.35967 16.5001 3.66602 14.8584 3.66602 12.8334M29.3327 5.50008H34.8327C36.8577 5.50008 38.4993 7.1417 38.4993 9.16675V14.6667M14.666 38.5001H9.16602C7.14097 38.5001 5.49935 36.8584 5.49935 34.8334V29.3334M32.0827 34.8334V40.3334M32.0827 40.3334H37.5827M32.0827 40.3334H26.5827M40.3327 34.8334V23.8334H23.8327V34.8334H40.3327Z" stroke="white" stroke-width="1.5" stroke-linecap="round" stroke-linejoin="round"/>
</svg>
