<svg width="44" height="44" viewBox="0 0 44 44" fill="none" xmlns="http://www.w3.org/2000/svg">
<path d="M29.3332 5.50008H34.8332C36.8582 5.50008 38.4998 7.1417 38.4998 9.16675V14.6667M14.6665 38.5001H9.1665C7.14146 38.5001 5.49984 36.8584 5.49984 34.8334V29.3334M20.1665 7.33341V18.3334C20.1665 20.3584 16.4729 22.0001 11.9165 22.0001C7.36016 22.0001 3.6665 20.3584 3.6665 18.3334V7.33341M20.1665 7.33341C20.1665 9.35842 16.4729 11.0001 11.9165 11.0001C7.36016 11.0001 3.6665 9.35842 3.6665 7.33341M20.1665 7.33341C20.1665 5.30837 16.4729 3.66675 11.9165 3.66675C7.36016 3.66675 3.6665 5.30837 3.6665 7.33341M20.1665 12.8334C20.1665 14.8584 16.4729 16.5001 11.9165 16.5001C7.36016 16.5001 3.6665 14.8584 3.6665 12.8334M35.7498 25.6667C35.7498 26.5434 35.7498 29.3334 35.7498 29.3334H28.4165C28.4165 29.3334 28.4165 27.6918 28.4165 25.6667C28.4165 23.6417 30.0582 22.0001 32.0832 22.0001C34.1082 22.0001 35.7498 23.6417 35.7498 25.6667ZM23.8332 29.3334H40.3332V40.3334H23.8332V29.3334Z" stroke="black" stroke-width="1.5" stroke-linecap="round" stroke-linejoin="round"/>
</svg>
