<svg width="44" height="44" viewBox="0 0 44 44" fill="none" xmlns="http://www.w3.org/2000/svg">
<path d="M21.9998 9.16659C21.9998 11.6979 17.8958 13.7499 12.8332 13.7499C7.77056 13.7499 3.6665 11.6979 3.6665 9.16659M21.9998 9.16659C21.9998 6.63528 17.8958 4.58325 12.8332 4.58325C7.77056 4.58325 3.6665 6.63528 3.6665 9.16659M21.9998 9.16659C21.9998 9.16659 21.9998 14.084 21.9998 15.5833M3.6665 9.16659C3.6665 9.16659 3.6665 13.052 3.6665 15.5833M3.6665 15.5833C3.6665 18.1145 7.77056 20.1666 12.8332 20.1666C17.8957 20.1666 21.9998 18.1145 21.9998 15.5833M3.6665 15.5833C3.6665 15.5833 3.6665 19.4686 3.6665 21.9999M21.9998 15.5833C21.9998 15.5833 21.9998 20.5006 21.9998 21.9999M3.6665 21.9999C3.6665 24.5312 7.77056 26.5833 12.8332 26.5833C17.8957 26.5833 21.9998 24.5312 21.9998 21.9999M3.6665 21.9999C3.6665 21.9999 3.6665 25.8853 3.6665 28.4166M21.9998 21.9999C21.9998 21.9999 21.9998 26.9173 21.9998 28.4166M21.9998 21.9999C21.9998 24.5312 26.1039 26.5833 31.1665 26.5833C36.2291 26.5833 40.3332 24.5312 40.3332 21.9999M21.9998 21.9999C21.9998 19.4686 26.1039 17.4166 31.1665 17.4166C36.2291 17.4166 40.3332 19.4686 40.3332 21.9999M21.9998 21.9999C21.9998 21.9999 21.9998 25.8853 21.9998 28.4166M3.6665 28.4166C3.6665 30.9479 7.77056 32.9999 12.8332 32.9999C17.8957 32.9999 21.9998 30.9479 21.9998 28.4166M3.6665 28.4166C3.6665 28.4166 3.6665 32.302 3.6665 34.8333C3.6665 37.3645 7.77056 39.4166 12.8332 39.4166C17.8957 39.4166 21.9998 37.3645 21.9998 34.8333M21.9998 28.4166C21.9998 28.4166 21.9998 33.334 21.9998 34.8333M21.9998 28.4166C21.9998 30.9479 26.1039 32.9999 31.1665 32.9999C36.2291 32.9999 40.3332 30.9479 40.3332 28.4166M21.9998 28.4166C21.9998 28.4166 21.9998 32.302 21.9998 34.8333M21.9998 34.8333C21.9998 37.3645 26.1039 39.4166 31.1665 39.4166C36.2291 39.4166 40.3332 37.3645 40.3332 34.8333C40.3332 33.334 40.3332 28.4166 40.3332 28.4166M40.3332 21.9999C40.3332 21.9999 40.3332 26.9173 40.3332 28.4166" stroke="black" stroke-width="1.5" stroke-linecap="round" stroke-linejoin="round"/>
</svg>
