<svg width="53" height="44" viewBox="0 0 53 44" fill="none" xmlns="http://www.w3.org/2000/svg">
<path d="M33.3493 31.7963C33.2168 31.9792 33.4677 32.1932 33.6274 32.0335L43.3368 22.3241C43.5157 22.1451 43.5158 21.8549 43.3368 21.6759L33.6274 11.9665C33.4677 11.8068 33.2168 12.0208 33.3493 12.2037L40.0578 21.4622C40.2903 21.7831 40.2903 22.217 40.0578 22.5379L33.3493 31.7963Z" fill="#B0FDFF"/>
<path d="M10.0148 31.7963C9.8823 31.9792 10.1332 32.1932 10.2929 32.0335L20.0023 22.3241C20.1812 22.1451 20.1812 21.8549 20.0023 21.6759L10.2928 11.9665C10.1332 11.8068 9.88227 12.0208 10.0148 12.2037L16.7232 21.4622C16.9557 21.7831 16.9557 22.217 16.7232 22.5379L10.0148 31.7963Z" fill="#B0FDFF"/>
<path d="M21.682 31.7963C21.5495 31.9792 21.8004 32.1932 21.9601 32.0335L31.6695 22.3241C31.8485 22.1451 31.8485 21.8549 31.6695 21.6759L21.9601 11.9665C21.8004 11.8068 21.5495 12.0208 21.682 12.2037L28.0008 20.9243C28.4658 21.5661 28.4658 22.434 28.0008 23.0757L21.682 31.7963Z" fill="#B0FDFF"/>
<path d="M33.3493 31.7963C33.2168 31.9792 33.4677 32.1932 33.6274 32.0335L43.3368 22.3241C43.5157 22.1451 43.5158 21.8549 43.3368 21.6759L33.6274 11.9665C33.4677 11.8068 33.2168 12.0208 33.3493 12.2037L40.0578 21.4622C40.2903 21.7831 40.2903 22.217 40.0578 22.5379L33.3493 31.7963Z" stroke="#334155" stroke-width="3.66667" stroke-linecap="round"/>
<path d="M10.0148 31.7963C9.8823 31.9792 10.1332 32.1932 10.2929 32.0335L20.0023 22.3241C20.1812 22.1451 20.1812 21.8549 20.0023 21.6759L10.2928 11.9665C10.1332 11.8068 9.88227 12.0208 10.0148 12.2037L16.7232 21.4622C16.9557 21.7831 16.9557 22.217 16.7232 22.5379L10.0148 31.7963Z" stroke="#334155" stroke-width="3.66667" stroke-linecap="round"/>
<path d="M21.682 31.7963C21.5495 31.9792 21.8004 32.1932 21.9601 32.0335L31.6695 22.3241C31.8485 22.1451 31.8485 21.8549 31.6695 21.6759L21.9601 11.9665C21.8004 11.8068 21.5495 12.0208 21.682 12.2037L28.0008 20.9243C28.4658 21.5661 28.4658 22.434 28.0008 23.0757L21.682 31.7963Z" stroke="#334155" stroke-width="3.66667" stroke-linecap="round"/>
</svg>
