<svg width="48" height="48" viewBox="0 0 48 48" fill="none" xmlns="http://www.w3.org/2000/svg">
<path d="M24 23C26.7614 23 29 20.7614 29 18C29 15.2386 26.7614 13 24 13C21.2386 13 19 15.2386 19 18C19 20.7614 21.2386 23 24 23ZM24 23C28.4183 23 32 26.5817 32 31M24 23C19.5817 23 16 26.5817 16 31M6 9.25564L24.0086 4L42 9.25564V20.0337C42 31.3622 34.7502 40.4194 24.0026 44.0005C13.2521 40.4195 6 31.36 6 20.0287V9.25564Z" stroke="url(#paint0_linear_50_1581)" stroke-width="1.5" stroke-linecap="round" stroke-linejoin="round"/>
<defs>
<linearGradient id="paint0_linear_50_1581" x1="5.78824" y1="44.2358" x2="44.9148" y2="17.621" gradientUnits="userSpaceOnUse">
<stop stop-color="#B0FDFF"/>
<stop offset="1" stop-color="#00F686"/>
</linearGradient>
</defs>
</svg>
