<svg width="48" height="48" viewBox="0 0 48 48" fill="none" xmlns="http://www.w3.org/2000/svg">
<path d="M18 43V22C18 18.6863 20.6863 16 24 16C27.3137 16 30 18.6863 30 22V43M12 40V22C12 15.3726 17.3726 10 24 10C30.6274 10 36 15.3726 36 22V40M6 35V22C6 12.0589 14.0589 4 24 4C33.9411 4 42 12.0589 42 22V35M24 44V31M24 24.625V21.875" stroke="url(#paint0_linear_50_1597)" stroke-width="1.5" stroke-linecap="round" stroke-linejoin="round"/>
<defs>
<linearGradient id="paint0_linear_50_1597" x1="5.78824" y1="44.2353" x2="44.9145" y2="17.6203" gradientUnits="userSpaceOnUse">
<stop stop-color="#B0FDFF"/>
<stop offset="1" stop-color="#00F686"/>
</linearGradient>
</defs>
</svg>
