<svg width="48" height="48" viewBox="0 0 48 48" fill="none" xmlns="http://www.w3.org/2000/svg">
<path d="M6 18V9C6 7.34315 7.34315 6 9 6H39C40.6569 6 42 7.34315 42 9V18M21 26L33 13M26 21L30 25M31 16L35 20M6 30V39C6 40.6569 7.34315 42 9 42H39C40.6569 42 42 40.6569 42 39V30M23 30C23 32.7614 20.7614 35 18 35C15.2386 35 13 32.7614 13 30C13 27.2386 15.2386 25 18 25C20.7614 25 23 27.2386 23 30Z" stroke="url(#paint0_linear_50_1613)" stroke-width="1.5" stroke-linecap="round" stroke-linejoin="round"/>
<defs>
<linearGradient id="paint0_linear_50_1613" x1="5.78824" y1="42.2118" x2="42.2118" y2="14.6824" gradientUnits="userSpaceOnUse">
<stop stop-color="#B0FDFF"/>
<stop offset="1" stop-color="#00F686"/>
</linearGradient>
</defs>
</svg>
