<svg width="48" height="48" viewBox="0 0 48 48" fill="none" xmlns="http://www.w3.org/2000/svg">
<path d="M43 42V37C43 35.8954 42.1046 35 41 35H7C5.89543 35 5 35.8954 5 37V42M43 42C43 43.1046 42.1046 44 41 44H7C5.89543 44 5 43.1046 5 42M43 42V31C43 29.8954 42.1046 29 41 29H7C5.89543 29 5 29.8954 5 31V42M18.763 15.6637C18.9051 15.2657 19.2821 15 19.7047 15H28.2953C28.7179 15 29.0949 15.2657 29.237 15.6637L34 29H14L18.763 15.6637ZM20.4 4H27.6C30.5823 4 33 6.41766 33 9.4C33 12.3823 30.5823 14.8 27.6 14.8H20.4C17.4177 14.8 15 12.3823 15 9.4C15 6.41766 17.4177 4 20.4 4Z" stroke="url(#paint0_linear_50_1625)" stroke-width="1.5" stroke-linecap="round" stroke-linejoin="round"/>
<defs>
<linearGradient id="paint0_linear_50_1625" x1="4.77647" y1="44.2353" x2="44.6365" y2="15.6149" gradientUnits="userSpaceOnUse">
<stop stop-color="#B0FDFF"/>
<stop offset="1" stop-color="#00F686"/>
</linearGradient>
</defs>
</svg>
