<svg width="26" height="26" viewBox="0 0 26 26" fill="none" xmlns="http://www.w3.org/2000/svg">
<path d="M22.75 21.1248V9.20817C22.75 8.31071 22.0225 7.58317 21.125 7.58317H4.875C3.97754 7.58317 3.25 8.31071 3.25 9.20817V21.1248M22.75 21.1248C22.75 22.0223 22.0225 22.7498 21.125 22.7498H4.875C3.97754 22.7498 3.25 22.0223 3.25 21.1248M22.75 21.1248V17.3332H3.25V21.1248M9.20833 10.8332L13 7.58317L16.7917 10.8332M13 4.87484C13 6.37061 11.7874 7.58317 10.2917 7.58317C8.79589 7.58317 7.58333 6.37061 7.58333 4.87484C7.58333 3.37907 8.79589 2.1665 10.2917 2.1665C11.7874 2.1665 13 3.37907 13 4.87484ZM17.3333 5.4165C17.3333 6.61312 16.3633 7.58317 15.1667 7.58317C13.97 7.58317 13 6.61312 13 5.4165C13 4.21989 13.97 3.24984 15.1667 3.24984C16.3633 3.24984 17.3333 4.21989 17.3333 5.4165Z" stroke="url(#paint0_linear_50_1683)" stroke-width="1.5" stroke-linecap="round" stroke-linejoin="round"/>
<defs>
<linearGradient id="paint0_linear_50_1683" x1="3.13529" y1="22.8709" x2="23.6283" y2="8.19719" gradientUnits="userSpaceOnUse">
<stop stop-color="#B0FDFF"/>
<stop offset="1" stop-color="#00F686"/>
</linearGradient>
</defs>
</svg>
