<svg width="14" height="15" viewBox="0 0 14 15" fill="none" xmlns="http://www.w3.org/2000/svg">
<path d="M13.4722 4.79635L13.3763 4.52848C13.2152 4.08203 12.8931 3.72099 12.4635 3.51523C12.034 3.30948 11.5545 3.28618 11.1135 3.44923L9.25717 4.12473L9.60618 2.16035C9.69056 1.6906 9.58701 1.21698 9.3147 0.820995C9.04623 0.428894 8.63968 0.164905 8.1756 0.0794974L7.89946 0.029029C7.43538 -0.0563791 6.96747 0.0484399 6.57627 0.320193C6.1889 0.591946 5.92809 1.00346 5.84371 1.4732L5.4947 3.43759L3.98741 2.1487C3.62689 1.84201 3.16664 1.6906 2.69873 1.73331C2.22698 1.77213 1.79743 1.9973 1.49443 2.36222L1.31417 2.57962C1.01118 2.94455 0.865434 3.40653 0.903788 3.88404C0.942141 4.36155 1.16459 4.79635 1.52128 5.10304L3.02857 6.39193L1.17226 7.06743C0.727361 7.23048 0.374509 7.55658 0.171236 7.99139C-0.0320377 8.42619 -0.0550491 8.91147 0.106035 9.35792L0.201919 9.62579C0.363003 10.0761 0.685174 10.4333 1.11473 10.639C1.35636 10.7555 1.61333 10.8099 1.8703 10.8099C2.06973 10.8099 2.27301 10.7749 2.46861 10.705L4.32491 10.0295L3.9759 11.9939C3.89152 12.4637 3.99508 12.9373 4.26739 13.3333C4.53586 13.7254 4.94241 13.9894 5.40648 14.0748L5.68263 14.1252C5.78618 14.1447 5.89357 14.1524 5.99713 14.1524C6.35381 14.1524 6.70283 14.0437 7.00582 13.8302C7.39319 13.5584 7.654 13.1469 7.73837 12.6772L8.08739 10.7128L9.59468 12.0017C9.91685 12.2773 10.3157 12.4248 10.7338 12.4248C10.7836 12.4248 10.8335 12.4248 10.8872 12.4171C11.3589 12.3783 11.7885 12.1531 12.0915 11.792L12.2717 11.5746C12.5747 11.2097 12.7205 10.7477 12.6821 10.2702C12.6438 9.79272 12.4213 9.35792 12.0646 9.05123L10.5573 7.76234L12.4137 7.08684C12.8586 6.92379 13.2114 6.59769 13.4147 6.16288C13.618 5.72808 13.641 5.2428 13.4799 4.79247L13.4722 4.79635ZM8.95801 7.47506C8.74323 8.6863 7.59646 9.49379 6.39984 9.27251C5.20321 9.05511 4.40546 7.89433 4.62407 6.68309C4.83885 5.47185 5.98562 4.66436 7.18224 4.88564C8.37887 5.10304 9.17663 6.26382 8.95801 7.47506Z" fill="#00C7CC"/>
</svg>
