<svg width="22" height="24" viewBox="0 0 22 24" fill="none" xmlns="http://www.w3.org/2000/svg">
<path d="M20.1471 1.81298C19.0003 0.652208 17.447 0 15.8285 0C12.5876 0 9.35057 0 6.1097 0C4.49119 0 2.93403 0.652208 1.7911 1.81298C0.644331 2.97375 0 4.54604 0 6.18432C0 9.46477 0 12.7413 0 16.0218C0 17.6601 0.644331 19.2362 1.7911 20.3931C2.93787 21.5539 4.49119 22.2061 6.1097 22.2061C9.61521 22.2061 13.1245 22.2061 16.6301 22.2061H18.2371C18.2371 22.2061 18.2524 22.2449 18.2601 22.2604C18.3943 22.5788 18.6206 22.8544 18.9044 23.0446C19.1882 23.2388 19.5219 23.3475 19.8863 23.3475H20.1662C20.6533 23.3475 21.0944 23.1456 21.4166 22.8195C21.7387 22.4934 21.9382 22.0469 21.9382 21.5539C21.9382 16.4294 21.9382 11.3049 21.9382 6.18044C21.9382 4.54216 21.2938 2.96599 20.1471 1.8091V1.81298ZM18.1143 18.3394C14.5129 18.3394 10.9116 18.3394 7.31017 18.3394C6.38585 18.3394 5.49605 17.9668 4.8402 17.3029C4.18436 16.639 3.81617 15.7423 3.81617 14.8028C3.81617 12.3337 3.81617 9.86851 3.81617 7.39944C3.81617 6.46384 4.18436 5.56317 4.8402 4.89932C5.49605 4.23546 6.38201 3.86277 7.31017 3.86277C9.74945 3.86277 12.1849 3.86277 14.6242 3.86277C15.5485 3.86277 16.4383 4.23546 17.0941 4.89932C17.75 5.56317 18.1182 6.45996 18.1182 7.39944C18.1182 11.0448 18.1182 14.6902 18.1182 18.3356L18.1143 18.3394Z" fill="white"/>
</svg>
