<svg width="22" height="23" viewBox="0 0 22 23" fill="none" xmlns="http://www.w3.org/2000/svg">
<path d="M15.8285 0H6.1097C4.49119 0 2.93404 0.652208 1.79111 1.81298C0.644338 2.97375 0 4.54604 0 6.18432V16.0218C0 17.6601 0.644338 19.2362 1.79111 20.3931C2.93787 21.5539 4.49119 22.2061 6.1097 22.2061H15.8285C17.447 22.2061 19.0041 21.5539 20.1471 20.3931C21.2938 19.2323 21.9382 17.6601 21.9382 16.0218V6.18432C21.9382 4.54604 21.2938 2.96987 20.1471 1.81298C19.0003 0.652208 17.447 0 15.8285 0ZM18.1182 14.8067C18.1182 15.7423 17.75 16.6429 17.0941 17.3068C16.4383 17.9706 15.5523 18.3433 14.6242 18.3433H7.31017C6.38585 18.3433 5.49605 17.9706 4.8402 17.3068C4.18436 16.6429 3.81617 15.7461 3.81617 14.8067V7.40333C3.81617 6.46772 4.18436 5.56705 4.8402 4.9032C5.49605 4.23935 6.38201 3.86666 7.31017 3.86666H14.6242C15.5485 3.86666 16.4383 4.23935 17.0941 4.9032C17.75 5.56705 18.1182 6.46384 18.1182 7.40333V14.8067Z" fill="white"/>
</svg>
